<?xml version="1.0" standalone="no"?>
<!DOCTYPE svg PUBLIC "-//W3C//DTD SVG 20010904//EN"
 "http://www.w3.org/TR/2001/REC-SVG-20010904/DTD/svg10.dtd">
<svg version="1.0" xmlns="http://www.w3.org/2000/svg"
 width="260.000000pt" height="260.000000pt" viewBox="0 0 260.000000 260.000000"
 preserveAspectRatio="xMidYMid meet">
<metadata>
Created by potrace 1.11, written by Peter Selinger 2001-2013
</metadata>
<g transform="translate(0.000000,260.000000) scale(0.100000,-0.100000)"
fill="#000000" stroke="none">
<path d="M1132 2590 c-557 -79 -988 -483 -1108 -1041 -26 -118 -26 -380 0
-498 59 -273 167 -473 361 -666 193 -194 393 -302 666 -361 118 -26 380 -26
498 0 273 59 473 167 666 361 194 193 302 393 361 666 14 62 18 127 18 249 0
122 -4 187 -18 249 -59 273 -167 473 -361 666 -190 190 -383 297 -645 356 -98
22 -340 33 -438 19z m856 -832 c95 -36 188 -148 207 -251 l7 -37 -75 0 -74 0
-17 44 c-34 88 -130 145 -225 132 -91 -12 -154 -75 -172 -171 -6 -34 -9 -135
-7 -240 3 -165 5 -184 27 -228 33 -69 85 -101 170 -105 81 -4 141 23 185 86
24 34 30 54 34 116 l5 76 -107 0 -106 0 0 65 0 65 186 0 187 0 -6 -132 c-8
-196 -44 -280 -151 -352 -187 -127 -460 -58 -547 138 -51 117 -48 522 6 631
44 92 139 162 248 185 58 12 161 2 225 -22z m-1245 -285 c78 -166 146 -303
152 -303 5 -1 72 136 149 304 l141 306 77 0 78 0 0 -505 0 -505 -80 0 -80 0
-2 327 -3 327 -111 -235 -110 -234 -57 -3 -57 -3 -119 243 -119 243 -1 -332
-1 -333 -75 0 -75 0 0 505 0 506 76 -3 76 -3 141 -302z"/>
</g>
</svg>
