<svg width="1736" height="164" xmlns="http://www.w3.org/2000/svg"><path d="M65.219 116c1.61 0 3.22-.856 4.83-2.568 1.611-1.712 2.416-4.128 2.416-7.25V99.99c0-2.72-.503-5.438-1.51-8.157l-.15-.604a21.688 21.688 0 00-4.68-6.948L39.553 57.698v-6.646l23.098-23.11c1.912-1.912 3.422-4.178 4.53-6.796 1.106-2.518 1.66-5.186 1.66-8.005V9.214c0-3.122-.805-5.488-2.416-7.1C64.916.705 63.306 0 61.596 0c-1.61 0-3.221.806-4.832 2.417-1.61 1.61-2.415 4.027-2.415 7.25l-3.321 8.156-33.214 33.23-3.321-1.662V9.667c0-3.122-.805-5.539-2.415-7.25C10.468.806 8.857 0 7.247 0c-1.61 0-3.221.806-4.831 2.417C.806 4.027 0 6.444 0 9.667v96.666c0 3.223.805 5.64 2.416 7.25 1.61 1.611 3.22 2.417 4.83 2.417 1.61 0 3.221-.856 4.832-2.568 1.61-1.61 2.415-4.027 2.415-7.25V81.11l3.623-8.609 3.624-3.625 6.944-.302 25.967 25.98 3.321 7.853v4.531c0 2.92.805 5.186 2.416 6.797 1.51 1.51 3.12 2.266 4.83 2.266zm50.574 0c2.92 0 5.637-.604 8.153-1.813l4.076-1.812h3.623l2.416 1.813c1.51 1.208 3.12 1.812 4.83 1.812 1.611 0 3.221-.806 4.832-2.417 1.61-1.61 2.415-4.027 2.415-7.25V38.667c0-3.223-.805-5.64-2.415-7.25-1.61-1.611-3.221-2.417-4.831-2.417-1.711 0-3.322.755-4.831 2.266-1.61 1.61-2.416 4.027-2.416 7.25v51.052l-3.623 8.307-8.454 3.625h-4.831l-8.455-3.625-3.623-8.307V38.516c0-3.223-.805-5.64-2.415-7.25-1.51-1.51-3.12-2.266-4.831-2.266-1.61 0-3.221.806-4.831 2.417-1.61 1.61-2.416 4.027-2.416 7.25v53.77c0 2.82.554 5.539 1.66 8.157l.303.604a21.688 21.688 0 004.68 6.948l1.207 1.208c1.913 1.913 4.177 3.524 6.794 4.834h.302c2.516 1.208 5.234 1.812 8.152 1.812h4.53zm100.395 0c1.61 0 3.22-.806 4.83-2.417 1.611-1.61 2.416-4.027 2.416-7.25v-53.77c0-2.82-.553-5.539-1.66-8.157l-.302-.604a21.688 21.688 0 00-4.68-6.948l-1.208-1.208c-1.912-1.913-4.177-3.524-6.794-4.834h-.302c-2.516-1.208-5.233-1.812-8.152-1.812h-4.529c-2.919 0-5.636.604-8.152 1.813l-4.076 1.812h-3.624l-2.415-1.813c-1.51-1.208-3.12-1.812-4.831-1.812-1.61 0-3.22.806-4.831 2.417-1.61 1.61-2.416 4.027-2.416 7.25v67.666c0 3.223.805 5.64 2.416 7.25 1.61 1.611 3.22 2.417 4.83 2.417 1.712 0 3.322-.755 4.832-2.266 1.61-1.61 2.415-4.027 2.415-7.25V55.432l3.624-8.307 8.454-3.625h4.83l8.455 3.625 3.623 8.307v51.052c0 3.223.806 5.64 2.416 7.25 1.51 1.51 3.12 2.266 4.83 2.266zm58.576 0c2.818 0 5.535-.554 8.152-1.661l.604-.303a21.677 21.677 0 006.945-4.682l1.207-1.208a21.688 21.688 0 004.68-6.948l.151-.302c1.208-2.518 1.812-5.236 1.812-8.156v-.605c0-2.92-.604-5.638-1.812-8.156l-.15-.302a21.688 21.688 0 00-4.68-6.948l-4.832-4.833a21.677 21.677 0 00-6.944-4.682l-.604-.303a20.711 20.711 0 00-8.152-1.661h-.604l-8.455-3.625L258.46 58l-3.623-5.438 3.623-5.437 8.454-3.625h4.832l8.454 3.625 1.811 3.625c1.309 2.517 2.718 4.33 4.228 5.438 1.51 1.208 3.12 1.812 4.83 1.812 1.61 0 3.221-.806 4.832-2.417 1.61-1.61 2.415-3.222 2.415-4.833 0-1.611-.553-3.726-1.66-6.344l-.303-.604a21.688 21.688 0 00-4.68-6.948l-1.207-1.208a21.677 21.677 0 00-6.945-4.682l-.604-.303A20.711 20.711 0 00274.764 29h-10.87c-2.818 0-5.535.554-8.152 1.661l-.604.303a21.677 21.677 0 00-6.945 4.682l-1.207 1.208a21.688 21.688 0 00-4.68 6.948l-.151.302c-1.208 2.518-1.812 5.236-1.812 8.156v.605c0 2.92.604 5.638 1.812 8.156l.15.302a21.688 21.688 0 004.68 6.948l4.832 4.833a21.677 21.677 0 006.944 4.682l.604.303a20.711 20.711 0 008.152 1.661h.604l8.455 3.625L280.199 87l3.623 5.438-3.623 5.437-8.454 3.625h-4.832l-8.454-3.625-1.811-3.625c-1.309-2.517-2.718-4.33-4.228-5.438-1.51-1.208-3.12-1.812-4.83-1.812-1.61 0-3.221.806-4.832 2.417-1.61 1.61-2.415 3.222-2.415 4.833 0 1.611.553 3.726 1.66 6.344l.303.604a21.688 21.688 0 004.68 6.948l1.207 1.208a21.677 21.677 0 006.945 4.682l.604.303a20.711 20.711 0 008.152 1.661h10.87zm66.426 0c2.92 0 5.184-.806 6.794-2.417 1.51-1.51 2.264-3.121 2.264-4.833 0-1.712-.905-3.323-2.717-4.833-1.812-1.611-4.026-2.92-6.643-3.927l-5.133-2.115-3.623-8.307V48.182l4.53-4.682h4.528c2.92 0 5.184-.806 6.794-2.417 1.51-1.51 2.264-3.121 2.264-4.833 0-1.712-.754-3.323-2.264-4.833-1.61-1.611-3.976-2.417-7.096-2.417h-4.227l-4.529-5.135v-9.516c0-4.33-.805-6.495-2.415-6.495-1.208 0-2.92 1.108-5.133 3.323l-.302.302c-2.114 2.115-3.623 4.43-4.53 6.948l-2.113 5.136L314.016 29l-1.812 2.417c-1.208 1.51-1.811 3.121-1.811 4.833 0 1.611.905 3.625 2.717 6.042l4.53 6.041v44.105c0 2.819.553 5.538 1.66 8.156l.302.604a21.688 21.688 0 004.68 6.948l1.208 1.208a21.677 21.677 0 006.944 4.682l.302.151c2.516 1.209 5.234 1.813 8.152 1.813h.302zm82.128-97.875c1.61 0 3.22-.806 4.83-2.417 1.61-1.61 2.416-3.222 2.416-4.833 0-1.611-.805-3.222-2.415-4.833-1.61-1.611-3.221-2.417-4.831-2.417-1.61 0-3.221.806-4.831 2.417-1.61 1.61-2.416 3.222-2.416 4.833 0 1.611.805 3.222 2.416 4.833 1.61 1.611 3.22 2.417 4.83 2.417zm0 97.875c1.61 0 3.22-.806 4.83-2.417 1.61-1.61 2.416-4.027 2.416-7.25V38.667c0-3.223-.805-5.64-2.415-7.25-1.61-1.611-3.221-2.417-4.831-2.417-1.61 0-3.221.806-4.831 2.417-1.61 1.61-2.416 4.027-2.416 7.25v67.666c0 3.223.805 5.64 2.416 7.25 1.61 1.611 3.22 2.417 4.83 2.417zm113.528 0c1.61 0 3.221-.806 4.831-2.417 1.61-1.61 2.416-4.027 2.416-7.25v-53.77c0-2.82-.554-5.539-1.66-8.157l-.303-.604a21.688 21.688 0 00-4.68-6.948l-1.207-1.208a21.677 21.677 0 00-6.945-4.682l-.302-.151C526.48 29.604 523.762 29 520.844 29h-.604c-2.919 0-5.636.604-8.153 1.813l-.302.15a21.677 21.677 0 00-6.944 4.683l-.604.604h-7.246l-1.812-1.813c-1.208-1.208-3.12-2.366-5.737-3.473l-.302-.151c-2.516-1.209-5.233-1.813-8.152-1.813h-.604c-2.919 0-5.636.604-8.152 1.813l-4.228 1.812h-3.623l-2.415-1.813c-1.51-1.208-3.12-1.812-4.831-1.812-1.61 0-3.221.806-4.831 2.417-1.61 1.61-2.416 4.027-2.416 7.25v67.666c0 3.223.805 5.64 2.416 7.25 1.61 1.611 3.22 2.417 4.83 2.417 1.712 0 3.322-.755 4.832-2.266 1.61-1.61 2.415-4.027 2.415-7.25V55.432l3.623-8.307 9.059-3.625 9.058 3.625 3.623 8.307v51.052c0 3.223.805 5.64 2.416 7.25 1.51 1.51 3.12 2.266 4.83 2.266 1.712 0 3.322-.755 4.832-2.266 1.61-1.61 2.415-4.027 2.415-7.25V55.432l3.623-8.307 9.058-3.625 9.059 3.625 3.623 8.307v51.052c0 3.223.805 5.64 2.415 7.25 1.51 1.51 3.12 2.266 4.831 2.266zm32.61 29c1.71 0 3.321-.755 4.83-2.266 1.611-1.61 2.416-3.977 2.416-7.099v-22.354l3.623-.906 4.077 1.813c2.516 1.208 5.233 1.812 8.152 1.812h4.53c2.918 0 5.635-.604 8.151-1.813h.302c2.617-1.309 4.882-2.92 6.794-4.833l1.208-1.208a21.688 21.688 0 004.68-6.948l.302-.604a20.738 20.738 0 001.66-8.156V52.562c0-2.819-.553-5.538-1.66-8.156l-.302-.604a21.688 21.688 0 00-4.68-6.948l-1.208-1.208c-1.912-1.913-4.177-3.524-6.794-4.834h-.302C602.72 29.605 600.002 29 597.083 29h-4.529c-2.919 0-5.636.604-8.152 1.813l-4.077 1.812h-3.623l-2.415-1.813c-1.51-1.208-3.12-1.812-4.831-1.812-1.61 0-3.221.806-4.831 2.417-1.61 1.61-2.416 4.027-2.416 7.25v96.666c0 3.223.805 5.64 2.416 7.25 1.61 1.611 3.22 2.417 4.83 2.417zm24.155-43.5h-4.831l-8.455-3.625-3.623-8.458V55.583l3.623-8.458 8.455-3.625h4.83l8.455 3.625 3.623 8.458v33.834l-3.623 8.458-8.454 3.625zm50.725 14.5c1.711 0 3.322-.755 4.831-2.266 1.61-1.61 2.416-4.027 2.416-7.25V55.432l3.623-8.307 8.002-3.625h8.152c3.12 0 5.485-.806 7.095-2.417 1.41-1.51 2.114-3.121 2.114-4.833 0-1.712-.704-3.323-2.114-4.833-1.61-1.611-3.975-2.417-7.095-2.417h-3.925c-2.919 0-5.636.604-8.153 1.813l-4.076 1.812h-3.623l-2.416-1.813c-1.51-1.208-3.12-1.812-4.83-1.812-1.61 0-3.221.806-4.832 2.417-1.61 1.61-2.415 4.027-2.415 7.25v67.666c0 3.223.805 5.64 2.415 7.25 1.61 1.611 3.221 2.417 4.831 2.417zm55.557-97.875c1.61 0 3.22-.806 4.831-2.417 1.61-1.61 2.416-3.222 2.416-4.833 0-1.611-.806-3.222-2.416-4.833-1.61-1.611-3.22-2.417-4.83-2.417-1.611 0-3.222.806-4.832 2.417-1.61 1.61-2.415 3.222-2.415 4.833 0 1.611.805 3.222 2.415 4.833 1.61 1.611 3.22 2.417 4.831 2.417zm0 97.875c1.61 0 3.22-.806 4.831-2.417 1.61-1.61 2.416-4.027 2.416-7.25V38.667c0-3.223-.806-5.64-2.416-7.25-1.61-1.611-3.22-2.417-4.83-2.417-1.611 0-3.222.806-4.832 2.417-1.61 1.61-2.415 4.027-2.415 7.25v67.666c0 3.223.805 5.64 2.415 7.25 1.61 1.611 3.22 2.417 4.831 2.417zm77.296 0c1.61 0 3.221-.806 4.831-2.417 1.61-1.61 2.416-4.027 2.416-7.25v-53.77c0-2.82-.554-5.539-1.66-8.157l-.303-.604a21.688 21.688 0 00-4.68-6.948l-1.208-1.208c-1.912-1.913-4.176-3.524-6.793-4.834h-.302c-2.516-1.208-5.234-1.812-8.152-1.812h-4.53c-2.918 0-5.636.604-8.152 1.813l-4.076 1.812h-3.623l-2.416-1.813c-1.51-1.208-3.12-1.812-4.83-1.812-1.611 0-3.221.806-4.832 2.417-1.61 1.61-2.415 4.027-2.415 7.25v67.666c0 3.223.805 5.64 2.415 7.25 1.61 1.611 3.22 2.417 4.831 2.417 1.711 0 3.322-.755 4.831-2.266 1.61-1.61 2.416-4.027 2.416-7.25V55.432l3.623-8.307 8.454-3.625h4.831l8.455 3.625 3.623 8.307v51.052c0 3.223.805 5.64 2.415 7.25 1.51 1.51 3.12 2.266 4.831 2.266zm52.538 0c2.918 0 5.183-.806 6.793-2.417 1.51-1.51 2.265-3.121 2.265-4.833 0-1.712-.906-3.323-2.718-4.833-1.811-1.611-4.026-2.92-6.642-3.927l-5.133-2.115-3.624-8.307V48.182l4.53-4.682h4.529c2.918 0 5.183-.806 6.793-2.417 1.51-1.51 2.265-3.121 2.265-4.833 0-1.712-.755-3.323-2.265-4.833-1.61-1.611-3.975-2.417-7.095-2.417h-4.228l-4.529-5.135v-9.516c0-4.33-.805-6.495-2.415-6.495-1.208 0-2.919 1.108-5.133 3.323l-.302.302c-2.114 2.115-3.623 4.43-4.53 6.948l-2.113 5.136L802.552 29l-1.812 2.417c-1.207 1.51-1.811 3.121-1.811 4.833 0 1.611.906 3.625 2.717 6.042l4.53 6.041v44.105c0 2.819.553 5.538 1.66 8.156l.302.604a21.688 21.688 0 004.68 6.948l1.208 1.208a21.677 21.677 0 006.944 4.682l.302.151c2.516 1.209 5.234 1.813 8.153 1.813h.302z" fill="#FFF" fill-rule="nonzero"/></svg>
