<?xml version="1.0" encoding="UTF-8"?>
<svg width="1200px" height="152px" viewBox="0 0 1200 152" version="1.1" xmlns="http://www.w3.org/2000/svg" xmlns:xlink="http://www.w3.org/1999/xlink" style="background: #3569FF;">
<title>Kunst Imprint</title>
    <desc></desc>
    <defs></defs>
    <g id="Page-1" stroke="none" stroke-width="1" fill="none" fill-rule="evenodd">
        <g id="Artboard-2-Copy-2" fill="#EFFFEE">
            <path d="M80.1083333,90.875 C81.3861175,92.1527842 82.3763854,93.6222139 83.0791667,95.2833333 L83.175,95.6666667 C83.8138921,97.3916753 84.1333333,99.116658 84.1333333,100.841667 L84.1333333,104.770833 C84.1333333,106.751399 83.6222273,108.284717 82.6,109.370833 C81.5777727,110.45695 80.5555607,111 79.5333333,111 C78.4472168,111 77.4250048,110.520838 76.4666667,109.5625 C75.4444393,108.540273 74.9333333,107.102787 74.9333333,105.25 L74.9333333,102.375 L72.825,97.3916667 L56.3416667,80.9083333 L51.9333333,81.1 L49.6333333,83.4 L47.3333333,88.8625 L47.3333333,104.770833 C47.3333333,106.815288 46.8222273,108.348606 45.8,109.370833 C44.7777727,110.45695 43.7555607,111 42.7333333,111 C41.711106,111 40.688894,110.488894 39.6666667,109.466667 C38.6444393,108.444439 38.1333333,106.911121 38.1333333,104.866667 L38.1333333,43.5333333 C38.1333333,41.4888787 38.6444393,39.9555607 39.6666667,38.9333333 C40.688894,37.911106 41.711106,37.4 42.7333333,37.4 C43.7555607,37.4 44.7777727,37.911106 45.8,38.9333333 C46.8222273,40.0194499 47.3333333,41.5527679 47.3333333,43.5333333 L47.3333333,68.7375 L49.4416667,69.7916667 L70.525,48.7083333 L72.6333333,43.5333333 C72.6333333,41.4888787 73.1444393,39.9555607 74.1666667,38.9333333 C75.188894,37.911106 76.211106,37.4 77.2333333,37.4 C78.3194499,37.4 79.3416619,37.8472178 80.3,38.7416667 C81.3222273,39.763894 81.8333333,41.2652679 81.8333333,43.2458333 L81.8333333,45.7375 C81.8333333,47.5263978 81.481948,49.2194365 80.7791667,50.8166667 C80.0763854,52.4777861 79.1180616,53.9152717 77.9041667,55.1291667 L63.2416667,69.7916667 L63.2416667,74.0083333 L80.1083333,90.875 Z M99.0833333,106.783333 L98.3166667,106.016667 C97.0388825,104.738883 96.0486146,103.269453 95.3458333,101.608333 L95.1541667,101.225 C94.4513854,99.5638806 94.1,97.8388978 94.1,96.05 L94.1,61.9333333 C94.1,59.8888787 94.611106,58.3555607 95.6333333,57.3333333 C96.6555607,56.311106 97.6777727,55.8 98.7,55.8 C99.7861165,55.8 100.808329,56.2791619 101.766667,57.2375 C102.788894,58.2597273 103.3,59.7930453 103.3,61.8375 L103.3,94.2291667 L105.6,99.5 L110.966667,101.8 L114.033333,101.8 L119.4,99.5 L121.7,94.2291667 L121.7,61.8375 C121.7,59.7930453 122.211106,58.2597273 123.233333,57.2375 C124.191671,56.2791619 125.213883,55.8 126.3,55.8 C127.322227,55.8 128.344439,56.311106 129.366667,57.3333333 C130.388894,58.3555607 130.9,59.8888787 130.9,61.9333333 L130.9,104.866667 C130.9,106.911121 130.388894,108.444439 129.366667,109.466667 C128.344439,110.488894 127.322227,111 126.3,111 C125.213883,111 124.191671,110.61667 123.233333,109.85 L121.7,108.7 L119.4,108.7 L116.8125,109.85 C115.21527,110.61667 113.490287,111 111.6375,111 L108.7625,111 C106.909713,111 105.18473,110.61667 103.5875,109.85 L103.395833,109.85 C101.734714,109.01944 100.297228,107.997228 99.0833333,106.783333 Z M143.166667,104.866667 L143.166667,61.9333333 C143.166667,59.8888787 143.677773,58.3555607 144.7,57.3333333 C145.722227,56.311106 146.744439,55.8 147.766667,55.8 C148.852783,55.8 149.874995,56.1833295 150.833333,56.95 L152.366667,58.1 L154.666667,58.1 L157.254167,56.95 C158.851397,56.1833295 160.57638,55.8 162.429167,55.8 L165.304167,55.8 C167.156954,55.8 168.881936,56.1833295 170.479167,56.95 L170.670833,56.95 C172.331953,57.7805597 173.769438,58.8027717 174.983333,60.0166667 L175.75,60.7833333 C177.027784,62.0611175 178.018052,63.5305472 178.720833,65.1916667 L178.9125,65.575 C179.615281,67.2361194 179.966667,68.9611022 179.966667,70.75 L179.966667,104.866667 C179.966667,106.911121 179.455561,108.444439 178.433333,109.466667 C177.411106,110.488894 176.388894,111 175.366667,111 C174.28055,111 173.258338,110.520838 172.3,109.5625 C171.277773,108.540273 170.766667,107.006955 170.766667,104.9625 L170.766667,72.5708333 L168.466667,67.3 L163.1,65 L160.033333,65 L154.666667,67.3 L152.366667,72.5708333 L152.366667,104.9625 C152.366667,107.006955 151.855561,108.540273 150.833333,109.5625 C149.874995,110.520838 148.852783,111 147.766667,111 C146.744439,111 145.722227,110.488894 144.7,109.466667 C143.677773,108.444439 143.166667,106.911121 143.166667,104.866667 Z M195.683333,106.783333 L194.916667,106.016667 C193.638882,104.738883 192.648615,103.269453 191.945833,101.608333 L191.754167,101.225 C191.051385,99.5638806 190.7,98.2222273 190.7,97.2 C190.7,96.1777727 191.211106,95.1555607 192.233333,94.1333333 C193.255561,93.111106 194.277773,92.6 195.3,92.6 C196.386117,92.6 197.408329,92.9833295 198.366667,93.75 C199.325005,94.4527813 200.21944,95.6027698 201.05,97.2 L202.2,99.5 L207.566667,101.8 L210.633333,101.8 L216,99.5 L218.3,96.05 L216,92.6 L213.7,90.3 L208.333333,88 L207.95,88 C206.161102,88 204.436119,87.6486146 202.775,86.9458333 L202.391667,86.7541667 C200.730547,86.0513854 199.261118,85.0611175 197.983333,83.7833333 L194.916667,80.7166667 C193.638882,79.4388825 192.648615,77.9694528 191.945833,76.3083333 L191.85,76.1166667 C191.083329,74.5194365 190.7,72.7944537 190.7,70.9416667 L190.7,70.5583333 C190.7,68.7055463 191.083329,66.9805635 191.85,65.3833333 L191.945833,65.1916667 C192.648615,63.5305472 193.638882,62.0611175 194.916667,60.7833333 L195.683333,60.0166667 C196.961118,58.7388825 198.430547,57.7486146 200.091667,57.0458333 L200.475,56.8541667 C202.136119,56.1513854 203.861102,55.8 205.65,55.8 L212.55,55.8 C214.338898,55.8 216.063881,56.1513854 217.725,56.8541667 L218.108333,57.0458333 C219.769453,57.7486146 221.238882,58.7388825 222.516667,60.0166667 L223.283333,60.7833333 C224.561117,62.0611175 225.551385,63.5305472 226.254167,65.1916667 L226.445833,65.575 C227.148615,67.2361194 227.5,68.5777727 227.5,69.6 C227.5,70.6222273 226.988894,71.6444393 225.966667,72.6666667 C224.944439,73.688894 223.922227,74.2 222.9,74.2 C221.813883,74.2 220.791671,73.8166705 219.833333,73.05 C218.874995,72.3472187 217.98056,71.1972302 217.15,69.6 L216,67.3 L210.633333,65 L207.566667,65 L202.2,67.3 L199.9,70.75 L202.2,74.2 L204.5,76.5 L209.866667,78.8 L210.25,78.8 C212.038898,78.8 213.763881,79.1513854 215.425,79.8541667 L215.808333,80.0458333 C217.469453,80.7486146 218.938882,81.7388825 220.216667,83.0166667 L223.283333,86.0833333 C224.561117,87.3611175 225.551385,88.8305472 226.254167,90.4916667 L226.35,90.6833333 C227.11667,92.2805635 227.5,94.0055463 227.5,95.8583333 L227.5,96.2416667 C227.5,98.0944537 227.11667,99.8194365 226.35,101.416667 L226.254167,101.608333 C225.551385,103.269453 224.561117,104.738883 223.283333,106.016667 L222.516667,106.783333 C221.238882,108.061117 219.769453,109.051385 218.108333,109.754167 L217.725,109.945833 C216.063881,110.648615 214.338898,111 212.55,111 L205.65,111 C203.861102,111 202.136119,110.648615 200.475,109.945833 L200.091667,109.754167 C198.430547,109.051385 196.961118,108.061117 195.683333,106.783333 Z M244.75,106.783333 L243.983333,106.016667 C242.705549,104.738883 241.715281,103.269453 241.0125,101.608333 L240.820833,101.225 C240.118052,99.5638806 239.766667,97.8388978 239.766667,96.05 L239.766667,68.0666667 L236.891667,64.2333333 C235.741661,62.6999923 235.166667,61.4222273 235.166667,60.4 C235.166667,59.3138835 235.549996,58.2916715 236.316667,57.3333333 L237.466667,55.8 L239.766667,52.35 L241.108333,49.0916667 C241.683336,47.4944365 242.64166,46.0250067 243.983333,44.6833333 L244.175,44.4916667 C245.580563,43.0861041 246.666663,42.3833333 247.433333,42.3833333 C248.455561,42.3833333 248.966667,43.7569307 248.966667,46.5041667 L248.966667,52.5416667 L251.841667,55.8 L254.525,55.8 C256.505565,55.8 258.006939,56.311106 259.029167,57.3333333 C259.987505,58.2916715 260.466667,59.3138835 260.466667,60.4 C260.466667,61.4861165 259.987505,62.5083285 259.029167,63.4666667 C258.006939,64.488894 256.569454,65 254.716667,65 L251.841667,65 L248.966667,67.9708333 L248.966667,94.2291667 L251.266667,99.5 L254.525,100.841667 C256.186119,101.480559 257.591661,102.311106 258.741667,103.333333 C259.891672,104.291671 260.466667,105.313883 260.466667,106.4 C260.466667,107.486117 259.987505,108.508329 259.029167,109.466667 C258.006939,110.488894 256.569454,111 254.716667,111 L254.525,111 C252.672213,111 250.94723,110.61667 249.35,109.85 L249.158333,109.754167 C247.497214,109.051385 246.027784,108.061117 244.75,106.783333 Z M323.716667,46.6 L322.183333,46.6 L319.116667,49.6666667 L319.116667,98.7333333 L322.183333,101.8 C324.227788,101.8 325.761106,102.311106 326.783333,103.333333 C327.805561,104.355561 328.316667,105.377773 328.316667,106.4 C328.316667,107.422227 327.805561,108.444439 326.783333,109.466667 C325.761106,110.488894 324.227788,111 322.183333,111 L306.85,111 C304.805545,111 303.272227,110.488894 302.25,109.466667 C301.227773,108.444439 300.716667,107.422227 300.716667,106.4 C300.716667,105.377773 301.227773,104.355561 302.25,103.333333 C303.272227,102.311106 304.294439,101.8 305.316667,101.8 L306.85,101.8 L309.916667,98.7333333 L309.916667,49.6666667 L306.85,46.6 C304.805545,46.6 303.272227,46.088894 302.25,45.0666667 C301.227773,44.0444393 300.716667,43.0222273 300.716667,42 C300.716667,40.9777727 301.227773,39.9555607 302.25,38.9333333 C303.272227,37.911106 304.805545,37.4 306.85,37.4 L322.183333,37.4 C324.227788,37.4 325.761106,37.911106 326.783333,38.9333333 C327.805561,39.9555607 328.316667,40.9777727 328.316667,42 C328.316667,43.0222273 327.805561,44.0444393 326.783333,45.0666667 C325.761106,46.088894 324.738894,46.6 323.716667,46.6 Z M339.05,104.866667 L339.05,61.9333333 C339.05,59.8888787 339.561106,58.3555607 340.583333,57.3333333 C341.605561,56.311106 342.627773,55.8 343.65,55.8 C344.736117,55.8 345.758329,56.1833295 346.716667,56.95 L348.25,58.1 L350.55,58.1 L353.233333,56.95 C354.830564,56.1833295 356.555546,55.8 358.408333,55.8 L358.791667,55.8 C360.644454,55.8 362.369436,56.1833295 363.966667,56.95 L364.158333,57.0458333 C365.819453,57.7486146 367.03333,58.4833295 367.8,59.25 L368.95,60.4 L373.55,60.4 L373.933333,60.0166667 C375.211118,58.7388825 376.680547,57.7486146 378.341667,57.0458333 L378.533333,56.95 C380.130564,56.1833295 381.855546,55.8 383.708333,55.8 L384.091667,55.8 C385.944454,55.8 387.669436,56.1833295 389.266667,56.95 L389.458333,57.0458333 C391.119453,57.7486146 392.588883,58.7388825 393.866667,60.0166667 L394.633333,60.7833333 C395.911118,62.0611175 396.901385,63.5305472 397.604167,65.1916667 L397.795833,65.575 C398.498615,67.2361194 398.85,68.9611022 398.85,70.75 L398.85,104.866667 C398.85,106.911121 398.338894,108.444439 397.316667,109.466667 C396.294439,110.488894 395.272227,111 394.25,111 C393.163883,111 392.141671,110.520838 391.183333,109.5625 C390.161106,108.540273 389.65,107.006955 389.65,104.9625 L389.65,72.5708333 L387.35,67.3 L381.6,65 L375.85,67.3 L373.55,72.5708333 L373.55,104.9625 C373.55,107.006955 373.038894,108.540273 372.016667,109.5625 C371.058329,110.520838 370.036117,111 368.95,111 C367.863883,111 366.841671,110.520838 365.883333,109.5625 C364.861106,108.540273 364.35,107.006955 364.35,104.9625 L364.35,72.5708333 L362.05,67.3 L356.3,65 L350.55,67.3 L348.25,72.5708333 L348.25,104.9625 C348.25,107.006955 347.738894,108.540273 346.716667,109.5625 C345.758329,110.520838 344.736117,111 343.65,111 C342.627773,111 341.605561,110.488894 340.583333,109.466667 C339.561106,108.444439 339.05,106.911121 339.05,104.866667 Z M410.35,123.266667 L410.35,61.9333333 C410.35,59.8888787 410.861106,58.3555607 411.883333,57.3333333 C412.905561,56.311106 413.927773,55.8 414.95,55.8 C416.036117,55.8 417.058329,56.1833295 418.016667,56.95 L419.55,58.1 L421.85,58.1 L424.4375,56.95 C426.03473,56.1833295 427.759713,55.8 429.6125,55.8 L432.4875,55.8 C434.340287,55.8 436.06527,56.1833295 437.6625,56.95 L437.854167,56.95 C439.515286,57.7805597 440.952772,58.8027717 442.166667,60.0166667 L442.933333,60.7833333 C444.211118,62.0611175 445.201385,63.5305472 445.904167,65.1916667 L446.095833,65.575 C446.798615,67.2361194 447.15,68.9611022 447.15,70.75 L447.15,96.05 C447.15,97.8388978 446.798615,99.5638806 446.095833,101.225 L445.904167,101.608333 C445.201385,103.269453 444.211118,104.738883 442.933333,106.016667 L442.166667,106.783333 C440.952772,107.997228 439.515286,109.01944 437.854167,109.85 L437.6625,109.85 C436.06527,110.61667 434.340287,111 432.4875,111 L429.6125,111 C427.759713,111 426.03473,110.61667 424.4375,109.85 L421.85,108.7 L419.55,109.275 L419.55,123.458333 C419.55,125.438899 419.038894,126.940273 418.016667,127.9625 C417.058329,128.920838 416.036117,129.4 414.95,129.4 C413.927773,129.4 412.905561,128.888894 411.883333,127.866667 C410.861106,126.844439 410.35,125.311121 410.35,123.266667 Z M427.216667,101.8 L430.283333,101.8 L435.65,99.5 L437.95,94.1333333 L437.95,72.6666667 L435.65,67.3 L430.283333,65 L427.216667,65 L421.85,67.3 L419.55,72.6666667 L419.55,94.1333333 L421.85,99.5 L427.216667,101.8 Z M457.883333,104.866667 L457.883333,61.9333333 C457.883333,59.8888787 458.394439,58.3555607 459.416667,57.3333333 C460.438894,56.311106 461.461106,55.8 462.483333,55.8 C463.56945,55.8 464.591662,56.1833295 465.55,56.95 L467.083333,58.1 L469.383333,58.1 L471.970833,56.95 C473.568064,56.1833295 475.293046,55.8 477.145833,55.8 L479.6375,55.8 C481.618065,55.8 483.119439,56.311106 484.141667,57.3333333 C485.036116,58.2916715 485.483333,59.3138835 485.483333,60.4 C485.483333,61.4861165 485.036116,62.5083285 484.141667,63.4666667 C483.119439,64.488894 481.618065,65 479.6375,65 L474.4625,65 L469.383333,67.3 L467.083333,72.5708333 L467.083333,104.9625 C467.083333,107.006955 466.572227,108.540273 465.55,109.5625 C464.591662,110.520838 463.56945,111 462.483333,111 C461.461106,111 460.438894,110.488894 459.416667,109.466667 C458.394439,108.444439 457.883333,106.911121 457.883333,104.866667 Z M493.15,104.866667 L493.15,61.9333333 C493.15,59.8888787 493.661106,58.3555607 494.683333,57.3333333 C495.705561,56.311106 496.727773,55.8 497.75,55.8 C498.772227,55.8 499.794439,56.311106 500.816667,57.3333333 C501.838894,58.3555607 502.35,59.8888787 502.35,61.9333333 L502.35,104.866667 C502.35,106.911121 501.838894,108.444439 500.816667,109.466667 C499.794439,110.488894 498.772227,111 497.75,111 C496.727773,111 495.705561,110.488894 494.683333,109.466667 C493.661106,108.444439 493.15,106.911121 493.15,104.866667 Z M493.15,44.3 C493.15,43.2777727 493.661106,42.2555607 494.683333,41.2333333 C495.705561,40.211106 496.727773,39.7 497.75,39.7 C498.772227,39.7 499.794439,40.211106 500.816667,41.2333333 C501.838894,42.2555607 502.35,43.2777727 502.35,44.3 C502.35,45.3222273 501.838894,46.3444393 500.816667,47.3666667 C499.794439,48.388894 498.772227,48.9 497.75,48.9 C496.727773,48.9 495.705561,48.388894 494.683333,47.3666667 C493.661106,46.3444393 493.15,45.3222273 493.15,44.3 Z M514.616667,104.866667 L514.616667,61.9333333 C514.616667,59.8888787 515.127773,58.3555607 516.15,57.3333333 C517.172227,56.311106 518.194439,55.8 519.216667,55.8 C520.302783,55.8 521.324995,56.1833295 522.283333,56.95 L523.816667,58.1 L526.116667,58.1 L528.704167,56.95 C530.301397,56.1833295 532.02638,55.8 533.879167,55.8 L536.754167,55.8 C538.606954,55.8 540.331936,56.1833295 541.929167,56.95 L542.120833,56.95 C543.781953,57.7805597 545.219438,58.8027717 546.433333,60.0166667 L547.2,60.7833333 C548.477784,62.0611175 549.468052,63.5305472 550.170833,65.1916667 L550.3625,65.575 C551.065281,67.2361194 551.416667,68.9611022 551.416667,70.75 L551.416667,104.866667 C551.416667,106.911121 550.905561,108.444439 549.883333,109.466667 C548.861106,110.488894 547.838894,111 546.816667,111 C545.73055,111 544.708338,110.520838 543.75,109.5625 C542.727773,108.540273 542.216667,107.006955 542.216667,104.9625 L542.216667,72.5708333 L539.916667,67.3 L534.55,65 L531.483333,65 L526.116667,67.3 L523.816667,72.5708333 L523.816667,104.9625 C523.816667,107.006955 523.305561,108.540273 522.283333,109.5625 C521.324995,110.520838 520.302783,111 519.216667,111 C518.194439,111 517.172227,110.488894 516.15,109.466667 C515.127773,108.444439 514.616667,106.911121 514.616667,104.866667 Z M570.2,106.783333 L569.433333,106.016667 C568.155549,104.738883 567.165281,103.269453 566.4625,101.608333 L566.270833,101.225 C565.568052,99.5638806 565.216667,97.8388978 565.216667,96.05 L565.216667,68.0666667 L562.341667,64.2333333 C561.191661,62.6999923 560.616667,61.4222273 560.616667,60.4 C560.616667,59.3138835 560.999996,58.2916715 561.766667,57.3333333 L562.916667,55.8 L565.216667,52.35 L566.558333,49.0916667 C567.133336,47.4944365 568.09166,46.0250067 569.433333,44.6833333 L569.625,44.4916667 C571.030563,43.0861041 572.116663,42.3833333 572.883333,42.3833333 C573.905561,42.3833333 574.416667,43.7569307 574.416667,46.5041667 L574.416667,52.5416667 L577.291667,55.8 L579.975,55.8 C581.955565,55.8 583.456939,56.311106 584.479167,57.3333333 C585.437505,58.2916715 585.916667,59.3138835 585.916667,60.4 C585.916667,61.4861165 585.437505,62.5083285 584.479167,63.4666667 C583.456939,64.488894 582.019454,65 580.166667,65 L577.291667,65 L574.416667,67.9708333 L574.416667,94.2291667 L576.716667,99.5 L579.975,100.841667 C581.636119,101.480559 583.041661,102.311106 584.191667,103.333333 C585.341672,104.291671 585.916667,105.313883 585.916667,106.4 C585.916667,107.486117 585.437505,108.508329 584.479167,109.466667 C583.456939,110.488894 582.019454,111 580.166667,111 L579.975,111 C578.122213,111 576.39723,110.61667 574.8,109.85 L574.608333,109.754167 C572.947214,109.051385 571.477784,108.061117 570.2,106.783333 Z" id="Kunst-Imprint"></path>
        </g>
    </g>
</svg>
