<?xml version="1.0" encoding="UTF-8"?>
<svg width="834px" height="164px" viewBox="0 0 834 164" version="1.1" xmlns="http://www.w3.org/2000/svg" xmlns:xlink="http://www.w3.org/1999/xlink">
    <title>flist-kunst-imprint</title>
    <g id="flist-kunst-imprint" stroke="none" stroke-width="1" fill="none" fill-rule="evenodd">
        <path d="M64.8,115.2 C66.4,115.2 68,114.35 69.6,112.65 C71.2,110.95 72,108.55 72,105.45 L72,105.45 L72,99.3 C72,96.6 71.5,93.9 70.5,91.2 L70.5,91.2 L70.35,90.6 C69.25,88 67.7,85.7 65.7,83.7 L65.7,83.7 L39.3,57.3 L39.3,50.7 L62.25,27.75 C64.15,25.85 65.65,23.6 66.75,21 C67.85,18.5 68.4,15.85 68.4,13.05 L68.4,13.05 L68.4,9.15 C68.4,6.05 67.6,3.7 66,2.1 C64.5,0.7 62.9,0 61.2,0 C59.6,0 58,0.8 56.4,2.4 C54.8,4 54,6.4 54,9.6 L54,9.6 L50.7,17.7 L17.7,50.7 L14.4,49.05 L14.4,9.6 C14.4,6.5 13.6,4.1 12,2.4 C10.4,0.8 8.8,0 7.2,0 C5.6,0 4,0.8 2.4,2.4 C0.8,4 0,6.4 0,9.6 L0,9.6 L0,105.6 C0,108.8 0.8,111.2 2.4,112.8 C4,114.4 5.6,115.2 7.2,115.2 C8.8,115.2 10.4,114.35 12,112.65 C13.6,111.05 14.4,108.65 14.4,105.45 L14.4,105.45 L14.4,80.55 L18,72 L21.6,68.4 L28.5,68.1 L54.3,93.9 L57.6,101.7 L57.6,106.2 C57.6,109.1 58.4,111.35 60,112.95 C61.5,114.45 63.1,115.2 64.8,115.2 Z M115.05,115.2 C117.95,115.2 120.65,114.6 123.15,113.4 L123.15,113.4 L127.2,111.6 L130.8,111.6 L133.2,113.4 C134.7,114.6 136.3,115.2 138,115.2 C139.6,115.2 141.2,114.4 142.8,112.8 C144.4,111.2 145.2,108.8 145.2,105.6 L145.2,105.6 L145.2,38.4 C145.2,35.2 144.4,32.8 142.8,31.2 C141.2,29.6 139.6,28.8 138,28.8 C136.3,28.8 134.7,29.55 133.2,31.05 C131.6,32.65 130.8,35.05 130.8,38.25 L130.8,38.25 L130.8,88.95 L127.2,97.2 L118.8,100.8 L114,100.8 L105.6,97.2 L102,88.95 L102,38.25 C102,35.05 101.2,32.65 99.6,31.05 C98.1,29.55 96.5,28.8 94.8,28.8 C93.2,28.8 91.6,29.6 90,31.2 C88.4,32.8 87.6,35.2 87.6,38.4 L87.6,38.4 L87.6,91.8 C87.6,94.6 88.15,97.3 89.25,99.9 L89.25,99.9 L89.55,100.5 C90.65,103.1 92.2,105.4 94.2,107.4 L94.2,107.4 L95.4,108.6 C97.3,110.5 99.55,112.1 102.15,113.4 L102.15,113.4 L102.45,113.4 C104.95,114.6 107.65,115.2 110.55,115.2 L110.55,115.2 L115.05,115.2 Z M214.8,115.2 C216.4,115.2 218,114.4 219.6,112.8 C221.2,111.2 222,108.8 222,105.6 L222,105.6 L222,52.2 C222,49.4 221.45,46.7 220.35,44.1 L220.35,44.1 L220.05,43.5 C218.95,40.9 217.4,38.6 215.4,36.6 L215.4,36.6 L214.2,35.4 C212.3,33.5 210.05,31.9 207.45,30.6 L207.45,30.6 L207.15,30.6 C204.65,29.4 201.95,28.8 199.05,28.8 L199.05,28.8 L194.55,28.8 C191.65,28.8 188.95,29.4 186.45,30.6 L186.45,30.6 L182.4,32.4 L178.8,32.4 L176.4,30.6 C174.9,29.4 173.3,28.8 171.6,28.8 C170,28.8 168.4,29.6 166.8,31.2 C165.2,32.8 164.4,35.2 164.4,38.4 L164.4,38.4 L164.4,105.6 C164.4,108.8 165.2,111.2 166.8,112.8 C168.4,114.4 170,115.2 171.6,115.2 C173.3,115.2 174.9,114.45 176.4,112.95 C178,111.35 178.8,108.95 178.8,105.75 L178.8,105.75 L178.8,55.05 L182.4,46.8 L190.8,43.2 L195.6,43.2 L204,46.8 L207.6,55.05 L207.6,105.75 C207.6,108.95 208.4,111.35 210,112.95 C211.5,114.45 213.1,115.2 214.8,115.2 Z M273,115.2 C275.8,115.2 278.5,114.65 281.1,113.55 L281.1,113.55 L281.7,113.25 C284.3,112.15 286.6,110.6 288.6,108.6 L288.6,108.6 L289.8,107.4 C291.8,105.4 293.35,103.1 294.45,100.5 L294.45,100.5 L294.6,100.2 C295.8,97.7 296.4,95 296.4,92.1 L296.4,92.1 L296.4,91.5 C296.4,88.6 295.8,85.9 294.6,83.4 L294.6,83.4 L294.45,83.1 C293.35,80.5 291.8,78.2 289.8,76.2 L289.8,76.2 L285,71.4 C283,69.4 280.7,67.85 278.1,66.75 L278.1,66.75 L277.5,66.45 C274.9,65.35 272.2,64.8 269.4,64.8 L269.4,64.8 L268.8,64.8 L260.4,61.2 L256.8,57.6 L253.2,52.2 L256.8,46.8 L265.2,43.2 L270,43.2 L278.4,46.8 L280.2,50.4 C281.5,52.9 282.9,54.7 284.4,55.8 C285.9,57 287.5,57.6 289.2,57.6 C290.8,57.6 292.4,56.8 294,55.2 C295.6,53.6 296.4,52 296.4,50.4 C296.4,48.8 295.85,46.7 294.75,44.1 L294.75,44.1 L294.45,43.5 C293.35,40.9 291.8,38.6 289.8,36.6 L289.8,36.6 L288.6,35.4 C286.6,33.4 284.3,31.85 281.7,30.75 L281.7,30.75 L281.1,30.45 C278.5,29.35 275.8,28.8 273,28.8 L273,28.8 L262.2,28.8 C259.4,28.8 256.7,29.35 254.1,30.45 L254.1,30.45 L253.5,30.75 C250.9,31.85 248.6,33.4 246.6,35.4 L246.6,35.4 L245.4,36.6 C243.4,38.6 241.85,40.9 240.75,43.5 L240.75,43.5 L240.6,43.8 C239.4,46.3 238.8,49 238.8,51.9 L238.8,51.9 L238.8,52.5 C238.8,55.4 239.4,58.1 240.6,60.6 L240.6,60.6 L240.75,60.9 C241.85,63.5 243.4,65.8 245.4,67.8 L245.4,67.8 L250.2,72.6 C252.2,74.6 254.5,76.15 257.1,77.25 L257.1,77.25 L257.7,77.55 C260.3,78.65 263,79.2 265.8,79.2 L265.8,79.2 L266.4,79.2 L274.8,82.8 L278.4,86.4 L282,91.8 L278.4,97.2 L270,100.8 L265.2,100.8 L256.8,97.2 L255,93.6 C253.7,91.1 252.3,89.3 250.8,88.2 C249.3,87 247.7,86.4 246,86.4 C244.4,86.4 242.8,87.2 241.2,88.8 C239.6,90.4 238.8,92 238.8,93.6 C238.8,95.2 239.35,97.3 240.45,99.9 L240.45,99.9 L240.75,100.5 C241.85,103.1 243.4,105.4 245.4,107.4 L245.4,107.4 L246.6,108.6 C248.6,110.6 250.9,112.15 253.5,113.25 L253.5,113.25 L254.1,113.55 C256.7,114.65 259.4,115.2 262.2,115.2 L262.2,115.2 L273,115.2 Z M339,115.2 C341.9,115.2 344.15,114.4 345.75,112.8 C347.25,111.3 348,109.7 348,108 C348,106.3 347.1,104.7 345.3,103.2 C343.5,101.6 341.3,100.3 338.7,99.3 L338.7,99.3 L333.6,97.2 L330,88.95 L330,47.85 L334.5,43.2 L339,43.2 C341.9,43.2 344.15,42.4 345.75,40.8 C347.25,39.3 348,37.7 348,36 C348,34.3 347.25,32.7 345.75,31.2 C344.15,29.6 341.8,28.8 338.7,28.8 L338.7,28.8 L334.5,28.8 L330,23.7 L330,14.25 C330,9.95 329.2,7.8 327.6,7.8 C326.4,7.8 324.7,8.9 322.5,11.1 L322.5,11.1 L322.2,11.4 C320.1,13.5 318.6,15.8 317.7,18.3 L317.7,18.3 L315.6,23.4 L312,28.8 L310.2,31.2 C309,32.7 308.4,34.3 308.4,36 C308.4,37.6 309.3,39.6 311.1,42 L311.1,42 L315.6,48 L315.6,91.8 C315.6,94.6 316.15,97.3 317.25,99.9 L317.25,99.9 L317.55,100.5 C318.65,103.1 320.2,105.4 322.2,107.4 L322.2,107.4 L323.4,108.6 C325.4,110.6 327.7,112.15 330.3,113.25 L330.3,113.25 L330.6,113.4 C333.1,114.6 335.8,115.2 338.7,115.2 L338.7,115.2 L339,115.2 Z M420.6,18 C422.2,18 423.8,17.2 425.4,15.6 C427,14 427.8,12.4 427.8,10.8 C427.8,9.2 427,7.6 425.4,6 C423.8,4.4 422.2,3.6 420.6,3.6 C419,3.6 417.4,4.4 415.8,6 C414.2,7.6 413.4,9.2 413.4,10.8 C413.4,12.4 414.2,14 415.8,15.6 C417.4,17.2 419,18 420.6,18 Z M420.6,115.2 C422.2,115.2 423.8,114.4 425.4,112.8 C427,111.2 427.8,108.8 427.8,105.6 L427.8,105.6 L427.8,38.4 C427.8,35.2 427,32.8 425.4,31.2 C423.8,29.6 422.2,28.8 420.6,28.8 C419,28.8 417.4,29.6 415.8,31.2 C414.2,32.8 413.4,35.2 413.4,38.4 L413.4,38.4 L413.4,105.6 C413.4,108.8 414.2,111.2 415.8,112.8 C417.4,114.4 419,115.2 420.6,115.2 Z M533.4,115.2 C535,115.2 536.6,114.4 538.2,112.8 C539.8,111.2 540.6,108.8 540.6,105.6 L540.6,105.6 L540.6,52.2 C540.6,49.4 540.05,46.7 538.95,44.1 L538.95,44.1 L538.65,43.5 C537.55,40.9 536,38.6 534,36.6 L534,36.6 L532.8,35.4 C530.8,33.4 528.5,31.85 525.9,30.75 L525.9,30.75 L525.6,30.6 C523.1,29.4 520.4,28.8 517.5,28.8 L517.5,28.8 L516.9,28.8 C514,28.8 511.3,29.4 508.8,30.6 L508.8,30.6 L508.5,30.75 C505.9,31.85 503.6,33.4 501.6,35.4 L501.6,35.4 L501,36 L493.8,36 L492,34.2 C490.8,33 488.9,31.85 486.3,30.75 L486.3,30.75 L486,30.6 C483.5,29.4 480.8,28.8 477.9,28.8 L477.9,28.8 L477.3,28.8 C474.4,28.8 471.7,29.4 469.2,30.6 L469.2,30.6 L465,32.4 L461.4,32.4 L459,30.6 C457.5,29.4 455.9,28.8 454.2,28.8 C452.6,28.8 451,29.6 449.4,31.2 C447.8,32.8 447,35.2 447,38.4 L447,38.4 L447,105.6 C447,108.8 447.8,111.2 449.4,112.8 C451,114.4 452.6,115.2 454.2,115.2 C455.9,115.2 457.5,114.45 459,112.95 C460.6,111.35 461.4,108.95 461.4,105.75 L461.4,105.75 L461.4,55.05 L465,46.8 L474,43.2 L483,46.8 L486.6,55.05 L486.6,105.75 C486.6,108.95 487.4,111.35 489,112.95 C490.5,114.45 492.1,115.2 493.8,115.2 C495.5,115.2 497.1,114.45 498.6,112.95 C500.2,111.35 501,108.95 501,105.75 L501,105.75 L501,55.05 L504.6,46.8 L513.6,43.2 L522.6,46.8 L526.2,55.05 L526.2,105.75 C526.2,108.95 527,111.35 528.6,112.95 C530.1,114.45 531.7,115.2 533.4,115.2 Z M565.8,144 C567.5,144 569.1,143.25 570.6,141.75 C572.2,140.15 573,137.8 573,134.7 L573,134.7 L573,112.5 L576.6,111.6 L580.65,113.4 C583.15,114.6 585.85,115.2 588.75,115.2 L588.75,115.2 L593.25,115.2 C596.15,115.2 598.85,114.6 601.35,113.4 L601.35,113.4 L601.65,113.4 C604.25,112.1 606.5,110.5 608.4,108.6 L608.4,108.6 L609.6,107.4 C611.6,105.4 613.15,103.1 614.25,100.5 L614.25,100.5 L614.55,99.9 C615.65,97.3 616.2,94.6 616.2,91.8 L616.2,91.8 L616.2,52.2 C616.2,49.4 615.65,46.7 614.55,44.1 L614.55,44.1 L614.25,43.5 C613.15,40.9 611.6,38.6 609.6,36.6 L609.6,36.6 L608.4,35.4 C606.5,33.5 604.25,31.9 601.65,30.6 L601.65,30.6 L601.35,30.6 C598.85,29.4 596.15,28.8 593.25,28.8 L593.25,28.8 L588.75,28.8 C585.85,28.8 583.15,29.4 580.65,30.6 L580.65,30.6 L576.6,32.4 L573,32.4 L570.6,30.6 C569.1,29.4 567.5,28.8 565.8,28.8 C564.2,28.8 562.6,29.6 561,31.2 C559.4,32.8 558.6,35.2 558.6,38.4 L558.6,38.4 L558.6,134.4 C558.6,137.6 559.4,140 561,141.6 C562.6,143.2 564.2,144 565.8,144 Z M589.8,100.8 L585,100.8 L576.6,97.2 L573,88.8 L573,55.2 L576.6,46.8 L585,43.2 L589.8,43.2 L598.2,46.8 L601.8,55.2 L601.8,88.8 L598.2,97.2 L589.8,100.8 Z M640.2,115.2 C641.9,115.2 643.5,114.45 645,112.95 C646.6,111.35 647.4,108.95 647.4,105.75 L647.4,105.75 L647.4,55.05 L651,46.8 L658.95,43.2 L667.05,43.2 C670.15,43.2 672.5,42.4 674.1,40.8 C675.5,39.3 676.2,37.7 676.2,36 C676.2,34.3 675.5,32.7 674.1,31.2 C672.5,29.6 670.15,28.8 667.05,28.8 L667.05,28.8 L663.15,28.8 C660.25,28.8 657.55,29.4 655.05,30.6 L655.05,30.6 L651,32.4 L647.4,32.4 L645,30.6 C643.5,29.4 641.9,28.8 640.2,28.8 C638.6,28.8 637,29.6 635.4,31.2 C633.8,32.8 633,35.2 633,38.4 L633,38.4 L633,105.6 C633,108.8 633.8,111.2 635.4,112.8 C637,114.4 638.6,115.2 640.2,115.2 Z M695.4,18 C697,18 698.6,17.2 700.2,15.6 C701.8,14 702.6,12.4 702.6,10.8 C702.6,9.2 701.8,7.6 700.2,6 C698.6,4.4 697,3.6 695.4,3.6 C693.8,3.6 692.2,4.4 690.6,6 C689,7.6 688.2,9.2 688.2,10.8 C688.2,12.4 689,14 690.6,15.6 C692.2,17.2 693.8,18 695.4,18 Z M695.4,115.2 C697,115.2 698.6,114.4 700.2,112.8 C701.8,111.2 702.6,108.8 702.6,105.6 L702.6,105.6 L702.6,38.4 C702.6,35.2 701.8,32.8 700.2,31.2 C698.6,29.6 697,28.8 695.4,28.8 C693.8,28.8 692.2,29.6 690.6,31.2 C689,32.8 688.2,35.2 688.2,38.4 L688.2,38.4 L688.2,105.6 C688.2,108.8 689,111.2 690.6,112.8 C692.2,114.4 693.8,115.2 695.4,115.2 Z M772.2,115.2 C773.8,115.2 775.4,114.4 777,112.8 C778.6,111.2 779.4,108.8 779.4,105.6 L779.4,105.6 L779.4,52.2 C779.4,49.4 778.85,46.7 777.75,44.1 L777.75,44.1 L777.45,43.5 C776.35,40.9 774.8,38.6 772.8,36.6 L772.8,36.6 L771.6,35.4 C769.7,33.5 767.45,31.9 764.85,30.6 L764.85,30.6 L764.55,30.6 C762.05,29.4 759.35,28.8 756.45,28.8 L756.45,28.8 L751.95,28.8 C749.05,28.8 746.35,29.4 743.85,30.6 L743.85,30.6 L739.8,32.4 L736.2,32.4 L733.8,30.6 C732.3,29.4 730.7,28.8 729,28.8 C727.4,28.8 725.8,29.6 724.2,31.2 C722.6,32.8 721.8,35.2 721.8,38.4 L721.8,38.4 L721.8,105.6 C721.8,108.8 722.6,111.2 724.2,112.8 C725.8,114.4 727.4,115.2 729,115.2 C730.7,115.2 732.3,114.45 733.8,112.95 C735.4,111.35 736.2,108.95 736.2,105.75 L736.2,105.75 L736.2,55.05 L739.8,46.8 L748.2,43.2 L753,43.2 L761.4,46.8 L765,55.05 L765,105.75 C765,108.95 765.8,111.35 767.4,112.95 C768.9,114.45 770.5,115.2 772.2,115.2 Z M824.4,115.2 C827.3,115.2 829.55,114.4 831.15,112.8 C832.65,111.3 833.4,109.7 833.4,108 C833.4,106.3 832.5,104.7 830.7,103.2 C828.9,101.6 826.7,100.3 824.1,99.3 L824.1,99.3 L819,97.2 L815.4,88.95 L815.4,47.85 L819.9,43.2 L824.4,43.2 C827.3,43.2 829.55,42.4 831.15,40.8 C832.65,39.3 833.4,37.7 833.4,36 C833.4,34.3 832.65,32.7 831.15,31.2 C829.55,29.6 827.2,28.8 824.1,28.8 L824.1,28.8 L819.9,28.8 L815.4,23.7 L815.4,14.25 C815.4,9.95 814.6,7.8 813,7.8 C811.8,7.8 810.1,8.9 807.9,11.1 L807.9,11.1 L807.6,11.4 C805.5,13.5 804,15.8 803.1,18.3 L803.1,18.3 L801,23.4 L797.4,28.8 L795.6,31.2 C794.4,32.7 793.8,34.3 793.8,36 C793.8,37.6 794.7,39.6 796.5,42 L796.5,42 L801,48 L801,91.8 C801,94.6 801.55,97.3 802.65,99.9 L802.65,99.9 L802.95,100.5 C804.05,103.1 805.6,105.4 807.6,107.4 L807.6,107.4 L808.8,108.6 C810.8,110.6 813.1,112.15 815.7,113.25 L815.7,113.25 L816,113.4 C818.5,114.6 821.2,115.2 824.1,115.2 L824.1,115.2 L824.4,115.2 Z" fill="#FFFFFF" fill-rule="nonzero"></path>
    </g>
</svg>