<svg height="145" viewBox="0 0 834 145" width="834" xmlns="http://www.w3.org/2000/svg"><path d="m248.4 1036c1.6 0 3.2-.85 4.8-2.55s2.4-4.1 2.4-7.2v-6.15c0-2.7-.5-5.4-1.5-8.1l-.15-.6c-1.1-2.6-2.65-4.9-4.65-6.9l-26.4-26.4v-6.6l22.95-22.95c1.9-1.9 3.4-4.15 4.5-6.75 1.1-2.5 1.65-5.15 1.65-7.95v-3.9c0-3.1-.8-5.45-2.4-7.05-1.5-1.4-3.1-2.1-4.8-2.1-1.6 0-3.2.8-4.8 2.4s-2.4 4-2.4 7.2l-3.3 8.1-33 33-3.3-1.65v-39.45c0-3.1-.8-5.5-2.4-7.2-1.6-1.6-3.2-2.4-4.8-2.4s-3.2.8-4.8 2.4-2.4 4-2.4 7.2v96c0 3.2.8 5.6 2.4 7.2s3.2 2.4 4.8 2.4 3.2-.85 4.8-2.55c1.6-1.6 2.4-4 2.4-7.2v-24.9l3.6-8.55 3.6-3.6 6.9-.3 25.8 25.8 3.3 7.8v4.5c0 2.9.8 5.15 2.4 6.75 1.5 1.5 3.1 2.25 4.8 2.25zm50.25 0c2.9 0 5.6-.6 8.1-1.8l4.05-1.8h3.6l2.4 1.8c1.5 1.2 3.1 1.8 4.8 1.8 1.6 0 3.2-.8 4.8-2.4s2.4-4 2.4-7.2v-67.2c0-3.2-.8-5.6-2.4-7.2s-3.2-2.4-4.8-2.4c-1.7 0-3.3.75-4.8 2.25-1.6 1.6-2.4 4-2.4 7.2v50.7l-3.6 8.25-8.4 3.6h-4.8l-8.4-3.6-3.6-8.25v-50.7c0-3.2-.8-5.6-2.4-7.2-1.5-1.5-3.1-2.25-4.8-2.25-1.6 0-3.2.8-4.8 2.4s-2.4 4-2.4 7.2v53.4c0 2.8.55 5.5 1.65 8.1l.3.6c1.1 2.6 2.65 4.9 4.65 6.9l1.2 1.2c1.9 1.9 4.15 3.5 6.75 4.8h.3c2.5 1.2 5.2 1.8 8.1 1.8zm99.75 0c1.6 0 3.2-.8 4.8-2.4s2.4-4 2.4-7.2v-53.4c0-2.8-.55-5.5-1.65-8.1l-.3-.6c-1.1-2.6-2.65-4.9-4.65-6.9l-1.2-1.2c-1.9-1.9-4.15-3.5-6.75-4.8h-.3c-2.5-1.2-5.2-1.8-8.1-1.8h-4.5c-2.9 0-5.6.6-8.1 1.8l-4.05 1.8h-3.6l-2.4-1.8c-1.5-1.2-3.1-1.8-4.8-1.8-1.6 0-3.2.8-4.8 2.4s-2.4 4-2.4 7.2v67.2c0 3.2.8 5.6 2.4 7.2s3.2 2.4 4.8 2.4c1.7 0 3.3-.75 4.8-2.25 1.6-1.6 2.4-4 2.4-7.2v-50.7l3.6-8.25 8.4-3.6h4.8l8.4 3.6 3.6 8.25v50.7c0 3.2.8 5.6 2.4 7.2 1.5 1.5 3.1 2.25 4.8 2.25zm58.2 0c2.8 0 5.5-.55 8.1-1.65l.6-.3c2.6-1.1 4.9-2.65 6.9-4.65l1.2-1.2c2-2 3.55-4.3 4.65-6.9l.15-.3c1.2-2.5 1.8-5.2 1.8-8.1v-.6c0-2.9-.6-5.6-1.8-8.1l-.15-.3c-1.1-2.6-2.65-4.9-4.65-6.9l-4.8-4.8c-2-2-4.3-3.55-6.9-4.65l-.6-.3c-2.6-1.1-5.3-1.65-8.1-1.65h-.6l-8.4-3.6-3.6-3.6-3.6-5.4 3.6-5.4 8.4-3.6h4.8l8.4 3.6 1.8 3.6c1.3 2.5 2.7 4.3 4.2 5.4 1.5 1.2 3.1 1.8 4.8 1.8 1.6 0 3.2-.8 4.8-2.4s2.4-3.2 2.4-4.8-.55-3.7-1.65-6.3l-.3-.6c-1.1-2.6-2.65-4.9-4.65-6.9l-1.2-1.2c-2-2-4.3-3.55-6.9-4.65l-.6-.3c-2.6-1.1-5.3-1.65-8.1-1.65h-10.8c-2.8 0-5.5.55-8.1 1.65l-.6.3c-2.6 1.1-4.9 2.65-6.9 4.65l-1.2 1.2c-2 2-3.55 4.3-4.65 6.9l-.15.3c-1.2 2.5-1.8 5.2-1.8 8.1v.6c0 2.9.6 5.6 1.8 8.1l.15.3c1.1 2.6 2.65 4.9 4.65 6.9l4.8 4.8c2 2 4.3 3.55 6.9 4.65l.6.3c2.6 1.1 5.3 1.65 8.1 1.65h.6l8.4 3.6 3.6 3.6 3.6 5.4-3.6 5.4-8.4 3.6h-4.8l-8.4-3.6-1.8-3.6c-1.3-2.5-2.7-4.3-4.2-5.4-1.5-1.2-3.1-1.8-4.8-1.8-1.6 0-3.2.8-4.8 2.4s-2.4 3.2-2.4 4.8.55 3.7 1.65 6.3l.3.6c1.1 2.6 2.65 4.9 4.65 6.9l1.2 1.2c2 2 4.3 3.55 6.9 4.65l.6.3c2.6 1.1 5.3 1.65 8.1 1.65zm66 0c2.9 0 5.15-.8 6.75-2.4 1.5-1.5 2.25-3.1 2.25-4.8s-.9-3.3-2.7-4.8c-1.8-1.6-4-2.9-6.6-3.9l-5.1-2.1-3.6-8.25v-41.1l4.5-4.65h4.5c2.9 0 5.15-.8 6.75-2.4 1.5-1.5 2.25-3.1 2.25-4.8s-.75-3.3-2.25-4.8c-1.6-1.6-3.95-2.4-7.05-2.4h-4.2l-4.5-5.1v-9.45c0-4.3-.8-6.45-2.4-6.45-1.2 0-2.9 1.1-5.1 3.3l-.3.3c-2.1 2.1-3.6 4.4-4.5 6.9l-2.1 5.1-3.6 5.4-1.8 2.4c-1.2 1.5-1.8 3.1-1.8 4.8 0 1.6.9 3.6 2.7 6l4.5 6v43.8c0 2.8.55 5.5 1.65 8.1l.3.6c1.1 2.6 2.65 4.9 4.65 6.9l1.2 1.2c2 2 4.3 3.55 6.9 4.65l.3.15c2.5 1.2 5.2 1.8 8.1 1.8zm81.6-97.2c1.6 0 3.2-.8 4.8-2.4s2.4-3.2 2.4-4.8-.8-3.2-2.4-4.8-3.2-2.4-4.8-2.4-3.2.8-4.8 2.4-2.4 3.2-2.4 4.8.8 3.2 2.4 4.8 3.2 2.4 4.8 2.4zm0 97.2c1.6 0 3.2-.8 4.8-2.4s2.4-4 2.4-7.2v-67.2c0-3.2-.8-5.6-2.4-7.2s-3.2-2.4-4.8-2.4-3.2.8-4.8 2.4-2.4 4-2.4 7.2v67.2c0 3.2.8 5.6 2.4 7.2s3.2 2.4 4.8 2.4zm112.8 0c1.6 0 3.2-.8 4.8-2.4s2.4-4 2.4-7.2v-53.4c0-2.8-.55-5.5-1.65-8.1l-.3-.6c-1.1-2.6-2.65-4.9-4.65-6.9l-1.2-1.2c-2-2-4.3-3.55-6.9-4.65l-.3-.15c-2.5-1.2-5.2-1.8-8.1-1.8h-.6c-2.9 0-5.6.6-8.1 1.8l-.3.15c-2.6 1.1-4.9 2.65-6.9 4.65l-.6.6h-7.2l-1.8-1.8c-1.2-1.2-3.1-2.35-5.7-3.45l-.3-.15c-2.5-1.2-5.2-1.8-8.1-1.8h-.6c-2.9 0-5.6.6-8.1 1.8l-4.2 1.8h-3.6l-2.4-1.8c-1.5-1.2-3.1-1.8-4.8-1.8-1.6 0-3.2.8-4.8 2.4s-2.4 4-2.4 7.2v67.2c0 3.2.8 5.6 2.4 7.2s3.2 2.4 4.8 2.4c1.7 0 3.3-.75 4.8-2.25 1.6-1.6 2.4-4 2.4-7.2v-50.7l3.6-8.25 9-3.6 9 3.6 3.6 8.25v50.7c0 3.2.8 5.6 2.4 7.2 1.5 1.5 3.1 2.25 4.8 2.25s3.3-.75 4.8-2.25c1.6-1.6 2.4-4 2.4-7.2v-50.7l3.6-8.25 9-3.6 9 3.6 3.6 8.25v50.7c0 3.2.8 5.6 2.4 7.2 1.5 1.5 3.1 2.25 4.8 2.25zm32.4 28.8c1.7 0 3.3-.75 4.8-2.25 1.6-1.6 2.4-3.95 2.4-7.05v-22.2l3.6-.9 4.05 1.8c2.5 1.2 5.2 1.8 8.1 1.8h4.5c2.9 0 5.6-.6 8.1-1.8h.3c2.6-1.3 4.85-2.9 6.75-4.8l1.2-1.2c2-2 3.55-4.3 4.65-6.9l.3-.6c1.1-2.6 1.65-5.3 1.65-8.1v-39.6c0-2.8-.55-5.5-1.65-8.1l-.3-.6c-1.1-2.6-2.65-4.9-4.65-6.9l-1.2-1.2c-1.9-1.9-4.15-3.5-6.75-4.8h-.3c-2.5-1.2-5.2-1.8-8.1-1.8h-4.5c-2.9 0-5.6.6-8.1 1.8l-4.05 1.8h-3.6l-2.4-1.8c-1.5-1.2-3.1-1.8-4.8-1.8-1.6 0-3.2.8-4.8 2.4s-2.4 4-2.4 7.2v96c0 3.2.8 5.6 2.4 7.2s3.2 2.4 4.8 2.4zm24-43.2h-4.8l-8.4-3.6-3.6-8.4v-33.6l3.6-8.4 8.4-3.6h4.8l8.4 3.6 3.6 8.4v33.6l-3.6 8.4zm50.4 14.4c1.7 0 3.3-.75 4.8-2.25 1.6-1.6 2.4-4 2.4-7.2v-50.7l3.6-8.25 7.95-3.6h8.1c3.1 0 5.45-.8 7.05-2.4 1.4-1.5 2.1-3.1 2.1-4.8s-.7-3.3-2.1-4.8c-1.6-1.6-3.95-2.4-7.05-2.4h-3.9c-2.9 0-5.6.6-8.1 1.8l-4.05 1.8h-3.6l-2.4-1.8c-1.5-1.2-3.1-1.8-4.8-1.8-1.6 0-3.2.8-4.8 2.4s-2.4 4-2.4 7.2v67.2c0 3.2.8 5.6 2.4 7.2s3.2 2.4 4.8 2.4zm55.2-97.2c1.6 0 3.2-.8 4.8-2.4s2.4-3.2 2.4-4.8-.8-3.2-2.4-4.8-3.2-2.4-4.8-2.4-3.2.8-4.8 2.4-2.4 3.2-2.4 4.8.8 3.2 2.4 4.8 3.2 2.4 4.8 2.4zm0 97.2c1.6 0 3.2-.8 4.8-2.4s2.4-4 2.4-7.2v-67.2c0-3.2-.8-5.6-2.4-7.2s-3.2-2.4-4.8-2.4-3.2.8-4.8 2.4-2.4 4-2.4 7.2v67.2c0 3.2.8 5.6 2.4 7.2s3.2 2.4 4.8 2.4zm76.8 0c1.6 0 3.2-.8 4.8-2.4s2.4-4 2.4-7.2v-53.4c0-2.8-.55-5.5-1.65-8.1l-.3-.6c-1.1-2.6-2.65-4.9-4.65-6.9l-1.2-1.2c-1.9-1.9-4.15-3.5-6.75-4.8h-.3c-2.5-1.2-5.2-1.8-8.1-1.8h-4.5c-2.9 0-5.6.6-8.1 1.8l-4.05 1.8h-3.6l-2.4-1.8c-1.5-1.2-3.1-1.8-4.8-1.8-1.6 0-3.2.8-4.8 2.4s-2.4 4-2.4 7.2v67.2c0 3.2.8 5.6 2.4 7.2s3.2 2.4 4.8 2.4c1.7 0 3.3-.75 4.8-2.25 1.6-1.6 2.4-4 2.4-7.2v-50.7l3.6-8.25 8.4-3.6h4.8l8.4 3.6 3.6 8.25v50.7c0 3.2.8 5.6 2.4 7.2 1.5 1.5 3.1 2.25 4.8 2.25zm52.2 0c2.9 0 5.15-.8 6.75-2.4 1.5-1.5 2.25-3.1 2.25-4.8s-.9-3.3-2.7-4.8c-1.8-1.6-4-2.9-6.6-3.9l-5.1-2.1-3.6-8.25v-41.1l4.5-4.65h4.5c2.9 0 5.15-.8 6.75-2.4 1.5-1.5 2.25-3.1 2.25-4.8s-.75-3.3-2.25-4.8c-1.6-1.6-3.95-2.4-7.05-2.4h-4.2l-4.5-5.1v-9.45c0-4.3-.8-6.45-2.4-6.45-1.2 0-2.9 1.1-5.1 3.3l-.3.3c-2.1 2.1-3.6 4.4-4.5 6.9l-2.1 5.1-3.6 5.4-1.8 2.4c-1.2 1.5-1.8 3.1-1.8 4.8 0 1.6.9 3.6 2.7 6l4.5 6v43.8c0 2.8.55 5.5 1.65 8.1l.3.6c1.1 2.6 2.65 4.9 4.65 6.9l1.2 1.2c2 2 4.3 3.55 6.9 4.65l.3.15c2.5 1.2 5.2 1.8 8.1 1.8z" fill="#fff" transform="translate(-183 -920)"/></svg>