<svg width="1736" height="164" xmlns="http://www.w3.org/2000/svg"><path d="M14.525 116V76.125L25.42 65.25l32.682 32.625V116h14.525V90.625l-36.313-36.25L68.995 21.75V0H54.47v14.5L14.525 54.375V0H0v116h14.525zm110.15 0l7.262-7.25V116h14.526V29h-14.526v65.25l-7.262 7.25H110.15l-7.263-7.25V29H88.362v72.5l14.525 14.5h21.788zm55.68 0V50.75l7.262-7.25h14.526l7.262 7.25V116h14.525V43.5L209.405 29h-21.788l-7.262 7.25V29H165.83v87h14.525zm104.097 0l14.525-14.5V83.375L280.821 65.25h-14.525l-10.894-10.875V50.75l7.262-7.25h14.526l7.262 7.25V58h14.525V43.5L284.452 29h-29.05l-14.525 14.5v18.125l18.156 18.125h14.525l10.894 10.875v3.625l-7.262 7.25h-14.526l-7.262-7.25V87h-14.525v14.5l14.525 14.5h29.05zm66.574 0v-14.5h-10.894l-7.262-7.25V43.5h18.156V29H332.87V3.625l-14.526 14.5V29h-7.262v14.5h7.262v58L332.87 116h18.156z" fill="#FFF" fill-rule="nonzero"/></svg>
