<svg height="116" viewBox="0 0 349 116" width="349" xmlns="http://www.w3.org/2000/svg"><path d="m198 246v-39.6l10.8-10.8 32.4 32.4v18h14.4v-25.2l-36-36 32.4-32.4v-21.6h-14.4v14.4l-39.6 39.6v-54h-14.4v115.2zm109.2 0 7.2-7.2v7.2h14.4v-86.4h-14.4v64.8l-7.2 7.2h-14.4l-7.2-7.2v-64.8h-14.4v72l14.4 14.4zm55.2 0v-64.8l7.2-7.2h14.4l7.2 7.2v64.8h14.4v-72l-14.4-14.4h-21.6l-7.2 7.2v-7.2h-14.4v86.4zm103.2 0 14.4-14.4v-18l-18-18h-14.4l-10.8-10.8v-3.6l7.2-7.2h14.4l7.2 7.2v7.2h14.4v-14.4l-14.4-14.4h-28.8l-14.4 14.4v18l18 18h14.4l10.8 10.8v3.6l-7.2 7.2h-14.4l-7.2-7.2v-7.2h-14.4v14.4l14.4 14.4zm66 0v-14.4h-10.8l-7.2-7.2v-50.4h18v-14.4h-18v-25.2l-14.4 14.4v10.8h-7.2v14.4h7.2v57.6l14.4 14.4z" fill="#fff" transform="translate(-183 -130)"/></svg>