<?xml version="1.0" encoding="UTF-8"?>
<svg width="348px" height="164px" viewBox="0 0 348 164" version="1.1" xmlns="http://www.w3.org/2000/svg" xmlns:xlink="http://www.w3.org/1999/xlink">
    <title>flist-kunst</title>
    <g id="flist-kunst" stroke="none" stroke-width="1" fill="none" fill-rule="evenodd">
        <path d="M14.4,115.2 L14.4,75.6 L25.2,64.8 L57.6,97.2 L57.6,115.2 L72,115.2 L72,90 L36,54 L68.4,21.6 L68.4,0 L54,0 L54,14.4 L14.4,54 L14.4,0 L0,0 L0,115.2 L14.4,115.2 Z M123.6,115.2 L130.8,108 L130.8,115.2 L145.2,115.2 L145.2,28.8 L130.8,28.8 L130.8,93.6 L123.6,100.8 L109.2,100.8 L102,93.6 L102,28.8 L87.6,28.8 L87.6,100.8 L102,115.2 L123.6,115.2 Z M178.8,115.2 L178.8,50.4 L186,43.2 L200.4,43.2 L207.6,50.4 L207.6,115.2 L222,115.2 L222,43.2 L207.6,28.8 L186,28.8 L178.8,36 L178.8,28.8 L164.4,28.8 L164.4,115.2 L178.8,115.2 Z M282,115.2 L296.4,100.8 L296.4,82.8 L278.4,64.8 L264,64.8 L253.2,54 L253.2,50.4 L260.4,43.2 L274.8,43.2 L282,50.4 L282,57.6 L296.4,57.6 L296.4,43.2 L282,28.8 L253.2,28.8 L238.8,43.2 L238.8,61.2 L256.8,79.2 L271.2,79.2 L282,90 L282,93.6 L274.8,100.8 L260.4,100.8 L253.2,93.6 L253.2,86.4 L238.8,86.4 L238.8,100.8 L253.2,115.2 L282,115.2 Z M348,115.2 L348,100.8 L337.2,100.8 L330,93.6 L330,43.2 L348,43.2 L348,28.8 L330,28.8 L330,3.6 L315.6,18 L315.6,28.8 L308.4,28.8 L308.4,43.2 L315.6,43.2 L315.6,100.8 L330,115.2 L348,115.2 Z" fill="#FFFFFF" fill-rule="nonzero"></path>
    </g>
</svg>