<?xml version="1.0" encoding="UTF-8"?>
<svg width="1200px" height="152px" viewBox="0 0 1200 152" version="1.1" xmlns="http://www.w3.org/2000/svg" xmlns:xlink="http://www.w3.org/1999/xlink" style="background: #5134E9;">
<title>Artboard 2 Copy</title>
    <desc>Created with Sketch.</desc>
    <defs></defs>
    <g id="Page-1" stroke="none" stroke-width="1" fill="none" fill-rule="evenodd">
        <g id="Artboard-2-Copy" fill="#4DF7BA">
            <path d="M61.1333333,71.9 L84.1333333,94.9 L84.1333333,111 L74.9333333,111 L74.9333333,99.5 L54.2333333,78.8 L47.3333333,85.7 L47.3333333,111 L38.1333333,111 L38.1333333,37.4 L47.3333333,37.4 L47.3333333,71.9 L72.6333333,46.6 L72.6333333,37.4 L81.8333333,37.4 L81.8333333,51.2 L61.1333333,71.9 Z M103.3,111 L94.1,101.8 L94.1,55.8 L103.3,55.8 L103.3,97.2 L107.9,101.8 L117.1,101.8 L121.7,97.2 L121.7,55.8 L130.9,55.8 L130.9,111 L121.7,111 L121.7,106.4 L117.1,111 L103.3,111 Z M143.166667,111 L143.166667,55.8 L152.366667,55.8 L152.366667,60.4 L156.966667,55.8 L170.766667,55.8 L179.966667,65 L179.966667,111 L170.766667,111 L170.766667,69.6 L166.166667,65 L156.966667,65 L152.366667,69.6 L152.366667,111 L143.166667,111 Z M199.9,111 L190.7,101.8 L190.7,92.6 L199.9,92.6 L199.9,97.2 L204.5,101.8 L213.7,101.8 L218.3,97.2 L218.3,94.9 L211.4,88 L202.2,88 L190.7,76.5 L190.7,65 L199.9,55.8 L218.3,55.8 L227.5,65 L227.5,74.2 L218.3,74.2 L218.3,69.6 L213.7,65 L204.5,65 L199.9,69.6 L199.9,71.9 L206.8,78.8 L216,78.8 L227.5,90.3 L227.5,101.8 L218.3,111 L199.9,111 Z M248.966667,111 L239.766667,101.8 L239.766667,65 L235.166667,65 L235.166667,55.8 L239.766667,55.8 L239.766667,48.9 L248.966667,39.7 L248.966667,55.8 L260.466667,55.8 L260.466667,65 L248.966667,65 L248.966667,97.2 L253.566667,101.8 L260.466667,101.8 L260.466667,111 L248.966667,111 Z" id="Kunst"></path>
        </g>
    </g>
</svg>
