<svg width="48px" height="48px" viewBox="137 220 132 132" version="1.1" xmlns="http://www.w3.org/2000/svg" xmlns:xlink="http://www.w3.org/1999/xlink">
  <title>Matt Grey Design</title>
  <defs></defs>
  <path d="M203,352 C166.549207,352 137,322.450793 137,286 C137,249.549207 166.549207,220 203,220 C239.450793,220 269,249.549207 269,286 C269,322.450793 239.450793,352 203,352 Z M204.912,313 L204.912,261.736 L197.136,261.736 L182.448,293.632 L167.472,261.736 L159.696,261.736 L159.696,313 L167.472,313 L167.472,278.728 L179.568,303.712 L185.328,303.712 L197.136,278.728 L197.136,313 L204.912,313 Z M249.012,293.128 L249.012,285.28 L230.292,285.28 L230.292,291.904 L241.236,291.904 L241.236,294.784 C241.236,298.096 240.516,300.688 238.644,302.848 C236.628,305.152 233.676,306.448 230.292,306.448 C227.268,306.448 224.532,305.296 222.732,303.352 C220.212,300.616 219.636,297.664 219.636,287.368 C219.636,277.072 220.212,274.192 222.732,271.456 C224.532,269.512 227.268,268.288 230.292,268.288 C236.052,268.288 239.796,271.6 241.092,277.216 L248.94,277.216 C247.5,268.432 241.164,261.304 230.292,261.304 C224.82,261.304 220.356,263.248 216.828,266.776 C211.788,271.816 211.86,277.504 211.86,287.368 C211.86,297.232 211.788,302.92 216.828,307.96 C220.356,311.488 224.964,313.432 230.292,313.432 C235.692,313.432 240.516,311.704 244.404,307.6 C247.788,304 249.012,299.752 249.012,293.128 Z" id="logo" stroke="none" fill="#FFFFFF" fill-rule="evenodd"></path>
</svg>
