<?xml version="1.0" encoding="UTF-8"?>
<!DOCTYPE svg PUBLIC "-//W3C//DTD SVG 1.1//EN" "http://www.w3.org/Graphics/SVG/1.1/DTD/svg11.dtd">
<svg version="1.1" xmlns="http://www.w3.org/2000/svg" xmlns:xlink="http://www.w3.org/1999/xlink" x="0" y="0" width="48" height="48" viewBox="0, 0, 48, 48">
  <g id="Layer_1">
    <g>
      <path d="M0.5,0.5 L48.5,0.5 L48.5,48.5 L0.5,48.5 L0.5,0.5 z" fill="#F3F3F3"/>
      <path d="M0.5,0.5 L48.5,0.5 L48.5,48.5 L0.5,48.5 L0.5,0.5 z" fill-opacity="0" stroke="#000000" stroke-width="0.25"/>
    </g>
    <g>
      <path d="M0.5,44.798 L48.5,44.798 L48.5,48.5 L0.5,48.5 L0.5,44.798 z" fill="#F3F3F3"/>
      <path d="M0.5,44.798 L48.5,44.798 L48.5,48.5 L0.5,48.5 L0.5,44.798 z" fill-opacity="0" stroke="#000000" stroke-width="0.25"/>
    </g>
    <g>
      <path d="M0.5,41.096 L48.5,41.096 L48.5,44.798 L0.5,44.798 L0.5,41.096 z" fill="#F3F3F3"/>
      <path d="M0.5,41.096 L48.5,41.096 L48.5,44.798 L0.5,44.798 L0.5,41.096 z" fill-opacity="0" stroke="#000000" stroke-width="0.25"/>
    </g>
    <g>
      <path d="M0.5,37.395 L48.5,37.395 L48.5,41.096 L0.5,41.096 L0.5,37.395 z" fill="#F3F3F3"/>
      <path d="M0.5,37.395 L48.5,37.395 L48.5,41.096 L0.5,41.096 L0.5,37.395 z" fill-opacity="0" stroke="#000000" stroke-width="0.25"/>
    </g>
    <g>
      <path d="M0.5,33.693 L48.5,33.693 L48.5,37.395 L0.5,37.395 L0.5,33.693 z" fill="#F3F3F3"/>
      <path d="M0.5,33.693 L48.5,33.693 L48.5,37.395 L0.5,37.395 L0.5,33.693 z" fill-opacity="0" stroke="#000000" stroke-width="0.25"/>
    </g>
    <g>
      <path d="M0.5,29.991 L48.5,29.991 L48.5,33.693 L0.5,33.693 L0.5,29.991 z" fill="#F3F3F3"/>
      <path d="M0.5,29.991 L48.5,29.991 L48.5,33.693 L0.5,33.693 L0.5,29.991 z" fill-opacity="0" stroke="#000000" stroke-width="0.25"/>
    </g>
    <g>
      <path d="M0.5,26.289 L48.5,26.289 L48.5,29.991 L0.5,29.991 L0.5,26.289 z" fill="#F3F3F3"/>
      <path d="M0.5,26.289 L48.5,26.289 L48.5,29.991 L0.5,29.991 L0.5,26.289 z" fill-opacity="0" stroke="#000000" stroke-width="0.25"/>
    </g>
    <g>
      <path d="M0.5,22.587 L48.5,22.587 L48.5,26.289 L0.5,26.289 L0.5,22.587 z" fill="#F3F3F3"/>
      <path d="M0.5,22.587 L48.5,22.587 L48.5,26.289 L0.5,26.289 L0.5,22.587 z" fill-opacity="0" stroke="#000000" stroke-width="0.25"/>
    </g>
    <g>
      <path d="M0.5,18.886 L48.5,18.886 L48.5,22.587 L0.5,22.587 L0.5,18.886 z" fill="#F3F3F3"/>
      <path d="M0.5,18.886 L48.5,18.886 L48.5,22.587 L0.5,22.587 L0.5,18.886 z" fill-opacity="0" stroke="#000000" stroke-width="0.25"/>
    </g>
    <g>
      <path d="M0.5,15.184 L48.5,15.184 L48.5,18.886 L0.5,18.886 L0.5,15.184 z" fill="#F3F3F3"/>
      <path d="M0.5,15.184 L48.5,15.184 L48.5,18.886 L0.5,18.886 L0.5,15.184 z" fill-opacity="0" stroke="#000000" stroke-width="0.25"/>
    </g>
    <g>
      <path d="M0.5,11.482 L48.5,11.482 L48.5,15.184 L0.5,15.184 L0.5,11.482 z" fill="#F3F3F3"/>
      <path d="M0.5,11.482 L48.5,11.482 L48.5,15.184 L0.5,15.184 L0.5,11.482 z" fill-opacity="0" stroke="#000000" stroke-width="0.25"/>
    </g>
    <g>
      <path d="M0.5,7.78 L48.5,7.78 L48.5,11.482 L0.5,11.482 L0.5,7.78 z" fill="#F3F3F3"/>
      <path d="M0.5,7.78 L48.5,7.78 L48.5,11.482 L0.5,11.482 L0.5,7.78 z" fill-opacity="0" stroke="#000000" stroke-width="0.25"/>
    </g>
    <g>
      <path d="M0.5,4.078 L48.5,4.078 L48.5,7.78 L0.5,7.78 L0.5,4.078 z" fill="#F3F3F3"/>
      <path d="M0.5,4.078 L48.5,4.078 L48.5,7.78 L0.5,7.78 L0.5,4.078 z" fill-opacity="0" stroke="#000000" stroke-width="0.25"/>
    </g>
    <g>
      <path d="M0.5,0.5 L48.5,0.5 L48.5,4.202 L0.5,4.202 L0.5,0.5 z" fill="#F3F3F3"/>
      <path d="M0.5,0.5 L48.5,0.5 L48.5,4.202 L0.5,4.202 L0.5,0.5 z" fill-opacity="0" stroke="#000000" stroke-width="0.25"/>
    </g>
    <path d="M44.798,48.5 L44.798,0.5 L48.5,0.5 L48.5,48.5 L44.798,48.5 z" fill-opacity="0" stroke="#000000" stroke-width="0.25"/>
    <path d="M41.096,48.5 L41.096,0.5 L44.798,0.5 L44.798,48.5 L41.096,48.5 z" fill-opacity="0" stroke="#000000" stroke-width="0.25"/>
    <path d="M37.395,48.5 L37.395,0.5 L41.096,0.5 L41.096,48.5 L37.395,48.5 z" fill-opacity="0" stroke="#000000" stroke-width="0.25"/>
    <path d="M33.693,48.5 L33.693,0.5 L37.395,0.5 L37.395,48.5 L33.693,48.5 z" fill-opacity="0" stroke="#000000" stroke-width="0.25"/>
    <path d="M29.991,48.5 L29.991,0.5 L33.693,0.5 L33.693,48.5 L29.991,48.5 z" fill-opacity="0" stroke="#000000" stroke-width="0.25"/>
    <path d="M26.289,48.5 L26.289,0.5 L29.991,0.5 L29.991,48.5 L26.289,48.5 z" fill-opacity="0" stroke="#000000" stroke-width="0.25"/>
    <path d="M22.587,48.5 L22.587,0.5 L26.289,0.5 L26.289,48.5 L22.587,48.5 z" fill-opacity="0" stroke="#000000" stroke-width="0.25"/>
    <path d="M18.886,48.5 L18.886,0.5 L22.587,0.5 L22.587,48.5 L18.886,48.5 z" fill-opacity="0" stroke="#000000" stroke-width="0.25"/>
    <path d="M15.184,48.5 L15.184,0.5 L18.886,0.5 L18.886,48.5 L15.184,48.5 z" fill-opacity="0" stroke="#000000" stroke-width="0.25"/>
    <path d="M11.482,48.5 L11.482,0.5 L15.184,0.5 L15.184,48.5 L11.482,48.5 z" fill-opacity="0" stroke="#000000" stroke-width="0.25"/>
    <path d="M7.78,48.5 L7.78,0.5 L11.482,0.5 L11.482,48.5 L7.78,48.5 z" fill-opacity="0" stroke="#000000" stroke-width="0.25"/>
    <path d="M4.078,48.5 L4.078,0.5 L7.78,0.5 L7.78,48.5 L4.078,48.5 z" fill-opacity="0" stroke="#000000" stroke-width="0.25"/>
    <path d="M0.5,48.5 L0.5,0.5 L4.202,0.5 L4.202,48.5 L0.5,48.5 z" fill-opacity="0" stroke="#000000" stroke-width="0.25"/>
    <g>
      <path d="M0.562,37.395 L4.14,37.395 L4.14,41.096 L0.562,41.096 L0.562,37.395 z" fill="#D12366"/>
      <path d="M0.562,37.395 L4.14,37.395 L4.14,41.096 L0.562,41.096 L0.562,37.395 z" fill-opacity="0" stroke="#000000" stroke-width="0.25"/>
    </g>
    <g>
      <path d="M30.053,22.587 L33.631,22.587 L33.631,26.289 L30.053,26.289 L30.053,22.587 z" fill="#D12366"/>
      <path d="M30.053,22.587 L33.631,22.587 L33.631,26.289 L30.053,26.289 L30.053,22.587 z" fill-opacity="0" stroke="#000000" stroke-width="0.25"/>
    </g>
    <g>
      <path d="M4.202,44.798 L7.78,44.798 L7.78,48.5 L4.202,48.5 L4.202,44.798 z" fill="#D12366"/>
      <path d="M4.202,44.798 L7.78,44.798 L7.78,48.5 L4.202,48.5 L4.202,44.798 z" fill-opacity="0" stroke="#000000" stroke-width="0.25"/>
    </g>
    <g>
      <path d="M33.693,26.289 L37.271,26.289 L37.271,29.991 L33.693,29.991 L33.693,26.289 z" fill="#D12366"/>
      <path d="M33.693,26.289 L37.271,26.289 L37.271,29.991 L33.693,29.991 L33.693,26.289 z" fill-opacity="0" stroke="#000000" stroke-width="0.25"/>
    </g>
    <g>
      <path d="M30.114,15.184 L33.693,15.184 L33.693,18.886 L30.114,18.886 L30.114,15.184 z" fill="#D12366"/>
      <path d="M30.114,15.184 L33.693,15.184 L33.693,18.886 L30.114,18.886 L30.114,15.184 z" fill-opacity="0" stroke="#000000" stroke-width="0.25"/>
    </g>
    <g>
      <path d="M22.711,22.587 L26.289,22.587 L26.289,26.289 L22.711,26.289 L22.711,22.587 z" fill="#D12366"/>
      <path d="M22.711,22.587 L26.289,22.587 L26.289,26.289 L22.711,26.289 L22.711,22.587 z" fill-opacity="0" stroke="#000000" stroke-width="0.25"/>
    </g>
    <g>
      <path d="M33.816,11.482 L37.395,11.482 L37.395,15.184 L33.816,15.184 L33.816,11.482 z" fill="#D12366"/>
      <path d="M33.816,11.482 L37.395,11.482 L37.395,15.184 L33.816,15.184 L33.816,11.482 z" fill-opacity="0" stroke="#000000" stroke-width="0.25"/>
    </g>
    <g>
      <path d="M33.816,4.078 L37.395,4.078 L37.395,7.78 L33.816,7.78 L33.816,4.078 z" fill="#D12366"/>
      <path d="M33.816,4.078 L37.395,4.078 L37.395,7.78 L33.816,7.78 L33.816,4.078 z" fill-opacity="0" stroke="#000000" stroke-width="0.25"/>
    </g>
    <g>
      <path d="M15.184,41.096 L18.762,41.096 L18.762,44.798 L15.184,44.798 L15.184,41.096 z" fill="#D12366"/>
      <path d="M15.184,41.096 L18.762,41.096 L18.762,44.798 L15.184,44.798 L15.184,41.096 z" fill-opacity="0" stroke="#000000" stroke-width="0.25"/>
    </g>
    <g>
      <path d="M37.518,15.184 L41.096,15.184 L41.096,18.886 L37.518,18.886 L37.518,15.184 z" fill="#D12366"/>
      <path d="M37.518,15.184 L41.096,15.184 L41.096,18.886 L37.518,18.886 L37.518,15.184 z" fill-opacity="0" stroke="#000000" stroke-width="0.25"/>
    </g>
    <g>
      <path d="M18.916,15.184 L22.495,15.184 L22.495,18.886 L18.916,18.886 L18.916,15.184 z" fill="#D12366"/>
      <path d="M18.916,15.184 L22.495,15.184 L22.495,18.886 L18.916,18.886 L18.916,15.184 z" fill-opacity="0" stroke="#000000" stroke-width="0.25"/>
    </g>
    <g>
      <path d="M26.289,29.991 L29.867,29.991 L29.867,33.693 L26.289,33.693 L26.289,29.991 z" fill="#D12366"/>
      <path d="M26.289,29.991 L29.867,29.991 L29.867,33.693 L26.289,33.693 L26.289,29.991 z" fill-opacity="0" stroke="#000000" stroke-width="0.25"/>
    </g>
    <g>
      <path d="M11.544,33.693 L15.122,33.693 L15.122,37.395 L11.544,37.395 L11.544,33.693 z" fill="#D12366"/>
      <path d="M11.544,33.693 L15.122,33.693 L15.122,37.395 L11.544,37.395 L11.544,33.693 z" fill-opacity="0" stroke="#000000" stroke-width="0.25"/>
    </g>
    <g>
      <path d="M7.842,37.395 L11.42,37.395 L11.42,41.096 L7.842,41.096 L7.842,37.395 z" fill="#D12366"/>
      <path d="M7.842,37.395 L11.42,37.395 L11.42,41.096 L7.842,41.096 L7.842,37.395 z" fill-opacity="0" stroke="#000000" stroke-width="0.25"/>
    </g>
    <g>
      <path d="M11.544,26.289 L15.122,26.289 L15.122,29.991 L11.544,29.991 L11.544,26.289 z" fill="#D12366"/>
      <path d="M11.544,26.289 L15.122,26.289 L15.122,29.991 L11.544,29.991 L11.544,26.289 z" fill-opacity="0" stroke="#000000" stroke-width="0.25"/>
    </g>
    <g>
      <path d="M41.158,4.078 L44.736,4.078 L44.736,7.78 L41.158,7.78 L41.158,4.078 z" fill="#D12366"/>
      <path d="M41.158,4.078 L44.736,4.078 L44.736,7.78 L41.158,7.78 L41.158,4.078 z" fill-opacity="0" stroke="#000000" stroke-width="0.25"/>
    </g>
  </g>
</svg>
