<svg height="104" viewBox="0 0 609 104" width="609" xmlns="http://www.w3.org/2000/svg"><path d="m191.676417 2833c.159049 0 .159049-.15896.318099-.15896.159049 0 .159049-.15896.159049-.15896s0 0 .159049-.15895v-.15896h.15905l38.808043-101.8922v-.79479s0-.11039-.092042-.14718l-.067007-.01178s0-.15895-.159049-.15895c0-.13247-.110451-.15455-.147268-.15823l-.170831-.00073s0-.15896-.159049-.15896h-19.404022c-.636198 0-1.113346.47687-1.113346 1.11271 0 .63583.477148 1.1127 1.113346 1.1127h3.499086l-38.012797 99.50783h-4.453382c-.636198 0-1.113346.47687-1.113346 1.1127 0 .63584.477148 1.11271 1.113346 1.11271zm44.056673 0c.477148 0 .954296-.31792 1.113345-.63583l39.126143-101.8922c0-.31791 0-.63583-.15905-.95375-.318098-.31791-.636197-.47687-.954296-.47687h-39.126142c-.318099 0-.795247.31792-.954297.79479l-38.967093 101.73324c0 .31791 0 .63583.15905.95375.159049.31791.636197.47687.954296.47687zm21.471663-60.08619h-36.581353l15.904936-41.64705h36.740403zm-22.107861 57.86078h-36.581353l21.312615-55.63537h36.581352zm38.648995 2.22541c.159049 0 .159049-.15896.318098-.15896.132542 0 .154632-.11039.158313-.14718l.000737-.01178s0 0 .159049-.15895v-.15896h.159049l38.808044-101.8922v-.79479s0-.11039-.092042-.14718l-.067007-.01178s0-.15895-.159049-.15895c0-.15896-.15905-.15896-.15905-.15896-.159049 0-.159049-.15896-.318098-.15896h-19.404022c-.636198 0-1.113346.47687-1.113346 1.11271 0 .63583.477148 1.1127 1.113346 1.1127h3.499086l-38.012798 99.50783h-4.453382c-.636197 0-1.113345.47687-1.113345 1.1127 0 .63584.477148 1.11271 1.113345 1.11271zm43.897623 0c.636197 0 1.113346-.47687 1.113346-1.11271v-5.24562c0-.63583-.477149-1.1127-1.113346-1.1127s-1.113345.47687-1.113345 1.1127v4.13292h-36.104205l21.153565-55.63537h38.330895c.636198 0 1.113346-.47687 1.113346-1.11271 0-.63583-.477148-1.1127-1.113346-1.1127h-37.376599l15.904936-41.64705h37.21755v4.29188c0 .47687.477148 1.1127 1.113346 1.1127.477148 0 1.113345-.63583 1.113345-1.1127v-5.40458c0-.63584-.636197-1.11271-1.113345-1.11271h-39.126143c-.477148 0-.954296.31792-1.113345.79479l-38.808044 101.73324c-.15905.31791-.15905.63583.159049.95375.159049.31791.477148.47687.954296.47687zm41.193784 0c.15905 0 .15905-.15896.318099-.15896.132541 0 .154631-.11039.158313-.14718l.000736-.01178s0 0 .15905-.15895v-.15896h.159049l38.808044-101.8922v-.79479s0-.11039-.092042-.14718l-.067007-.01178s0-.15895-.15905-.15895c0-.15896-.159049-.15896-.159049-.15896-.159049 0-.159049-.15896-.318099-.15896h-19.404022c-.636197 0-1.113345.47687-1.113345 1.11271 0 .63583.477148 1.1127 1.113345 1.1127h3.499086l-38.012797 99.50783h-4.453382c-.636197 0-1.113345.47687-1.113345 1.1127 0 .63584.477148 1.11271 1.113345 1.11271zm43.897624 0c.636197 0 1.113345-.47687 1.113345-1.11271v-5.24562c0-.63583-.477148-1.1127-1.113345-1.1127-.636198 0-1.113346.47687-1.113346 1.1127v4.13292h-36.104205l21.153565-55.63537h38.330896c.636198 0 1.113346-.47687 1.113346-1.11271 0-.63583-.477148-1.1127-1.113346-1.1127h-37.376599l15.904936-41.64705h37.21755v4.29188c0 .47687.477148 1.1127 1.113345 1.1127.477148 0 1.113346-.63583 1.113346-1.1127v-5.40458c0-.63584-.636198-1.11271-1.113346-1.11271h-39.126142c-.477148 0-.954296.31792-1.113346.79479l-38.808044 101.73324c-.159049.31791-.159049.63583.15905.95375.159049.31791.477148.47687.954296.47687zm44.056672 0c.477149 0 .795247-.15896.954297-.63583l21.948811-57.22495h36.422304l-21.312614 56.11224c-.15905.15896-.318099.47687-.318099.63583 0 .59345.415649 1.04842.988321 1.10645l.125024.00626h5.407679c.477148 0 1.113345-.47687 1.113345-1.11271 0-.63583-.636197-1.1127-1.113345-1.1127h-3.658136l38.012797-99.50783h4.453382c.636198 0 1.113346-.47687 1.113346-1.1127 0-.63584-.477148-1.11271-1.113346-1.11271h-5.248628c-.477148 0-.954297.31792-1.113346.63583l-16.382084 43.23663h-36.581353l16.223035-42.44184c.159049-.47687-.159049-1.1127-.636198-1.43062-.636197-.15896-1.272394.15896-1.431444.63583l-38.967093 101.8922c-.159049.47687.159049 1.1127.636197 1.43062zm-5.248628 0c.159049 0 .159049-.15896.318098-.15896.132541 0 .154632-.11039.158313-.14718l.000737-.01178s0 0 .159049-.15895v-.15896h.159049l38.808044-101.8922v-.79479s0-.11039-.092042-.14718l-.067007-.01178s0-.15895-.159049-.15895c0-.13247-.110451-.15455-.147268-.15823l-.170831-.00073s0-.15896-.15905-.15896h-19.404021c-.636198 0-1.113346.47687-1.113346 1.11271 0 .63583.477148 1.1127 1.113346 1.1127h3.499085l-37.853747 99.50783h-4.612432c-.636197 0-1.113345.47687-1.113345 1.1127 0 .63584.477148 1.11271 1.113345 1.11271zm101.314442 0c.477148 0 .954296-.31792 1.113346-.63583l38.808043-101.8922c.15905-.31791.15905-.63583-.159049-.95375-.159049-.31791-.477148-.47687-.795247-.47687h-41.829981c-.636198 0-1.113346.47687-1.113346 1.11271v5.40458c0 .47687.477148 1.1127 1.113346 1.1127.477148 0 1.113345-.63583 1.113345-1.1127v-4.29188h24.97075l-38.012797 99.50783h-14.632542v-4.13292c0-.63583-.477148-1.1127-1.113345-1.1127-.636198 0-1.113346.47687-1.113346 1.1127v5.24562c0 .31792.15905.63584.318099.79479.141377.2826.408423.314.689432.31792zm33.400366 0c.636197 0 1.113345-.47687 1.113345-1.11271v-5.24562c0-.63583-.477148-1.1127-1.113345-1.1127-.636198 0-1.113346.47687-1.113346 1.1127v4.13292h-25.129799l38.012797-99.50783h14.791591v4.29188c0 .47687.636197 1.1127 1.113345 1.1127.636198 0 1.113346-.63583 1.113346-1.1127v-5.40458c0-.63584-.477148-1.11271-1.113346-1.11271h-16.541133c-.477148 0-.954296.31792-1.113346.63583l-38.808044 101.8922c-.159049.31791-.159049.63583 0 .95375.318099.31791.636198.47687.954297.47687zm34.354661 0c.318099 0 .636198-.15896.795247-.31792l77.616088-101.41532h4.771481c.636197 0 1.113345-.47687 1.113345-1.1127 0-.63584-.477148-1.11271-1.113345-1.11271h-5.248629c-.318099 0-.636198.15896-.954296.47687l-73.321755 95.69283 36.263254-94.73908c.159049-.47687-.15905-1.1127-.636198-1.43062-.636197-.15896-1.272394.15896-1.431444.79479l-38.967093 101.73324c-.159049.47687 0 1.1127.477148 1.27166.159049.15896.477148.15896.636197.15896zm-4.612431 0c.159049 0 .159049-.15896.318099-.15896.132541 0 .154631-.11039.158313-.14718l.000736-.01178s0 0 .159049-.15895v-.15896h.15905l38.808044-101.8922v-.79479s0-.11039-.092043-.14718l-.067007-.01178s0-.15895-.159049-.15895c0-.13247-.110451-.15455-.147268-.15823l-.170831-.00073s0-.15896-.159049-.15896h-19.404022c-.636198 0-1.113346.47687-1.113346 1.11271 0 .63583.477148 1.1127 1.113346 1.1127h3.499086l-38.012797 99.50783h-4.453382c-.636198 0-1.113346.47687-1.113346 1.1127 0 .63584.477148 1.11271 1.113346 1.11271zm89.862888 0c.15905 0 .15905-.15896.318099-.15896.132541 0 .154632-.11039.158313-.14718l.000737-.01178s0 0 .159049-.15895v-.15896h.159049l38.808044-101.8922v-.79479s0-.11039-.092042-.14718l-.067007-.01178s0-.15895-.15905-.15895c0-.15896-.159049-.15896-.159049-.15896-.159049 0-.159049-.15896-.318099-.15896h-19.404022c-.636197 0-1.113345.47687-1.113345 1.11271 0 .63583.477148 1.1127 1.113345 1.1127h3.499086l-38.012797 99.50783h-4.453382c-.636197 0-1.113345.47687-1.113345 1.1127 0 .63584.477148 1.11271 1.113345 1.11271zm43.897624 0c.636197 0 1.113345-.47687 1.113345-1.11271v-5.24562c0-.63583-.477148-1.1127-1.113345-1.1127-.636198 0-1.113346.47687-1.113346 1.1127v4.13292h-36.104204l21.153565-55.63537h38.330895c.636198 0 1.113346-.47687 1.113346-1.11271 0-.63583-.477148-1.1127-1.113346-1.1127h-37.376599l15.904936-41.64705h37.21755v4.29188c0 .47687.477148 1.1127 1.113345 1.1127.477149 0 1.113346-.63583 1.113346-1.1127v-5.40458c0-.63584-.636197-1.11271-1.113346-1.11271h-39.126142c-.477148 0-.954296.31792-1.113346.79479l-38.808044 101.73324c-.159049.31791-.159049.63583.15905.95375.159049.31791.477148.47687.954296.47687z" fill="#fff" transform="translate(-171 -2729)"/></svg>