<svg width="1736" height="164" xmlns="http://www.w3.org/2000/svg"><path d="M20.676 104c.16 0 .16-.159.319-.159s.159-.159.159-.159l.159-.159v-.159h.159L60.28 1.472V.677s0-.11-.092-.147L60.12.518s0-.159-.16-.159c0-.132-.11-.154-.147-.158h-.17s0-.16-.16-.16H40.08c-.636 0-1.113.477-1.113 1.113s.477 1.113 1.113 1.113h3.5L5.567 101.775H1.113c-.636 0-1.113.476-1.113 1.112C0 103.523.477 104 1.113 104h19.563zm44.057 0c.477 0 .954-.318 1.113-.636L104.973 1.472c0-.318 0-.636-.16-.954-.318-.318-.636-.477-.954-.477H64.733c-.318 0-.795.318-.954.795L24.812 102.57c0 .318 0 .636.159.954.159.318.636.477.954.477h38.808zm21.472-60.086H49.623L65.528 2.267h36.74L86.206 43.914zm-22.108 57.86H27.516L48.828 46.14H85.41l-21.313 55.636zM102.746 104c.159 0 .159-.159.318-.159.133 0 .155-.11.158-.147l.001-.012.16-.159v-.159h.158L142.35 1.472V.677s0-.11-.092-.147l-.067-.012s0-.159-.159-.159c0-.159-.159-.159-.159-.159-.159 0-.159-.159-.318-.159H122.15c-.636 0-1.113.477-1.113 1.113s.477 1.113 1.113 1.113h3.499l-38.013 99.508h-4.453c-.636 0-1.114.476-1.114 1.112 0 .636.478 1.113 1.114 1.113h19.563zm43.898 0c.636 0 1.113-.477 1.113-1.113v-5.245c0-.636-.477-1.113-1.113-1.113-.637 0-1.114.477-1.114 1.113v4.133h-36.104l21.154-55.636h38.33c.637 0 1.114-.477 1.114-1.112 0-.636-.477-1.113-1.114-1.113h-37.376l15.905-41.647h37.217v4.292c0 .477.477 1.112 1.114 1.112.477 0 1.113-.635 1.113-1.112V1.154c0-.636-.636-1.113-1.113-1.113h-39.126c-.478 0-.955.318-1.114.795L106.722 102.57c-.159.318-.159.636.16.954.158.318.476.477.953.477h38.809zm41.193 0c.16 0 .16-.159.318-.159.133 0 .155-.11.159-.147v-.012l.16-.159v-.159h.159L227.44 1.472V.677s0-.11-.092-.147l-.067-.012s0-.159-.16-.159c0-.159-.159-.159-.159-.159-.159 0-.159-.159-.318-.159h-19.404c-.636 0-1.113.477-1.113 1.113s.477 1.113 1.113 1.113h3.5l-38.013 99.508h-4.454c-.636 0-1.113.476-1.113 1.112 0 .636.477 1.113 1.113 1.113h19.563zm43.898 0c.636 0 1.113-.477 1.113-1.113v-5.245c0-.636-.477-1.113-1.113-1.113s-1.113.477-1.113 1.113v4.133h-36.105l21.154-55.636H254c.637 0 1.114-.477 1.114-1.112 0-.636-.477-1.113-1.113-1.113h-37.377L232.53 2.267h37.218v4.292c0 .477.477 1.112 1.113 1.112.477 0 1.113-.635 1.113-1.112V1.154c0-.636-.636-1.113-1.113-1.113h-39.126c-.477 0-.954.318-1.113.795L191.814 102.57c-.16.318-.16.636.159.954.159.318.477.477.954.477h38.808zm44.057 0c.477 0 .795-.159.954-.636l21.949-57.225h36.422l-21.313 56.112c-.159.16-.318.477-.318.636 0 .594.416 1.049.989 1.107l.125.006h5.407c.477 0 1.114-.477 1.114-1.113s-.637-1.112-1.114-1.112h-3.658l38.013-99.508h4.453c.637 0 1.114-.477 1.114-1.113s-.477-1.113-1.114-1.113h-5.248c-.477 0-.955.318-1.114.636l-16.382 43.237H299.49l16.223-42.442c.159-.477-.16-1.113-.636-1.43-.636-.16-1.273.158-1.432.635L274.678 102.57c-.159.477.16 1.113.636 1.431h.478zm-5.249 0c.159 0 .159-.159.318-.159.133 0 .155-.11.158-.147l.001-.012.16-.159v-.159h.158L310.146 1.472V.677s0-.11-.092-.147l-.067-.012s0-.159-.159-.159c0-.132-.11-.154-.147-.158h-.17s0-.16-.16-.16h-19.404c-.636 0-1.113.477-1.113 1.113s.477 1.113 1.113 1.113h3.5l-37.855 99.508h-4.612c-.636 0-1.113.476-1.113 1.112 0 .636.477 1.113 1.113 1.113h19.563zm101.314 0c.478 0 .955-.318 1.114-.636L411.779 1.472c.159-.318.159-.636-.16-.954a.875.875 0 00-.795-.477h-41.83c-.636 0-1.113.477-1.113 1.113V6.56c0 .477.477 1.112 1.114 1.112.477 0 1.113-.635 1.113-1.112V2.267h24.97l-38.012 99.508h-14.633v-4.133c0-.636-.477-1.113-1.113-1.113s-1.113.477-1.113 1.113v5.245c0 .318.159.636.318.795.141.283.408.314.69.318h30.642zm33.4 0c.637 0 1.114-.477 1.114-1.113v-5.245c0-.636-.477-1.113-1.113-1.113s-1.114.477-1.114 1.113v4.133h-25.13l38.013-99.508h14.792v4.292c0 .477.636 1.112 1.113 1.112.637 0 1.114-.635 1.114-1.112V1.154c0-.636-.477-1.113-1.114-1.113h-16.54c-.478 0-.955.318-1.114.636L376.47 102.57a1.013 1.013 0 000 .954c.318.318.636.477.954.477h27.834zm34.355 0c.319 0 .637-.159.796-.318L518.024 2.267h4.771c.636 0 1.114-.477 1.114-1.113S523.43.041 522.795.041h-5.248c-.318 0-.637.16-.955.477l-73.321 95.693 36.263-94.739c.159-.477-.16-1.113-.636-1.43-.637-.16-1.273.158-1.432.794L438.5 102.57c-.159.477 0 1.113.477 1.272.16.159.477.159.636.159zM435 104c.159 0 .159-.159.318-.159.133 0 .155-.11.158-.147l.001-.012.16-.159v-.159h.158L474.603 1.472V.677s0-.11-.092-.147l-.067-.012s0-.159-.159-.159c0-.132-.11-.154-.147-.158h-.17s0-.16-.16-.16h-19.404c-.636 0-1.113.477-1.113 1.113s.477 1.113 1.113 1.113h3.5l-38.014 99.508h-4.453c-.636 0-1.113.476-1.113 1.112 0 .636.477 1.113 1.113 1.113H435zm89.863 0c.159 0 .159-.159.318-.159.133 0 .155-.11.158-.147l.001-.012.16-.159v-.159h.158L564.466 1.472V.677s0-.11-.092-.147l-.067-.012s0-.159-.159-.159c0-.159-.159-.159-.159-.159-.159 0-.159-.159-.318-.159h-19.404c-.636 0-1.113.477-1.113 1.113s.477 1.113 1.113 1.113h3.499l-38.013 99.508H505.3c-.636 0-1.114.476-1.114 1.112 0 .636.478 1.113 1.114 1.113h19.563zm43.898 0c.636 0 1.113-.477 1.113-1.113v-5.245c0-.636-.477-1.113-1.113-1.113-.637 0-1.114.477-1.114 1.113v4.133h-36.104l21.154-55.636h38.33c.637 0 1.114-.477 1.114-1.112 0-.636-.477-1.113-1.114-1.113h-37.376l15.905-41.647h37.217v4.292c0 .477.477 1.112 1.114 1.112.477 0 1.113-.635 1.113-1.112V1.154c0-.636-.636-1.113-1.113-1.113H568.76c-.478 0-.955.318-1.114.795L528.84 102.57c-.159.318-.159.636.16.954.158.318.476.477.953.477h38.809z" fill="#FFF" fill-rule="nonzero"/></svg>
