<svg width="1736" height="164" xmlns="http://www.w3.org/2000/svg"><path d="M27.984 106L53 80.984 78.016 106H106V78.016L80.984 53 106 27.984V0H78.016L53 25.016 27.984 0H0v106h27.984zm113.42 0l25.016-25.016L191.436 106h27.984V78.016L194.404 53l25.016-25.016V0h-106v106h27.984zm191.436 0V25.016L307.824 0h-55.968L226.84 25.016V106h106zm10.494-.318l24.91-24.91 24.91 24.91h52.894V0h-3.074l-24.91 24.91L393.154 0H340.26v105.682h3.074zm138.118.318l25.016-25.016L531.484 106h27.984V78.016L534.452 53l25.016-25.016V0h-27.984l-25.016 25.016L481.452 0h-27.984v106h27.984z" fill="#FFF" fill-rule="nonzero"/></svg>
