<?xml version="1.0" encoding="UTF-8"?>
<svg width="1200px" height="152px" viewBox="0 0 1200 152" version="1.1" xmlns="http://www.w3.org/2000/svg" xmlns:xlink="http://www.w3.org/1999/xlink" style="background: #1EA5D5;">
<title>Artboard 2 Copy 4</title>
    <desc>Created with Sketch.</desc>
    <defs></defs>
    <g id="Page-1" stroke="none" stroke-width="1" fill="none" fill-rule="evenodd">
        <g id="Artboard-2-Copy-4" fill="#FFFFFF">
            <path d="M63.905,98.285 C59.9749803,96.694992 56.8700114,94.5350136 54.59,91.805 C52.3099886,89.0749864 51.17,86.0900162 51.17,82.85 C51.17,81.8899952 51.2599991,81.0200039 51.44,80.24 C50.3599946,79.639997 49.4900033,78.8000054 48.83,77.72 C48.1699967,76.6399946 47.84,75.4700063 47.84,74.21 C47.84,72.2299901 48.5599928,70.5500069 50,69.17 C51.4400072,67.7899931 53.1799898,67.1 55.22,67.1 C57.2000099,67.1 58.9099928,67.7599934 60.35,69.08 C64.7300219,66.4999871 69.8299709,65.1200009 75.65,64.94 L78.08,51.89 C78.2000006,51.4099976 78.3799988,51.1100006 78.62,50.99 C79.0400021,50.7499988 79.3999985,50.7199991 79.7,50.9 L88.07,53.51 C88.6100027,52.4299946 89.3899949,51.5750032 90.41,50.945 C91.4300051,50.3149968 92.5999934,50 93.92,50 C95.7800093,50 97.3699934,50.6599934 98.69,51.98 C100.010007,53.3000066 100.67,54.8899907 100.67,56.75 C100.67,58.6100093 100.010007,60.2149933 98.69,61.565 C97.3699934,62.9150068 95.7800093,63.59 93.92,63.59 C92.0599907,63.59 90.4700066,62.9150068 89.15,61.565 C87.8299934,60.2149933 87.17,58.6100093 87.17,56.75 L87.26,55.85 L80.33,53.69 L78.26,64.94 C84.0200288,65.2400015 89.1199778,66.7399865 93.56,69.44 C95.0000072,67.8799922 96.7999892,67.1 98.96,67.1 C101.00001,67.1 102.739993,67.7899931 104.18,69.17 C105.620007,70.5500069 106.34,72.2299901 106.34,74.21 C106.34,75.5900069 105.935004,76.8649942 105.125,78.035 C104.314996,79.2050058 103.280006,80.089997 102.02,80.69 C102.08,81.1700024 102.11,81.8899952 102.11,82.85 C102.11,86.0900162 100.970011,89.0749864 98.69,91.805 C96.4099886,94.5350136 93.3200195,96.694992 89.42,98.285 C85.5199805,99.8750079 81.2900228,100.67 76.73,100.67 C72.1099769,100.67 67.8350196,99.8750079 63.905,98.285 Z M70.16,78.395 C70.8200033,77.7649969 71.15,76.9700048 71.15,76.01 C71.15,75.1099955 70.8200033,74.3450031 70.16,73.715 C69.4999967,73.0849968 68.7200045,72.77 67.82,72.77 C66.9199955,72.77 66.1550031,73.0849968 65.525,73.715 C64.8949968,74.3450031 64.58,75.1099955 64.58,76.01 C64.58,76.9700048 64.8949968,77.7649969 65.525,78.395 C66.1550031,79.0250032 66.9199955,79.34 67.82,79.34 C68.7200045,79.34 69.4999967,79.0250032 70.16,78.395 Z M88.52,78.395 C89.1800033,77.7649969 89.51,76.9700048 89.51,76.01 C89.51,75.1099955 89.1800033,74.3450031 88.52,73.715 C87.8599967,73.0849968 87.0800045,72.77 86.18,72.77 C85.2799955,72.77 84.5150031,73.0849968 83.885,73.715 C83.2549968,74.3450031 82.94,75.1099955 82.94,76.01 C82.94,76.9700048 83.2549968,77.7649969 83.885,78.395 C84.5150031,79.0250032 85.2799955,79.34 86.18,79.34 C87.0800045,79.34 87.8599967,79.0250032 88.52,78.395 Z M83.12,89.78 C85.0400096,89.2999976 86.5099949,88.5200054 87.53,87.44 C87.8300015,87.1999988 87.98,86.8700021 87.98,86.45 C87.98,86.0299979 87.8300015,85.7000012 87.53,85.46 C87.2899988,85.1599985 86.9600021,85.01 86.54,85.01 C86.1199979,85.01 85.7900012,85.1599985 85.55,85.46 C84.949997,86.060003 83.8700078,86.5999976 82.31,87.08 C80.2699898,87.5600024 78.4700078,87.8 76.91,87.8 C75.2899919,87.8 73.4600102,87.5600024 71.42,87.08 C69.9199925,86.6599979 68.9000027,86.1200033 68.36,85.46 C68.1199988,85.1599985 67.7600024,85.01 67.28,85.01 C66.8599979,85.01 66.5000015,85.1599985 66.2,85.46 C65.9599988,85.7000012 65.84,86.0599976 65.84,86.54 C65.84,86.9000018 65.9599988,87.1999988 66.2,87.44 C67.400006,88.5800057 68.899991,89.3599979 70.7,89.78 C72.6800099,90.380003 74.7499892,90.68 76.91,90.68 C79.0700108,90.68 81.1399901,90.380003 83.12,89.78 Z M166.345,101.705 C161.694977,98.9749863 158.005014,95.3000231 155.275,90.68 C152.544986,86.0599769 151.18,80.9900276 151.18,75.47 C151.18,69.9499724 152.544986,64.8650233 155.275,60.215 C158.005014,55.5649767 161.694977,51.8750136 166.345,49.145 C170.995023,46.4149864 176.079972,45.05 181.6,45.05 C187.120028,45.05 192.204977,46.4149864 196.855,49.145 C201.505023,51.8750136 205.194986,55.5649767 207.925,60.215 C210.655014,64.8650233 212.02,69.9499724 212.02,75.47 C212.02,80.9900276 210.655014,86.0599769 207.925,90.68 C205.194986,95.3000231 201.505023,98.9749863 196.855,101.705 C192.204977,104.435014 187.120028,105.8 181.6,105.8 C176.079972,105.8 170.995023,104.435014 166.345,101.705 Z M199.24,57.29 C196.899988,55.0099886 194.200015,53.2400063 191.14,51.98 C188.079985,50.7199937 184.900017,50.09 181.6,50.09 C179.61999,50.09 177.430012,50.389997 175.03,50.99 C178.750019,55.5500228 182.139985,60.6499718 185.2,66.29 C190.000024,64.1299892 194.679977,61.1300192 199.24,57.29 Z M180.34,68.09 C177.279985,62.5099721 173.830019,57.4700225 169.99,52.97 C166.389982,54.8300093 163.405012,57.3949837 161.035,60.665 C158.664988,63.9350163 157.150003,67.5499802 156.49,71.51 C157.810007,71.6300006 158.889996,71.69 159.73,71.69 C166.630035,71.69 173.499966,70.490012 180.34,68.09 Z M202.48,61.16 C197.799977,65.1200198 192.760027,68.3299877 187.36,70.79 L188.17,72.68 L189.07,74.93 C191.830014,74.3899973 194.589986,74.12 197.35,74.12 C200.410015,74.12 203.619983,74.5399958 206.98,75.38 C206.859999,70.1599739 205.360014,65.4200213 202.48,61.16 Z M172.33,82.715 C175.930018,79.9249861 179.859979,77.8100072 184.12,76.37 C183.879999,75.6499964 183.625001,74.990003 183.355,74.39 C183.084999,73.789997 182.860001,73.2500024 182.68,72.77 C175.479964,75.4100132 167.86004,76.73 159.82,76.73 C158.319993,76.73 157.150004,76.7000003 156.31,76.64 C156.430001,79.640015 157.074994,82.5049863 158.245,85.235 C159.415006,87.9650137 161.01999,90.4399889 163.06,92.66 C165.640013,88.8199808 168.729982,85.505014 172.33,82.715 Z M202.3,90.095 C204.400011,87.1849854 205.779997,83.9600177 206.44,80.42 C203.259984,79.5799958 200.230014,79.16 197.35,79.16 C195.609991,79.16 193.420013,79.3699979 190.78,79.79 C192.460008,85.0700264 193.689996,90.8899682 194.47,97.25 C197.590016,95.3899907 200.19999,93.0050145 202.3,90.095 Z M189.52,99.5 C188.979997,93.2599688 187.75001,87.14003 185.83,81.14 C181.929981,82.4600066 178.345016,84.3949872 175.075,86.945 C171.804984,89.4950128 169.060011,92.5399823 166.84,96.08 C171.340023,99.2000156 176.259973,100.76 181.6,100.76 C184.180013,100.76 186.819987,100.340004 189.52,99.5 Z M284.94,101.48 L260.64,85.28 C260.58,85.28 260.55,85.2500003 260.55,85.19 L260.37,85.1 L260.1,84.83 L260.01,84.65 L259.92,84.56 L259.83,84.38 L259.83,84.29 L259.74,84.11 L259.74,84.02 L259.65,83.84 L259.65,66.83 C259.65,66.7099994 259.68,66.65 259.74,66.65 L259.74,66.425 C259.74,66.3949999 259.77,66.38 259.83,66.38 L259.83,66.2 C259.89,66.2 259.92,66.1850002 259.92,66.155 L259.92,66.11 L260.01,65.93 L260.1,65.84 L260.1,65.795 C260.1,65.7649999 260.13,65.75 260.19,65.75 L260.28,65.57 L260.325,65.57 C260.355,65.57 260.37,65.5400003 260.37,65.48 L260.55,65.39 L260.64,65.3 L284.94,49.1 C285.420002,48.7999985 285.839998,48.65 286.2,48.65 C286.620002,48.65 287.039998,48.7999985 287.46,49.1 L311.76,65.3 L311.85,65.3 C311.85,65.3600003 311.865,65.39 311.895,65.39 L311.94,65.39 L312.3,65.75 L312.3,65.795 C312.3,65.8250001 312.33,65.84 312.39,65.84 L312.39,65.885 C312.39,65.9150001 312.42,65.93 312.48,65.93 L312.48,66.11 C312.54,66.11 312.57,66.1249998 312.57,66.155 L312.57,66.2 L312.66,66.38 L312.66,66.47 L312.75,66.65 L312.75,66.875 C312.75,66.9050002 312.78,66.92 312.84,66.92 L312.84,83.75 C312.78,83.75 312.75,83.7799997 312.75,83.84 L312.75,84.065 C312.75,84.0950002 312.72,84.11 312.66,84.11 L312.66,84.29 L312.57,84.38 L312.48,84.56 L312.48,84.65 L312.39,84.83 C312.33,84.83 312.3,84.8599997 312.3,84.92 L312.12,85.01 L312.12,85.055 C312.12,85.0850001 312.09,85.1 312.03,85.1 L312.03,85.145 C312.03,85.1750001 312,85.19 311.94,85.19 C311.94,85.2500003 311.925,85.28 311.895,85.28 L311.76,85.28 L287.46,101.48 C287.039998,101.780001 286.620002,101.93 286.2,101.93 C285.779998,101.93 285.360002,101.780001 284.94,101.48 Z M274.05,72.59 L283.95,65.93 L283.95,55.31 L266.04,67.19 L274.05,72.59 Z M298.44,72.59 L306.45,67.19 L288.54,55.31 L288.54,65.93 L298.44,72.59 Z M286.2,80.69 L294.3,75.29 L286.2,69.89 L278.1,75.29 L286.2,80.69 Z M264.24,79.16 L269.91,75.29 L264.24,71.51 L264.24,79.16 Z M308.25,79.16 L308.25,71.51 L302.49,75.29 L308.25,79.16 Z M283.95,95.36 L283.95,84.65 L274.05,78.08 L266.04,83.39 L283.95,95.36 Z M288.54,95.36 L306.45,83.39 L298.44,78.08 L288.54,84.65 L288.54,95.36 Z M370.28,59.99 C369.199995,58.9099946 368.66,57.5900078 368.66,56.03 C368.66,54.4699922 369.199995,53.1650053 370.28,52.115 C371.360005,51.0649947 372.649993,50.54 374.15,50.54 C375.710008,50.54 377.029995,51.0799946 378.11,52.16 C379.190005,53.2400054 379.73,54.5299925 379.73,56.03 C379.73,57.5300075 379.190005,58.8349944 378.11,59.945 C377.029995,61.0550056 375.710008,61.61 374.15,61.61 C372.649993,61.61 371.360005,61.0700054 370.28,59.99 Z M384.95,65.84 L394.13,65.84 L394.13,69.98 L394.31,69.98 C395.030004,68.5999931 396.184992,67.4300048 397.775,66.47 C399.365008,65.5099952 401.239989,65.03 403.4,65.03 C407.900023,65.03 410.944992,66.2899874 412.535,68.81 C414.125008,71.3300126 414.92,74.9599763 414.92,79.7 L414.92,96.62 L405.29,96.62 L405.29,81.59 C405.29,79.1299877 405.005003,77.1650073 404.435,75.695 C403.864997,74.2249926 402.500011,73.49 400.34,73.49 C398.059989,73.49 396.530004,74.1949929 395.75,75.605 C394.969996,77.0150071 394.58,78.919988 394.58,81.32 L394.58,96.62 L384.95,96.62 L384.95,65.84 Z M369.38,96.62 L369.38,65.84 L379.01,65.84 L379.01,96.62 L369.38,96.62 Z M472.405,85.145 C470.33499,82.2349855 469.3,79.1000168 469.3,75.74 L469.39,74.48 C469.39,71.5999856 470.199992,68.8700129 471.82,66.29 C473.440008,63.7099871 475.569987,61.6850074 478.21,60.215 C480.850013,58.7449927 483.609986,58.0399997 486.49,58.1 C490.330019,57.9199991 494.169981,59.329985 498.01,62.33 C496.389992,64.130009 494.920007,65.6599937 493.6,66.92 C491.199988,65.2999919 488.740013,64.49 486.22,64.49 C483.879988,64.49 481.900008,65.1799931 480.28,66.56 C478.899993,67.5200048 477.835004,68.7799922 477.085,70.34 C476.334996,71.9000078 475.96,73.579991 475.96,75.38 C475.96,77.0000081 476.289997,78.5449926 476.95,80.015 C477.610003,81.4850073 478.539994,82.6999952 479.74,83.66 C481.600009,85.3400084 483.849987,86.18 486.49,86.18 C488.830012,86.18 490.944991,85.5200066 492.835,84.2 C494.725009,82.8799934 495.909998,81.0800114 496.39,78.8 C492.009978,78.8 488.710011,78.7700003 486.49,78.71 L486.49,72.86 L502.96,72.86 L503.05,74.93 C503.05,79.4900228 501.970011,83.2399853 499.81,86.18 C498.369993,88.2200102 496.480012,89.7799946 494.14,90.86 C491.799988,91.9400054 489.310013,92.48 486.67,92.48 C484.329988,92.48 482.20001,92.0900039 480.28,91.31 C477.099984,90.109994 474.47501,88.0550145 472.405,85.145 Z M513.4,77.9 L508.54,77.9 L508.54,73.04 C509.620005,72.9799997 511.239989,72.95 513.4,72.95 L513.49,68.09 L518.35,68.09 L518.35,72.95 C520.570011,72.95 522.219995,72.9799997 523.3,73.04 L523.3,77.9 L518.35,77.9 L518.35,82.85 L513.49,82.85 C513.49,80.6299889 513.46,78.9800054 513.4,77.9 Z M578.76,92.66 C575.999986,91.0399919 573.810008,88.8500138 572.19,86.09 C570.569992,83.3299862 569.76,80.3300162 569.76,77.09 C569.76,73.7899835 570.569992,70.7600138 572.19,68 C573.810008,65.2399862 575.999986,63.0500081 578.76,61.43 C581.520014,59.8099919 584.519984,59 587.76,59 C591.540019,59 594.869986,59.9749903 597.75,61.925 C600.630014,63.8750098 602.849992,66.6199823 604.41,70.16 L605.49,72.59 C608.370014,79.2500333 609.989998,82.9699961 610.35,83.75 C611.310005,86.0300114 612.329995,87.6649951 613.41,88.655 C614.490005,89.645005 616.139989,90.14 618.36,90.14 C620.40001,90.14 622.079993,89.5700057 623.4,88.43 C624.720007,87.2899943 625.38,85.8800084 625.38,84.2 C625.38,82.6999925 624.915005,81.6050034 623.985,80.915 C623.054995,80.2249966 621.420012,79.5200036 619.08,78.8 C615.299981,77.5399937 612.570008,76.1750074 610.89,74.705 C609.209992,73.2349926 608.37,71.1500135 608.37,68.45 C608.37,65.7499865 609.254991,63.5600084 611.025,61.88 C612.795009,60.1999916 615.179985,59.36 618.18,59.36 C622.08002,59.36 624.959991,61.1299823 626.82,64.67 L623.04,66.56 C621.659993,64.6999907 619.98001,63.77 618,63.77 C616.559993,63.77 615.375005,64.2049957 614.445,65.075 C613.514995,65.9450044 613.05,67.0399934 613.05,68.36 C613.05,69.8600075 613.544995,70.9399967 614.535,71.6 C615.525005,72.2600033 616.739993,72.8149978 618.18,73.265 C619.620007,73.7150022 620.579998,74.0299991 621.06,74.21 C624.360017,75.2300051 626.714993,76.4749927 628.125,77.945 C629.535007,79.4150073 630.24,81.5599859 630.24,84.38 C630.24,87.4400153 629.085012,89.9599901 626.775,91.94 C624.464988,93.9200099 621.600017,94.91 618.18,94.91 C615.179985,94.8499997 612.750009,94.1150071 610.89,92.705 C609.029991,91.2949929 607.470006,89.1800141 606.21,86.36 L605.49,84.83 L599.73,71.78 C598.709995,69.4399883 597.120011,67.5500072 594.96,66.11 C592.799989,64.6699928 590.400013,63.95 587.76,63.95 C585.419988,63.95 583.24501,64.5349942 581.235,65.705 C579.22499,66.8750058 577.635006,68.46499 576.465,70.475 C575.294994,72.48501 574.71,74.689988 574.71,77.09 C574.71,79.4300117 575.294994,81.60499 576.465,83.615 C577.635006,85.6250101 579.22499,87.2149941 581.235,88.385 C583.24501,89.5550059 585.419988,90.14 587.76,90.14 C590.280013,90.14 592.57499,89.5100063 594.645,88.25 C596.71501,86.9899937 598.289995,85.2800108 599.37,83.12 L601.71,88.43 C600.029992,90.5300105 597.975012,92.1649942 595.545,93.335 C593.114988,94.5050059 590.520014,95.09 587.76,95.09 C584.519984,95.09 581.520014,94.2800081 578.76,92.66 Z M690.2,102.47 C690.2,100.069988 690.349999,98.0600081 690.65,96.44 C690.890001,94.8799922 691.609994,92.0900201 692.81,88.07 C693.650004,85.3699865 694.309998,83.0600096 694.79,81.14 C695.270002,79.2199904 695.51,77.4500081 695.51,75.83 C695.51,75.1099964 695.330002,73.9700078 694.97,72.41 C694.609998,70.7299916 694.43,69.4100048 694.43,68.45 C694.43,67.849997 694.46,67.4000015 694.52,67.1 C694.760001,65.2399907 695.644992,63.5900072 697.175,62.15 C698.705008,60.7099928 700.279992,59.99 701.9,59.99 C703.700009,59.99 705.019996,60.9799901 705.86,62.96 C706.280002,63.8600045 706.49,64.909994 706.49,66.11 C706.49,67.2500057 706.325002,68.3749945 705.995,69.485 C705.664998,70.5950055 705.200003,71.9899916 704.6,73.67 C703.999997,75.1700075 703.565001,76.3999952 703.295,77.36 C703.024999,78.3200048 702.89,79.2499955 702.89,80.15 C702.89,81.7100078 703.459994,83.0299946 704.6,84.11 C705.080002,84.5300021 705.739996,84.8749987 706.58,85.145 C707.420004,85.4150013 708.289996,85.55 709.19,85.55 C709.550002,85.55 710.029997,85.4900006 710.63,85.37 C713.630015,84.769997 715.984991,82.8200165 717.695,79.52 C719.405009,76.2199835 720.26,72.470021 720.26,68.27 C720.26,65.1499844 719.735005,62.2850131 718.685,59.675 C717.634995,57.064987 716.15001,55.1900057 714.23,54.05 C711.409986,52.3699916 708.470015,51.53 705.41,51.53 C702.289984,51.53 699.335014,52.3699916 696.545,54.05 C693.754986,55.7300084 691.520008,57.9499862 689.84,60.71 C688.159992,63.4700138 687.32,66.3799847 687.32,69.44 C687.32,70.1600036 687.35,70.6999982 687.41,71.06 C687.530001,72.2000057 688.069995,73.669991 689.03,75.47 C689.930005,77.1500084 690.38,78.4399955 690.38,79.34 C690.38,80.4800057 689.810006,81.6199943 688.67,82.76 C685.609985,81.559994 683.435006,79.8350113 682.145,77.585 C680.854994,75.3349888 680.21,72.3800183 680.21,68.72 C680.27,64.2199775 681.484988,60.2300174 683.855,56.75 C686.225012,53.2699826 689.37498,50.5700096 693.305,48.65 C697.23502,46.7299904 701.509977,45.77 706.13,45.77 C706.970004,45.77 708.169992,45.8299994 709.73,45.95 C713.030017,46.3100018 716.104986,47.3599913 718.955,49.1 C721.805014,50.8400087 724.144991,53.0449866 725.975,55.715 C727.805009,58.3850134 728.869999,61.219985 729.17,64.22 C729.290001,65.420006 729.35,66.3799964 729.35,67.1 C729.35,71.0600198 728.645007,74.9299811 727.235,78.71 C725.824993,82.4900189 723.860013,85.4599892 721.34,87.62 C720.019993,88.7600057 718.265011,89.7199961 716.075,90.5 C713.884989,91.2800039 711.710011,91.67 709.55,91.67 C706.729986,91.67 704.420009,90.9800069 702.62,89.6 C702.499999,89.4799994 702.305001,89.2100021 702.035,88.79 C701.764999,88.3699979 701.525001,88.0850008 701.315,87.935 C701.104999,87.7849992 700.880001,87.7999991 700.64,87.98 C699.739996,91.8800195 698.810005,95.3599847 697.85,98.42 C696.889995,101.480015 695.750007,104.089989 694.43,106.25 L690.47,106.25 C690.289999,105.289995 690.2,104.030008 690.2,102.47 Z M805.69,100.49 C804.069992,100.49 802.555007,99.890006 801.145,98.69 C799.734993,97.489994 798.670004,96.1400075 797.95,94.64 C797.409997,93.5599946 795.970012,89.2100381 793.63,81.59 C792.669995,78.4099841 791.725005,75.3950143 790.795,72.545 C789.864995,69.6949858 789.220002,68.0600021 788.86,67.64 C788.8,67.5799997 788.665001,67.4900006 788.455,67.37 C788.244999,67.2499994 787.930002,67.19 787.51,67.19 C786.249994,67.19 784.690009,67.9399925 782.83,69.44 L780.67,66.56 C783.370014,63.3199838 785.904988,60.800009 788.275,59 C790.645012,57.199991 792.639992,55.9400036 794.26,55.22 C795.880008,54.4999964 796.69,54.1999994 796.69,54.32 C796.930001,54.2599997 797.289998,54.23 797.77,54.23 C799.870011,54.23 801.384995,55.3549888 802.315,57.605 C803.245005,59.8550113 804.069996,63.1099787 804.79,67.37 C805.030001,69.2300093 805.359998,70.9999916 805.78,72.68 C806.740005,76.4600189 807.534997,79.1899916 808.165,80.87 C808.795003,82.5500084 809.439997,83.39 810.1,83.39 C810.820004,83.39 811.839993,82.5350086 813.16,80.825 C814.480007,79.1149915 815.949992,76.760015 817.57,73.76 C818.410004,72.1999922 818.83,70.7600066 818.83,69.44 C818.83,68.1799937 818.485003,67.1600039 817.795,66.38 C817.104997,65.5999961 816.190006,65.21 815.05,65.21 C813.969995,65.21 812.740007,65.5999961 811.36,66.38 C811.780002,63.8599874 812.754992,61.6550095 814.285,59.765 C815.815008,57.8749906 817.62999,56.4200051 819.73,55.4 C821.830011,54.3799949 823.89999,53.87 825.94,53.87 C828.340012,53.87 830.304992,54.5749929 831.835,55.985 C833.365008,57.3950071 834.13,59.4799862 834.13,62.24 C834.13,63.0800042 834.040001,64.0099949 833.86,65.03 C832.959996,70.1300255 830.950016,75.0499763 827.83,79.79 C824.709984,84.5300237 821.410017,88.5949831 817.93,91.985 C814.449983,95.375017 811.540012,97.8499922 809.2,99.41 C808.179995,100.130004 807.010007,100.49 805.69,100.49 Z M886.98,94.37 C887.580003,94.4900006 888.479994,94.55 889.68,94.55 C892.260013,94.55 894.734988,94.1300042 897.105,93.29 C899.475012,92.4499958 901.61999,91.2800075 903.54,89.78 C901.139988,89.78 898.98001,89.0600072 897.06,87.62 C895.13999,86.1799928 893.820004,84.3200114 893.1,82.04 C894.060005,82.1600006 894.749998,82.22 895.17,82.22 C896.430006,82.22 897.419996,82.0700015 898.14,81.77 C895.559987,81.2899976 893.430008,80.0150103 891.75,77.945 C890.069992,75.8749897 889.23,73.4600138 889.23,70.7 C890.790008,71.6000045 892.469991,72.0799997 894.27,72.14 C892.709992,71.1199949 891.495004,69.7850083 890.625,68.135 C889.754996,66.4849918 889.32,64.7000096 889.32,62.78 C889.32,60.7399898 889.799995,58.8500087 890.76,57.11 C893.580014,60.5300171 896.99998,63.2749896 901.02,65.345 C905.04002,67.4150104 909.329977,68.5699988 913.89,68.81 C913.709999,67.9699958 913.62,67.1300042 913.62,66.29 C913.62,64.2499898 914.129995,62.3750086 915.15,60.665 C916.170005,58.9549915 917.534991,57.5900051 919.245,56.57 C920.955009,55.5499949 922.79999,55.04 924.78,55.04 C926.400008,55.04 927.914993,55.3549968 929.325,55.985 C930.735007,56.6150031 931.949995,57.4699946 932.97,58.55 C935.610013,58.0699976 938.009989,57.1700066 940.17,55.85 C939.209995,58.5500135 937.560012,60.6199928 935.22,62.06 C937.440011,61.8199988 939.56999,61.2200048 941.61,60.26 C940.169993,62.6000117 938.310011,64.5499922 936.03,66.11 L936.12,67.55 C936.12,72.7100258 934.845013,77.7499754 932.295,82.67 C929.744987,87.5900246 926.055024,91.6249842 921.225,94.775 C916.394976,97.9250158 910.710033,99.5 904.17,99.5 C897.929969,99.5 892.200026,97.7900171 886.98,94.37 Z M1035.95,95.72 C1035.29,95.5399991 1034.72,95.3000015 1034.24,95 L1033.61,94.64 C1032.52999,93.7399955 1031.78,93.0200027 1031.36,92.48 C1031.12,92.2399988 1030.37001,91.4000072 1029.11,89.96 C1028.51,89.2999967 1027.82,88.670003 1027.04,88.07 C1026.32,87.5299973 1025.72,87.3499991 1025.24,87.53 L1024.97,87.62 L1024.43,88.16 C1024.07,88.5200018 1023.83,88.8499985 1023.71,89.15 C1023.47,89.5100018 1023.29,90.0499964 1023.17,90.77 C1022.99,91.5500039 1022.9,92.4199952 1022.9,93.38 C1022.9,93.8000021 1022.87,94.0999991 1022.81,94.28 L1022.45,95 C1021.97,95.4800024 1021.37,95.72 1020.65,95.72 L1016.96,95.72 C1015.39999,95.7800003 1013.78001,95.6000021 1012.1,95.18 C1010.35999,94.6999976 1008.92001,94.1300033 1007.78,93.47 C1006.21999,92.5099952 1005.11,91.7900024 1004.45,91.31 C1003.36999,90.5299961 1002.59,89.9000024 1002.11,89.42 L1001.3,88.61 L1000.4,87.62 L998.06,84.65 C996.739993,82.9699916 995.570005,81.3200081 994.55,79.7 C993.409994,77.8399907 992.090008,75.5300138 990.59,72.77 C989.089993,69.8899856 987.650007,66.9200153 986.27,63.86 C986.149999,63.3799976 986.09,63.0800006 986.09,62.96 C986.09,62.7199988 986.12,62.5400006 986.18,62.42 L986.36,62.24 C986.660002,61.8199979 987.259996,61.61 988.16,61.61 L997.16,61.61 C997.340001,61.61 997.609998,61.6699994 997.97,61.79 L998.42,62.06 L998.6,62.15 C998.960002,62.3900012 999.229999,62.7499976 999.41,63.23 C1000.01,64.6700072 1000.52,65.7799961 1000.94,66.56 L1002.29,69.26 L1002.74,70.25 C1003.04,70.7900027 1003.34,71.3449972 1003.64,71.915 C1003.94,72.4850029 1004.27,73.069997 1004.63,73.67 C1005.29,74.6900051 1005.83,75.4399976 1006.25,75.92 C1006.55,76.2800018 1007,76.6999976 1007.6,77.18 C1008.08,77.4800015 1008.44,77.63 1008.68,77.63 C1008.92,77.63 1009.22,77.5700006 1009.58,77.45 L1009.76,77.27 L1010.12,76.55 C1010.36,76.1299979 1010.51,75.620003 1010.57,75.02 L1010.84,72.32 C1010.96,71.5999964 1011.02,71.0000024 1011.02,70.52 C1011.02,70.0999979 1010.96,69.3500054 1010.84,68.27 C1010.84,67.3699955 1010.75,66.5600036 1010.57,65.84 C1010.51,65.239997 1010.36,64.7600018 1010.12,64.4 L1009.94,63.95 C1009.4,63.2299964 1008.47001,62.7500012 1007.15,62.51 C1007.03,62.51 1006.97,62.4500006 1006.97,62.33 C1006.97,62.2099994 1007.09,62.0300012 1007.33,61.79 C1007.69,61.3099976 1008.11,60.9800009 1008.59,60.8 C1009.49,60.2599973 1012.09998,59.99 1016.42,59.99 C1018.04001,59.99 1019.50999,60.1399985 1020.83,60.44 C1021.19,60.5000003 1021.55,60.6499988 1021.91,60.89 C1022.21,61.0700009 1022.45,61.3099985 1022.63,61.61 C1022.69,61.7300006 1022.75,61.8799991 1022.81,62.06 C1022.87,62.2400009 1022.9,62.4499988 1022.9,62.69 C1023.02,63.1700024 1023.08,63.6799973 1023.08,64.22 C1023.08,65.0000039 1023.05,65.5999979 1022.99,66.02 C1022.99,66.9200045 1022.96,67.669997 1022.9,68.27 L1022.9,72.41 C1022.84,72.8300021 1022.81,73.339997 1022.81,73.94 C1022.81,74.1200009 1022.87,74.5699964 1022.99,75.29 C1022.99,75.7700024 1023.11,76.1899982 1023.35,76.55 C1023.53,76.9100018 1023.77,77.1799991 1024.07,77.36 L1024.61,77.54 C1024.91,77.54 1025.21,77.4200012 1025.51,77.18 C1025.69,77.0599994 1025.885,76.8950011 1026.095,76.685 L1026.77,76.01 C1027.25,75.5299976 1027.79,74.8100048 1028.39,73.85 C1029.05,72.9499955 1029.8,71.7500075 1030.64,70.25 C1032.20001,67.4899862 1033.37,65.0300108 1034.15,62.87 C1034.27,62.6299988 1034.39,62.4500006 1034.51,62.33 L1034.96,61.88 L1035.14,61.79 L1035.59,61.7 C1035.89,61.5799994 1036.1,61.5799994 1036.22,61.7 L1045.67,61.61 L1046.66,61.52 C1046.96,61.52 1047.35,61.5799994 1047.83,61.7 C1048.31,61.8800009 1048.64,62.0599991 1048.82,62.24 L1049,62.6 C1049.54,63.9200066 1047.89002,67.1299745 1044.05,72.23 L1041.98,75.02 C1041.68,75.5000024 1041.23,76.0999964 1040.63,76.82 C1039.60999,78.1400066 1039.07,78.9799982 1039.01,79.34 C1038.89,79.8200024 1038.83,80.1499991 1038.83,80.33 C1038.83,80.930003 1039.04,81.4699976 1039.46,81.95 C1039.7,82.2500015 1040.56999,83.1499925 1042.07,84.65 L1042.16,84.65 L1042.25,84.74 L1042.25,84.83 C1045.31002,87.5300135 1047.40999,89.9299895 1048.55,92.03 C1048.61,92.0900003 1048.64,92.1649996 1048.64,92.255 C1048.64,92.3450005 1048.67,92.4199997 1048.73,92.48 L1049,93.29 C1049.06,93.7100021 1049.06,94.0999982 1049,94.46 C1048.88,94.8200018 1048.61,95.1199988 1048.19,95.36 C1047.71,95.6000012 1047.05,95.72 1046.21,95.72 L1037.84,95.9 L1037.39,95.9 C1036.79,95.9 1036.31,95.8400006 1035.95,95.72 Z M1115.71,76.01 L1107.79,76.01 L1107.79,66.74 L1115.71,66.74 L1115.71,59.99 C1115.71,56.1499808 1116.78999,53.1650106 1118.95,51.035 C1121.11001,48.9049894 1123.98998,47.84 1127.59,47.84 C1130.11001,47.84 1132.44999,47.9599988 1134.61,48.2 L1134.61,56.39 L1129.75,56.39 C1128.00999,56.39 1126.825,56.7649962 1126.195,57.515 C1125.565,58.2650038 1125.25,59.3899925 1125.25,60.89 L1125.25,66.74 L1134.34,66.74 L1133.17,76.01 L1125.25,76.01 L1125.25,102.92 L1115.71,102.92 L1115.71,76.01 Z" id="R-o-c-i-+-l-p-v-t-k"></path>
        </g>
    </g>
</svg>
