<svg height="99" viewBox="0 0 1736 99" width="1736" xmlns="http://www.w3.org/2000/svg"><path d="m245.568 1461.672c7.296 0 14.064-1.272 20.304-3.816s11.184-6 14.832-10.368 5.472-9.144 5.472-14.328c0-1.536-.048-2.688-.144-3.456 2.016-.96 3.672-2.376 4.968-4.248s1.944-3.912 1.944-6.12c0-3.168-1.152-5.856-3.456-8.064s-5.088-3.312-8.352-3.312c-3.456 0-6.336 1.248-8.64 3.744-7.104-4.32-15.264-6.72-24.48-7.2l3.312-18 11.088 3.456-.144 1.44c0 2.976 1.056 5.544 3.168 7.704s4.656 3.24 7.632 3.24 5.52-1.08 7.632-3.24 3.168-4.728 3.168-7.704-1.056-5.52-3.168-7.632-4.656-3.168-7.632-3.168c-2.112 0-3.984.504-5.616 1.512s-2.88 2.376-3.744 4.104l-13.392-4.176c-.48-.288-1.056-.24-1.728.144-.384.192-.672.672-.864 1.44l-3.888 20.88c-9.312.288-17.472 2.496-24.48 6.624-2.304-2.112-5.04-3.168-8.208-3.168-3.264 0-6.048 1.104-8.352 3.312s-3.456 4.896-3.456 8.064c0 2.016.528 3.888 1.584 5.616s2.448 3.072 4.176 4.032c-.288 1.248-.432 2.64-.432 4.176 0 5.184 1.824 9.96 5.472 14.328s8.616 7.824 14.904 10.368 13.128 3.816 20.52 3.816zm-14.256-34.128c-1.44 0-2.664-.504-3.672-1.512s-1.512-2.28-1.512-3.816c0-1.44.504-2.664 1.512-3.672s2.232-1.512 3.672-1.512 2.688.504 3.744 1.512 1.584 2.232 1.584 3.672c0 1.536-.528 2.808-1.584 3.816s-2.304 1.512-3.744 1.512zm29.376 0c-1.44 0-2.664-.504-3.672-1.512s-1.512-2.28-1.512-3.816c0-1.44.504-2.664 1.512-3.672s2.232-1.512 3.672-1.512 2.688.504 3.744 1.512 1.584 2.232 1.584 3.672c0 1.536-.528 2.808-1.584 3.816s-2.304 1.512-3.744 1.512zm-14.832 18.144c-3.456 0-6.768-.48-9.936-1.44-2.88-.672-5.28-1.92-7.2-3.744-.384-.384-.576-.864-.576-1.44 0-.768.192-1.344.576-1.728.48-.48 1.056-.72 1.728-.72.768 0 1.344.24 1.728.72.864 1.056 2.496 1.92 4.896 2.592 3.264.768 6.192 1.152 8.784 1.152 2.496 0 5.376-.384 8.64-1.152 2.496-.768 4.224-1.632 5.184-2.592.384-.48.912-.72 1.584-.72s1.2.24 1.584.72c.48.384.72.912.72 1.584s-.24 1.2-.72 1.584c-1.632 1.728-3.984 2.976-7.056 3.744-3.168.96-6.48 1.44-9.936 1.44zm167.184 24.192c8.832 0 16.968-2.184 24.408-6.552s13.344-10.248 17.712-17.64 6.552-15.504 6.552-24.336-2.184-16.968-6.552-24.408-10.272-13.344-17.712-17.712-15.576-6.552-24.408-6.552-16.968 2.184-24.408 6.552-13.344 10.272-17.712 17.712-6.552 15.576-6.552 24.408 2.184 16.944 6.552 24.336 10.272 13.272 17.712 17.64 15.576 6.552 24.408 6.552zm5.76-63.216c-4.896-9.024-10.32-17.184-16.272-24.48 3.84-.96 7.344-1.44 10.512-1.44 5.28 0 10.368 1.008 15.264 3.024s9.216 4.848 12.96 8.496c-7.296 6.144-14.784 10.944-22.464 14.4zm-40.752 8.64c-1.344 0-3.072-.096-5.184-.288 1.056-6.336 3.48-12.12 7.272-17.352s8.568-9.336 14.328-12.312c6.144 7.2 11.664 15.264 16.56 24.192-10.944 3.84-21.936 5.76-32.976 5.76zm75.6 5.904c-5.376-1.344-10.512-2.016-15.408-2.016-4.416 0-8.832.432-13.248 1.296-.768-1.92-1.248-3.12-1.44-3.6l-1.296-3.024c8.64-3.936 16.704-9.072 24.192-15.408 4.608 6.816 7.008 14.4 7.2 22.752zm-70.272 27.648c-3.264-3.552-5.832-7.512-7.704-11.88s-2.904-8.952-3.096-13.752c1.344.096 3.216.144 5.616.144 12.864 0 25.056-2.112 36.576-6.336.288.768.648 1.632 1.08 2.592s.84 2.016 1.224 3.168c-6.816 2.304-13.104 5.688-18.864 10.152s-10.704 9.768-14.832 15.912zm50.256 7.344c-1.248-10.176-3.216-19.488-5.904-27.936 4.224-.672 7.728-1.008 10.512-1.008 4.608 0 9.456.672 14.544 2.016-1.056 5.664-3.264 10.824-6.624 15.48s-7.536 8.472-12.528 11.448zm-20.592 5.616c-8.544 0-16.416-2.496-23.616-7.488 3.552-5.664 7.944-10.536 13.176-14.616s10.968-7.176 17.208-9.288c3.072 9.6 5.04 19.392 5.904 29.376-4.32 1.344-8.544 2.016-12.672 2.016zm167.04 1.872c.672 0 1.344-.24 2.016-.72l38.88-25.92h.216c.048 0 .072-.048.072-.144.096 0 .144-.024.144-.072v-.072c.096 0 .144-.024.144-.072v-.072l.288-.144c0-.096.048-.144.144-.144l.144-.288v-.144l.144-.288.144-.144v-.288c.096 0 .144-.024.144-.072v-.36c0-.096.048-.144.144-.144v-26.928c-.096 0-.144-.024-.144-.072v-.36l-.144-.288v-.144l-.144-.288v-.072c0-.048-.048-.072-.144-.072v-.288c-.096 0-.144-.024-.144-.072v-.072c-.096 0-.144-.024-.144-.072v-.072l-.576-.576h-.072c-.048 0-.072-.048-.072-.144h-.144l-38.88-25.92c-.672-.48-1.344-.72-2.016-.72-.576 0-1.248.24-2.016.72l-38.88 25.92-.144.144-.288.144c0 .096-.024.144-.072.144h-.072l-.144.288c-.096 0-.144.024-.144.072v.072l-.144.144-.144.288v.072c0 .048-.048.072-.144.072v.288c-.096 0-.144.024-.144.072v.36c-.096 0-.144.096-.144.288v27.216l.144.288v.144l.144.288v.144l.144.288.144.144.144.288.432.432.288.144c0 .096.048.144.144.144l38.88 25.92c.672.48 1.344.72 2.016.72zm-19.44-46.944-12.816-8.64 28.656-19.008v16.992zm39.024 0-15.84-10.656v-16.992l28.656 19.008zm-19.584 12.96-12.96-8.64 12.96-8.64 12.96 8.64zm-35.136-2.448v-12.24l9.072 6.048zm70.416 0-9.216-6.192 9.216-6.048zm-38.88 25.92-28.656-19.152 12.816-8.496 15.84 10.512zm7.344 0v-17.136l15.84-10.512 12.816 8.496zm136.656-54c2.496 0 4.608-.888 6.336-2.664s2.592-3.864 2.592-6.264-.864-4.464-2.592-6.192-3.84-2.592-6.336-2.592c-2.4 0-4.464.84-6.192 2.52s-2.592 3.768-2.592 6.264.864 4.608 2.592 6.336 3.792 2.592 6.192 2.592zm32.688 56.016v-24.48c0-3.84.624-6.888 1.872-9.144s3.696-3.384 7.344-3.384c3.456 0 5.64 1.176 6.552 3.528s1.368 5.496 1.368 9.432v24.048h15.408v-27.072c0-7.584-1.272-13.392-3.816-17.424s-7.416-6.048-14.616-6.048c-3.456 0-6.456.768-9 2.304s-4.392 3.408-5.544 5.616h-.288v-6.624h-14.688v49.248zm-24.912 0v-49.248h-15.408v49.248zm171.936-6.624c4.224 0 8.208-.864 11.952-2.592s6.768-4.224 9.072-7.488c3.456-4.704 5.184-10.704 5.184-18l-.144-3.312h-26.352v9.36c3.322839.08981 8.157902.13761 14.50519.1434l1.33481.0006c-.768 3.648-2.664 6.528-5.688 8.64s-6.408 3.168-10.152 3.168c-4.224 0-7.824-1.344-10.8-4.032-1.92-1.536-3.408-3.48-4.464-5.832s-1.584-4.824-1.584-7.416c0-2.88.6-5.568 1.8-8.064s2.904-4.512 5.112-6.048c2.592-2.208 5.76-3.312 9.504-3.312 4.032 0 7.968 1.296 11.808 3.888 2.112-2.016 4.464-4.464 7.056-7.344-6.144-4.8-12.288-7.056-18.432-6.768-4.608-.096-9.024 1.032-13.248 3.384s-7.632 5.592-10.224 9.72-3.888 8.496-3.888 13.104l-.144 2.016c0 5.376 1.656 10.392 4.968 15.048s7.512 7.944 12.6 9.864c3.072 1.248 6.48 1.872 10.224 1.872zm50.688-15.408v-7.92h7.92v-7.776c-1.728-.096-4.368-.144-7.92-.144v-7.776h-7.776l-.144 7.776c-3.456 0-6.048.048-7.776.144v7.776h7.776c.096 1.728.144 4.368.144 7.92zm110.736 19.584c4.416 0 8.568-.936 12.456-2.808s7.176-4.488 9.864-7.848l-3.744-8.496c-1.728 3.456-4.248 6.192-7.56 8.208s-6.984 3.024-11.016 3.024c-3.744 0-7.224-.936-10.44-2.808s-5.76-4.416-7.632-7.632-2.808-6.696-2.808-10.44c0-3.84.936-7.368 2.808-10.584s4.416-5.76 7.632-7.632 6.696-2.808 10.44-2.808c4.224 0 8.064 1.152 11.52 3.456s6 5.328 7.632 9.072l9.216 20.88 1.152 2.448c2.016 4.512 4.512 7.896 7.488 10.152s6.864 3.432 11.664 3.528c5.472 0 10.056-1.584 13.752-4.752s5.544-7.2 5.544-12.096c0-4.512-1.128-7.944-3.384-10.296s-6.024-4.344-11.304-5.976c-.768-.288-2.304-.792-4.608-1.512s-4.248-1.608-5.832-2.664-2.376-2.784-2.376-5.184c0-2.112.744-3.864 2.232-5.256s3.384-2.088 5.688-2.088c3.168 0 5.856 1.488 8.064 4.464l6.048-3.024c-2.976-5.664-7.584-8.496-13.824-8.496-4.8 0-8.616 1.344-11.448 4.032s-4.248 6.192-4.248 10.512 1.344 7.656 4.032 10.008 7.056 4.536 13.104 6.552c3.744 1.152 6.36 2.28 7.848 3.384s2.232 2.856 2.232 5.256c0 2.688-1.056 4.944-3.168 6.768s-4.8 2.736-8.064 2.736c-3.552 0-6.192-.792-7.92-2.376s-3.36-4.2-4.896-7.848c-.576-1.248-3.168-7.2-7.776-17.856l-1.728-3.888c-2.496-5.664-6.048-10.056-10.656-13.176s-9.936-4.68-15.984-4.68c-5.184 0-9.984 1.296-14.4 3.888s-7.92 6.096-10.512 10.512-3.888 9.264-3.888 14.544c0 5.184 1.296 9.984 3.888 14.4s6.096 7.92 10.512 10.512 9.216 3.888 14.4 3.888zm170.352 17.856c2.112-3.456 3.936-7.632 5.472-12.528s3.024-10.464 4.464-16.704c.384-.288.744-.312 1.08-.072s.72.696 1.152 1.368.744 1.104.936 1.296c2.88 2.208 6.576 3.312 11.088 3.312 3.456 0 6.936-.624 10.44-1.872s6.312-2.784 8.424-4.608c4.032-3.456 7.176-8.208 9.432-14.256s3.384-12.24 3.384-18.576c0-1.152-.096-2.688-.288-4.608-.48-4.8-2.184-9.336-5.112-13.608s-6.672-7.8-11.232-10.584-9.48-4.464-14.76-5.04c-2.496-.192-4.416-.288-5.76-.288-7.392 0-14.232 1.536-20.52 4.608s-11.328 7.392-15.12 12.96-5.736 11.952-5.832 19.152c0 5.856 1.032 10.584 3.096 14.184s5.544 6.36 10.44 8.28c1.824-1.824 2.736-3.648 2.736-5.472 0-1.44-.72-3.504-2.16-6.192-1.536-2.88-2.4-5.232-2.592-7.056-.096-.576-.144-1.44-.144-2.592 0-4.896 1.344-9.552 4.032-13.968s6.264-7.968 10.728-10.656 9.192-4.032 14.184-4.032c4.896 0 9.6 1.344 14.112 4.032 3.072 1.824 5.448 4.824 7.128 9s2.52 8.76 2.52 13.752c0 6.72-1.368 12.72-4.104 18s-6.504 8.4-11.304 9.36c-.96.192-1.728.288-2.304.288-1.44 0-2.832-.216-4.176-.648s-2.4-.984-3.168-1.656c-1.824-1.728-2.736-3.84-2.736-6.336 0-1.44.216-2.928.648-4.464s1.128-3.504 2.088-5.904c.96-2.688 1.704-4.92 2.232-6.696s.792-3.576.792-5.4c0-1.92-.336-3.6-1.008-5.04-1.344-3.168-3.456-4.752-6.336-4.752-2.592 0-5.112 1.152-7.56 3.456s-3.864 4.944-4.248 7.92c-.096.48-.144 1.2-.144 2.16 0 1.536.288 3.648.864 6.336.576 2.496.864 4.32.864 5.472 0 2.592-.384 5.424-1.152 8.496s-1.824 6.768-3.168 11.088c-1.92 6.432-3.072 10.896-3.456 13.392-.48 2.592-.72 5.808-.72 9.648 0 2.496.144 4.512.432 6.048zm177.696-9.216c2.112 0 3.984-.576 5.616-1.728 3.744-2.496 8.4-6.456 13.968-11.88s10.848-11.928 15.84-19.512 8.208-15.456 9.648-23.616c.288-1.632.432-3.12.432-4.464 0-4.416-1.224-7.752-3.672-10.008s-5.592-3.384-9.432-3.384c-3.264 0-6.576.816-9.936 2.448s-6.264 3.96-8.712 6.984-4.008 6.552-4.68 10.584c2.208-1.248 4.176-1.872 5.904-1.872 1.824 0 3.288.624 4.392 1.872s1.656 2.88 1.656 4.896c0 2.112-.672 4.416-2.016 6.912-2.592 4.8-4.944 8.568-7.056 11.304s-3.744 4.104-4.896 4.104c-1.056 0-2.088-1.344-3.096-4.032s-2.28-7.056-3.816-13.104c-.672-2.688-1.2-5.52-1.584-8.496-1.152-6.816-2.472-12.024-3.96-15.624s-3.912-5.4-7.272-5.4c-.768 0-1.344.048-1.728.144 0-.192-1.296.288-3.888 1.44s-5.784 3.168-9.576 6.048-7.848 6.912-12.168 12.096l3.456 4.608c2.976-2.4 5.472-3.6 7.488-3.6.672 0 1.176.096 1.512.288s.552.336.648.432c.576.672 1.608 3.288 3.096 7.848s3 9.384 4.536 14.472c3.744 12.192 6.048 19.152 6.912 20.88 1.152 2.4 2.856 4.56 5.112 6.48s4.68 2.88 7.272 2.88zm157.248-1.584c10.464 0 19.56-2.52 27.288-7.56s13.632-11.496 17.712-19.368 6.12-15.936 6.12-24.192l-.144-2.304c3.648-2.496 6.624-5.616 8.928-9.36-3.264 1.536-6.672 2.496-10.224 2.88 3.744-2.304 6.384-5.616 7.92-9.936-3.456 2.112-7.296 3.552-11.52 4.32-1.632-1.728-3.576-3.096-5.832-4.104s-4.68-1.512-7.272-1.512c-3.168 0-6.12.816-8.856 2.448s-4.92 3.816-6.552 6.552-2.448 5.736-2.448 9c0 1.344.144 2.688.432 4.032-7.296-.384-14.16-2.232-20.592-5.544s-11.904-7.704-16.416-13.176c-1.536 2.784-2.304 5.808-2.304 9.072 0 3.072.696 5.928 2.088 8.568s3.336 4.776 5.832 6.408c-2.88-.096-5.568-.864-8.064-2.304 0 4.416 1.344 8.28 4.032 11.592s6.096 5.352 10.224 6.12c-1.152.48-2.736.72-4.752.72-.672 0-1.776-.096-3.312-.288 1.152 3.648 3.264 6.624 6.336 8.928s6.528 3.456 10.368 3.456c-3.072 2.4-6.504 4.272-10.296 5.616s-7.752 2.016-11.88 2.016c-1.92 0-3.36-.096-4.32-.288 8.352 5.472 17.52 8.208 27.504 8.208zm213.552-5.76 13.392-.288c1.344 0 2.4-.192 3.168-.576.672-.384 1.104-.864 1.296-1.44.096-.576.096-1.2 0-1.872l-.432-1.296c-.096-.096-.144-.216-.144-.36s-.048-.264-.144-.36c-1.824-3.36-5.184-7.2-10.08-11.52v-.144l-.144-.144h-.144c-2.4-2.4-3.792-3.84-4.176-4.32-.672-.768-1.008-1.632-1.008-2.592 0-.288.096-.816.288-1.584.096-.576.96-1.92 2.592-4.032.96-1.152 1.68-2.112 2.16-2.88l3.312-4.464c6.144-8.16 8.784-13.296 7.92-15.408l-.288-.576c-.288-.288-.816-.576-1.584-.864-.768-.192-1.392-.288-1.872-.288l-1.584.144-15.12.144c-.192-.192-.528-.192-1.008 0l-.72.144-.288.144-.144.144c-.2304.2304-.39168.39168-.48384.48384l-.09216.09216c-.192.192-.384.48-.576.864-1.248 3.456-3.12 7.392-5.616 11.808-1.344 2.4-2.544 4.32-3.6 5.76-.96 1.536-1.824 2.688-2.592 3.456-.096.096-.1905.1905-.2835.2835l-.7965.7965c-.336.336-.648.6-.936.792-.48.384-.96.576-1.44.576l-.864-.288c-.48-.288-.864-.72-1.152-1.296-.384-.576-.576-1.248-.576-2.016-.192-1.152-.288-1.872-.288-2.16 0-.96.048-1.776.144-2.448v-6.624c.096-.96.144-2.16.144-3.6.096-.672.144-1.632.144-2.88 0-.864-.096-1.68-.288-2.448 0-.384-.048-.72-.144-1.008s-.192-.528-.288-.72c-.288-.48-.672-.864-1.152-1.152-.576-.384-1.152-.624-1.728-.72-2.112-.48-4.464-.72-7.056-.72-6.912 0-11.088.432-12.528 1.296-.768.288-1.44.816-2.016 1.584-.384.384-.576.672-.576.864s.096.288.288.288c2.112.384 3.6 1.152 4.464 2.304l.288.72c.384.576.624 1.344.72 2.304.288 1.152.432 2.448.432 3.888.192 1.728.288 2.928.288 3.6 0 .768-.096 1.728-.288 2.88l-.432 4.32c-.096.96-.336 1.776-.72 2.448l-.576 1.152-.288.288c-.576.192-1.056.288-1.44.288s-.96-.24-1.728-.72c-.96-.768-1.68-1.44-2.16-2.016-.672-.768-1.536-1.968-2.592-3.6-.576-.96-1.104-1.896-1.584-2.808s-.96-1.8-1.44-2.664l-.72-1.584-2.16-4.32c-.672-1.248-1.488-3.024-2.448-5.328-.288-.768-.72-1.344-1.296-1.728l-.288-.144-.72-.432c-.576-.192-1.008-.288-1.296-.288h-14.4c-1.44 0-2.4.336-2.88 1.008l-.288.288c-.096.192-.144.48-.144.864 0 .192.096.672.288 1.44 2.208 4.896 4.512 9.648 6.912 14.256 2.4 4.416 4.512 8.112 6.336 11.088 1.632 2.592 3.504 5.232 5.616 7.92l3.744 4.752 1.44 1.584 1.296 1.296c.768.768 2.016 1.776 3.744 3.024 1.056.768 2.832 1.92 5.328 3.456 1.824 1.056 4.128 1.968 6.912 2.736 2.688.672 5.28.96 7.776.864h5.904c1.152 0 2.112-.384 2.88-1.152l.576-1.152c.096-.288.144-.768.144-1.44 0-1.536.144-2.928.432-4.176.192-1.152.48-2.016.864-2.592.192-.48.576-1.008 1.152-1.584l.864-.864.432-.144c.768-.288 1.728 0 2.88.864 1.248.96 2.352 1.968 3.312 3.024 2.016 2.304 3.216 3.648 3.6 4.032.672.864 1.872 2.016 3.6 3.456l1.008.576c.768.48 1.68.864 2.736 1.152.576.192 1.344.288 2.304.288zm139.536 11.232v-43.056h12.672l1.872-14.832h-14.544v-9.36c0-2.4.504-4.2 1.512-5.4s2.904-1.8 5.688-1.8h7.776v-13.104c-3.456-.384-7.2-.576-11.232-.576-5.76 0-10.368 1.704-13.824 5.112s-5.184 8.184-5.184 14.328v10.8h-12.672v14.832h12.672v43.056z" fill="#fff" transform="translate(-199 -1372)"/></svg>