<?xml version="1.0" encoding="UTF-8"?>
<svg width="1736px" height="99px" viewBox="0 0 1736 99" version="1.1" xmlns="http://www.w3.org/2000/svg" xmlns:xlink="http://www.w3.org/1999/xlink">
    <title>flist-sni</title>
    <g id="Page-1" stroke="none" stroke-width="1" fill="none" fill-rule="evenodd">
        <g id="Artboard-Copy-3" transform="translate(-199.000000, -1321.000000)" fill="#FFFFFF" fill-rule="nonzero">
            <path d="M245.568,1410.672 C252.864,1410.672 259.632,1409.4 265.872,1406.856 C272.112,1404.312 277.056,1400.856 280.704,1396.488 C284.352,1392.12 286.176,1387.344 286.176,1382.16 C286.176,1380.624 286.128,1379.472 286.032,1378.704 C288.048,1377.744 289.704,1376.328 291,1374.456 C292.296,1372.584 292.944,1370.544 292.944,1368.336 C292.944,1365.168 291.792,1362.48 289.488,1360.272 C287.184,1358.064 284.4,1356.96 281.136,1356.96 C277.68,1356.96 274.8,1358.208 272.496,1360.704 C265.392,1356.384 257.232,1353.984 248.016,1353.504 L248.016,1353.504 L251.328,1335.504 L262.416,1338.96 L262.272,1340.4 C262.272,1343.376 263.328,1345.944 265.44,1348.104 C267.552,1350.264 270.096,1351.344 273.072,1351.344 C276.048,1351.344 278.592,1350.264 280.704,1348.104 C282.816,1345.944 283.872,1343.376 283.872,1340.4 C283.872,1337.424 282.816,1334.88 280.704,1332.768 C278.592,1330.656 276.048,1329.6 273.072,1329.6 C270.96,1329.6 269.088,1330.104 267.456,1331.112 C265.824,1332.12 264.576,1333.488 263.712,1335.216 L263.712,1335.216 L250.32,1331.04 C249.84,1330.752 249.264,1330.8 248.592,1331.184 C248.208,1331.376 247.92,1331.856 247.728,1332.624 L247.728,1332.624 L243.84,1353.504 C234.528,1353.792 226.368,1356 219.36,1360.128 C217.056,1358.016 214.32,1356.96 211.152,1356.96 C207.888,1356.96 205.104,1358.064 202.8,1360.272 C200.496,1362.48 199.344,1365.168 199.344,1368.336 C199.344,1370.352 199.872,1372.224 200.928,1373.952 C201.984,1375.68 203.376,1377.024 205.104,1377.984 C204.816,1379.232 204.672,1380.624 204.672,1382.16 C204.672,1387.344 206.496,1392.12 210.144,1396.488 C213.792,1400.856 218.76,1404.312 225.048,1406.856 C231.336,1409.4 238.176,1410.672 245.568,1410.672 Z M231.312,1376.544 C229.872,1376.544 228.648,1376.04 227.64,1375.032 C226.632,1374.024 226.128,1372.752 226.128,1371.216 C226.128,1369.776 226.632,1368.552 227.64,1367.544 C228.648,1366.536 229.872,1366.032 231.312,1366.032 C232.752,1366.032 234,1366.536 235.056,1367.544 C236.112,1368.552 236.64,1369.776 236.64,1371.216 C236.64,1372.752 236.112,1374.024 235.056,1375.032 C234,1376.04 232.752,1376.544 231.312,1376.544 Z M260.688,1376.544 C259.248,1376.544 258.024,1376.04 257.016,1375.032 C256.008,1374.024 255.504,1372.752 255.504,1371.216 C255.504,1369.776 256.008,1368.552 257.016,1367.544 C258.024,1366.536 259.248,1366.032 260.688,1366.032 C262.128,1366.032 263.376,1366.536 264.432,1367.544 C265.488,1368.552 266.016,1369.776 266.016,1371.216 C266.016,1372.752 265.488,1374.024 264.432,1375.032 C263.376,1376.04 262.128,1376.544 260.688,1376.544 Z M245.856,1394.688 C242.4,1394.688 239.088,1394.208 235.92,1393.248 C233.04,1392.576 230.64,1391.328 228.72,1389.504 C228.336,1389.12 228.144,1388.64 228.144,1388.064 C228.144,1387.296 228.336,1386.72 228.72,1386.336 C229.2,1385.856 229.776,1385.616 230.448,1385.616 C231.216,1385.616 231.792,1385.856 232.176,1386.336 C233.04,1387.392 234.672,1388.256 237.072,1388.928 C240.336,1389.696 243.264,1390.08 245.856,1390.08 C248.352,1390.08 251.232,1389.696 254.496,1388.928 C256.992,1388.16 258.72,1387.296 259.68,1386.336 C260.064,1385.856 260.592,1385.616 261.264,1385.616 C261.936,1385.616 262.464,1385.856 262.848,1386.336 C263.328,1386.72 263.568,1387.248 263.568,1387.92 C263.568,1388.592 263.328,1389.12 262.848,1389.504 C261.216,1391.232 258.864,1392.48 255.792,1393.248 C252.624,1394.208 249.312,1394.688 245.856,1394.688 Z M413.04,1418.88 C421.872,1418.88 430.008,1416.696 437.448,1412.328 C444.888,1407.96 450.792,1402.08 455.16,1394.688 C459.528,1387.296 461.712,1379.184 461.712,1370.352 C461.712,1361.52 459.528,1353.384 455.16,1345.944 C450.792,1338.504 444.888,1332.6 437.448,1328.232 C430.008,1323.864 421.872,1321.68 413.04,1321.68 C404.208,1321.68 396.072,1323.864 388.632,1328.232 C381.192,1332.6 375.288,1338.504 370.92,1345.944 C366.552,1353.384 364.368,1361.52 364.368,1370.352 C364.368,1379.184 366.552,1387.296 370.92,1394.688 C375.288,1402.08 381.192,1407.96 388.632,1412.328 C396.072,1416.696 404.208,1418.88 413.04,1418.88 Z M418.8,1355.664 C413.904,1346.64 408.48,1338.48 402.528,1331.184 C406.368,1330.224 409.872,1329.744 413.04,1329.744 C418.32,1329.744 423.408,1330.752 428.304,1332.768 C433.2,1334.784 437.52,1337.616 441.264,1341.264 C433.968,1347.408 426.48,1352.208 418.8,1355.664 Z M378.048,1364.304 C376.704,1364.304 374.976,1364.208 372.864,1364.016 C373.92,1357.68 376.344,1351.896 380.136,1346.664 C383.928,1341.432 388.704,1337.328 394.464,1334.352 C400.608,1341.552 406.128,1349.616 411.024,1358.544 C400.08,1362.384 389.088,1364.304 378.048,1364.304 Z M453.648,1370.208 C448.272,1368.864 443.136,1368.192 438.24,1368.192 C433.824,1368.192 429.408,1368.624 424.992,1369.488 C424.224,1367.568 423.744,1366.368 423.552,1365.888 L423.552,1365.888 L422.256,1362.864 C430.896,1358.928 438.96,1353.792 446.448,1347.456 C451.056,1354.272 453.456,1361.856 453.648,1370.208 Z M383.376,1397.856 C380.112,1394.304 377.544,1390.344 375.672,1385.976 C373.8,1381.608 372.768,1377.024 372.576,1372.224 C373.92,1372.32 375.792,1372.368 378.192,1372.368 C391.056,1372.368 403.248,1370.256 414.768,1366.032 C415.056,1366.8 415.416,1367.664 415.848,1368.624 C416.28,1369.584 416.688,1370.64 417.072,1371.792 C410.256,1374.096 403.968,1377.48 398.208,1381.944 C392.448,1386.408 387.504,1391.712 383.376,1397.856 Z M433.632,1405.2 C432.384,1395.024 430.416,1385.712 427.728,1377.264 C431.952,1376.592 435.456,1376.256 438.24,1376.256 C442.848,1376.256 447.696,1376.928 452.784,1378.272 C451.728,1383.936 449.52,1389.096 446.16,1393.752 C442.8,1398.408 438.624,1402.224 433.632,1405.2 Z M413.04,1410.816 C404.496,1410.816 396.624,1408.32 389.424,1403.328 C392.976,1397.664 397.368,1392.792 402.6,1388.712 C407.832,1384.632 413.568,1381.536 419.808,1379.424 C422.88,1389.024 424.848,1398.816 425.712,1408.8 C421.392,1410.144 417.168,1410.816 413.04,1410.816 Z M580.08,1412.688 C580.752,1412.688 581.424,1412.448 582.096,1411.968 L582.096,1411.968 L620.976,1386.048 L621.192,1386.048 C621.24,1386.048 621.264,1386 621.264,1385.904 C621.36,1385.904 621.408,1385.88 621.408,1385.832 L621.408,1385.832 L621.408,1385.76 C621.504,1385.76 621.552,1385.736 621.552,1385.688 L621.552,1385.688 L621.552,1385.616 L621.84,1385.472 C621.84,1385.376 621.888,1385.328 621.984,1385.328 L621.984,1385.328 L622.128,1385.04 L622.128,1384.896 L622.272,1384.608 L622.416,1384.464 L622.416,1384.176 C622.512,1384.176 622.56,1384.152 622.56,1384.104 L622.56,1384.104 L622.56,1383.744 C622.56,1383.648 622.608,1383.6 622.704,1383.6 L622.704,1383.6 L622.704,1356.672 C622.608,1356.672 622.56,1356.648 622.56,1356.6 L622.56,1356.6 L622.56,1356.24 L622.416,1355.952 L622.416,1355.808 L622.272,1355.52 L622.272,1355.52 L622.272,1355.448 C622.272,1355.4 622.224,1355.376 622.128,1355.376 L622.128,1355.376 L622.128,1355.088 C622.032,1355.088 621.984,1355.064 621.984,1355.016 L621.984,1355.016 L621.984,1354.944 C621.888,1354.944 621.84,1354.92 621.84,1354.872 L621.84,1354.872 L621.84,1354.8 L621.264,1354.224 L621.264,1354.224 L621.192,1354.224 C621.144,1354.224 621.12,1354.176 621.12,1354.08 L621.12,1354.08 L620.976,1354.08 L582.096,1328.16 C581.424,1327.68 580.752,1327.44 580.08,1327.44 C579.504,1327.44 578.832,1327.68 578.064,1328.16 L578.064,1328.16 L539.184,1354.08 L539.04,1354.224 L538.752,1354.368 C538.752,1354.464 538.728,1354.512 538.68,1354.512 L538.68,1354.512 L538.608,1354.512 L538.464,1354.8 C538.368,1354.8 538.32,1354.824 538.32,1354.872 L538.32,1354.872 L538.32,1354.944 L538.176,1355.088 L538.032,1355.376 L538.032,1355.376 L538.032,1355.448 C538.032,1355.496 537.984,1355.52 537.888,1355.52 L537.888,1355.52 L537.888,1355.808 C537.792,1355.808 537.744,1355.832 537.744,1355.88 L537.744,1355.88 L537.744,1356.24 C537.648,1356.24 537.6,1356.336 537.6,1356.528 L537.6,1356.528 L537.6,1383.744 L537.744,1384.032 L537.744,1384.176 L537.888,1384.464 L537.888,1384.608 L538.032,1384.896 L538.176,1385.04 L538.32,1385.328 L538.752,1385.76 L539.04,1385.904 C539.04,1386 539.088,1386.048 539.184,1386.048 L539.184,1386.048 L578.064,1411.968 C578.736,1412.448 579.408,1412.688 580.08,1412.688 Z M560.64,1365.744 L547.824,1357.104 L576.48,1338.096 L576.48,1355.088 L560.64,1365.744 Z M599.664,1365.744 L583.824,1355.088 L583.824,1338.096 L612.48,1357.104 L599.664,1365.744 Z M580.08,1378.704 L567.12,1370.064 L580.08,1361.424 L593.04,1370.064 L580.08,1378.704 Z M544.944,1376.256 L544.944,1364.016 L554.016,1370.064 L544.944,1376.256 Z M615.36,1376.256 L606.144,1370.064 L615.36,1364.016 L615.36,1376.256 Z M576.48,1402.176 L547.824,1383.024 L560.64,1374.528 L576.48,1385.04 L576.48,1402.176 Z M583.824,1402.176 L583.824,1385.04 L599.664,1374.528 L612.48,1383.024 L583.824,1402.176 Z M720.48,1348.176 C722.976,1348.176 725.088,1347.288 726.816,1345.512 C728.544,1343.736 729.408,1341.648 729.408,1339.248 C729.408,1336.848 728.544,1334.784 726.816,1333.056 C725.088,1331.328 722.976,1330.464 720.48,1330.464 C718.08,1330.464 716.016,1331.304 714.288,1332.984 C712.56,1334.664 711.696,1336.752 711.696,1339.248 C711.696,1341.744 712.56,1343.856 714.288,1345.584 C716.016,1347.312 718.08,1348.176 720.48,1348.176 Z M753.168,1404.192 L753.168,1379.712 C753.168,1375.872 753.792,1372.824 755.04,1370.568 C756.288,1368.312 758.736,1367.184 762.384,1367.184 C765.84,1367.184 768.024,1368.36 768.936,1370.712 C769.848,1373.064 770.304,1376.208 770.304,1380.144 L770.304,1380.144 L770.304,1404.192 L785.712,1404.192 L785.712,1377.12 C785.712,1369.536 784.44,1363.728 781.896,1359.696 C779.352,1355.664 774.48,1353.648 767.28,1353.648 C763.824,1353.648 760.824,1354.416 758.28,1355.952 C755.736,1357.488 753.888,1359.36 752.736,1361.568 L752.736,1361.568 L752.448,1361.568 L752.448,1354.944 L737.76,1354.944 L737.76,1404.192 L753.168,1404.192 Z M728.256,1404.192 L728.256,1354.944 L712.848,1354.944 L712.848,1404.192 L728.256,1404.192 Z M880.32,1392.528 C884.352,1389.84 887.376,1387.92 889.392,1386.768 C890.16,1386.48 890.928,1386.336 891.696,1386.336 L891.696,1386.336 L892.56,1386.336 C894.672,1386.528 896.4,1386.72 897.744,1386.912 L897.744,1386.912 L902.064,1387.344 C901.968,1386.672 901.92,1385.664 901.92,1384.32 C901.92,1376.928 904.656,1370.64 910.128,1365.456 C915.6,1359.984 922.896,1357.008 932.016,1356.528 C931.44,1351.44 929.664,1346.976 926.688,1343.136 C923.712,1339.2 919.896,1336.128 915.24,1333.92 C910.584,1331.712 905.664,1330.608 900.48,1330.608 C896.736,1330.608 893.136,1331.184 889.68,1332.336 C879.024,1335.792 872.256,1342.368 869.376,1352.064 C868.704,1354.368 868.368,1356.72 868.368,1359.12 C868.368,1363.44 869.424,1367.496 871.536,1371.288 C873.648,1375.08 876.72,1378.368 880.752,1381.152 C881.712,1381.728 882.192,1382.496 882.192,1383.456 C882.192,1384.032 882.144,1384.512 882.048,1384.896 C881.664,1386.048 881.088,1388.592 880.32,1392.528 Z M888.816,1356.816 C887.76,1356.72 886.872,1356.312 886.152,1355.592 C885.432,1354.872 885.072,1353.984 885.072,1352.928 C885.168,1351.872 885.6,1350.984 886.368,1350.264 C887.136,1349.544 888.048,1349.184 889.104,1349.184 C890.064,1349.184 890.928,1349.544 891.696,1350.264 C892.464,1350.984 892.848,1351.824 892.848,1352.784 C892.848,1353.936 892.44,1354.896 891.624,1355.664 C890.808,1356.432 889.872,1356.816 888.816,1356.816 Z M913.296,1356.816 C912.24,1356.816 911.328,1356.456 910.56,1355.736 C909.792,1355.016 909.408,1354.128 909.408,1353.072 C909.408,1352.016 909.792,1351.104 910.56,1350.336 C911.328,1349.568 912.24,1349.184 913.296,1349.184 C914.352,1349.184 915.264,1349.544 916.032,1350.264 C916.8,1350.984 917.184,1351.872 917.184,1352.928 C917.184,1353.984 916.8,1354.896 916.032,1355.664 C915.264,1356.432 914.352,1356.816 913.296,1356.816 Z M951.024,1409.52 C951.024,1409.328 950.976,1409.016 950.88,1408.584 C950.784,1408.152 950.64,1407.792 950.448,1407.504 C949.872,1406.448 949.584,1405.536 949.584,1404.768 C949.584,1403.328 950.496,1401.792 952.32,1400.16 C954.816,1398.048 956.688,1395.6 957.936,1392.816 C959.184,1390.032 959.808,1387.104 959.808,1384.032 C959.808,1378.848 958.176,1374.144 954.912,1369.92 C952.32,1366.656 949.056,1364.136 945.12,1362.36 C941.184,1360.584 937.008,1359.696 932.592,1359.696 C926.64,1359.696 921.36,1361.232 916.752,1364.304 C913.104,1366.704 910.296,1369.608 908.328,1373.016 C906.36,1376.424 905.376,1380 905.376,1383.744 C905.376,1386.72 906.024,1389.672 907.32,1392.6 C908.616,1395.528 910.56,1398.192 913.152,1400.592 C918.336,1405.488 924.576,1407.936 931.872,1407.936 C933.312,1407.936 934.416,1407.888 935.184,1407.792 C935.856,1407.696 936.96,1407.456 938.496,1407.072 C940.224,1406.496 941.616,1406.208 942.672,1406.208 C943.92,1406.208 945.792,1406.88 948.288,1408.224 L948.288,1408.224 L951.024,1409.52 Z M920.352,1379.856 C919.584,1379.856 918.888,1379.568 918.264,1378.992 C917.64,1378.416 917.28,1377.696 917.184,1376.832 C917.184,1375.968 917.496,1375.2 918.12,1374.528 C918.744,1373.856 919.536,1373.52 920.496,1373.52 C921.36,1373.52 922.104,1373.856 922.728,1374.528 C923.352,1375.2 923.664,1375.968 923.664,1376.832 C923.568,1377.696 923.208,1378.416 922.584,1378.992 C921.96,1379.568 921.216,1379.856 920.352,1379.856 Z M940.08,1379.856 C939.312,1379.856 938.616,1379.568 937.992,1378.992 C937.368,1378.416 937.056,1377.696 937.056,1376.832 L937.056,1376.832 L937.056,1376.544 C937.056,1375.776 937.368,1375.08 937.992,1374.456 C938.616,1373.832 939.36,1373.52 940.224,1373.52 C941.088,1373.52 941.808,1373.856 942.384,1374.528 C942.96,1375.2 943.248,1375.968 943.248,1376.832 C943.248,1377.696 942.936,1378.416 942.312,1378.992 C941.688,1379.568 940.944,1379.856 940.08,1379.856 Z M1061.616,1401.744 C1066.032,1401.744 1070.184,1400.808 1074.072,1398.936 C1077.96,1397.064 1081.248,1394.448 1083.936,1391.088 L1083.936,1391.088 L1080.192,1382.592 C1078.464,1386.048 1075.944,1388.784 1072.632,1390.8 C1069.32,1392.816 1065.648,1393.824 1061.616,1393.824 C1057.872,1393.824 1054.392,1392.888 1051.176,1391.016 C1047.96,1389.144 1045.416,1386.6 1043.544,1383.384 C1041.672,1380.168 1040.736,1376.688 1040.736,1372.944 C1040.736,1369.104 1041.672,1365.576 1043.544,1362.36 C1045.416,1359.144 1047.96,1356.6 1051.176,1354.728 C1054.392,1352.856 1057.872,1351.92 1061.616,1351.92 C1065.84,1351.92 1069.68,1353.072 1073.136,1355.376 C1076.592,1357.68 1079.136,1360.704 1080.768,1364.448 L1080.768,1364.448 L1089.984,1385.328 L1091.136,1387.776 C1093.152,1392.288 1095.648,1395.672 1098.624,1397.928 C1101.6,1400.184 1105.488,1401.36 1110.288,1401.456 C1115.76,1401.456 1120.344,1399.872 1124.04,1396.704 C1127.736,1393.536 1129.584,1389.504 1129.584,1384.608 C1129.584,1380.096 1128.456,1376.664 1126.2,1374.312 C1123.944,1371.96 1120.176,1369.968 1114.896,1368.336 C1114.128,1368.048 1112.592,1367.544 1110.288,1366.824 C1107.984,1366.104 1106.04,1365.216 1104.456,1364.16 C1102.872,1363.104 1102.08,1361.376 1102.08,1358.976 C1102.08,1356.864 1102.824,1355.112 1104.312,1353.72 C1105.8,1352.328 1107.696,1351.632 1110,1351.632 C1113.168,1351.632 1115.856,1353.12 1118.064,1356.096 L1118.064,1356.096 L1124.112,1353.072 C1121.136,1347.408 1116.528,1344.576 1110.288,1344.576 C1105.488,1344.576 1101.672,1345.92 1098.84,1348.608 C1096.008,1351.296 1094.592,1354.8 1094.592,1359.12 C1094.592,1363.44 1095.936,1366.776 1098.624,1369.128 C1101.312,1371.48 1105.68,1373.664 1111.728,1375.68 C1115.472,1376.832 1118.088,1377.96 1119.576,1379.064 C1121.064,1380.168 1121.808,1381.92 1121.808,1384.32 C1121.808,1387.008 1120.752,1389.264 1118.64,1391.088 C1116.528,1392.912 1113.84,1393.824 1110.576,1393.824 C1107.024,1393.824 1104.384,1393.032 1102.656,1391.448 C1100.928,1389.864 1099.296,1387.248 1097.76,1383.6 C1097.184,1382.352 1094.592,1376.4 1089.984,1365.744 L1089.984,1365.744 L1088.256,1361.856 C1085.76,1356.192 1082.208,1351.8 1077.6,1348.68 C1072.992,1345.56 1067.664,1344 1061.616,1344 C1056.432,1344 1051.632,1345.296 1047.216,1347.888 C1042.8,1350.48 1039.296,1353.984 1036.704,1358.4 C1034.112,1362.816 1032.816,1367.664 1032.816,1372.944 C1032.816,1378.128 1034.112,1382.928 1036.704,1387.344 C1039.296,1391.76 1042.8,1395.264 1047.216,1397.856 C1051.632,1400.448 1056.432,1401.744 1061.616,1401.744 Z M1231.968,1419.6 C1234.08,1416.144 1235.904,1411.968 1237.44,1407.072 C1238.976,1402.176 1240.464,1396.608 1241.904,1390.368 C1242.288,1390.08 1242.648,1390.056 1242.984,1390.296 C1243.32,1390.536 1243.704,1390.992 1244.136,1391.664 C1244.568,1392.336 1244.88,1392.768 1245.072,1392.96 C1247.952,1395.168 1251.648,1396.272 1256.16,1396.272 C1259.616,1396.272 1263.096,1395.648 1266.6,1394.4 C1270.104,1393.152 1272.912,1391.616 1275.024,1389.792 C1279.056,1386.336 1282.2,1381.584 1284.456,1375.536 C1286.712,1369.488 1287.84,1363.296 1287.84,1356.96 C1287.84,1355.808 1287.744,1354.272 1287.552,1352.352 C1287.072,1347.552 1285.368,1343.016 1282.44,1338.744 C1279.512,1334.472 1275.768,1330.944 1271.208,1328.16 C1266.648,1325.376 1261.728,1323.696 1256.448,1323.12 C1253.952,1322.928 1252.032,1322.832 1250.688,1322.832 C1243.296,1322.832 1236.456,1324.368 1230.168,1327.44 C1223.88,1330.512 1218.84,1334.832 1215.048,1340.4 C1211.256,1345.968 1209.312,1352.352 1209.216,1359.552 C1209.216,1365.408 1210.248,1370.136 1212.312,1373.736 C1214.376,1377.336 1217.856,1380.096 1222.752,1382.016 C1224.576,1380.192 1225.488,1378.368 1225.488,1376.544 C1225.488,1375.104 1224.768,1373.04 1223.328,1370.352 C1221.792,1367.472 1220.928,1365.12 1220.736,1363.296 C1220.64,1362.72 1220.592,1361.856 1220.592,1360.704 C1220.592,1355.808 1221.936,1351.152 1224.624,1346.736 C1227.312,1342.32 1230.888,1338.768 1235.352,1336.08 C1239.816,1333.392 1244.544,1332.048 1249.536,1332.048 C1254.432,1332.048 1259.136,1333.392 1263.648,1336.08 C1266.72,1337.904 1269.096,1340.904 1270.776,1345.08 C1272.456,1349.256 1273.296,1353.84 1273.296,1358.832 C1273.296,1365.552 1271.928,1371.552 1269.192,1376.832 C1266.456,1382.112 1262.688,1385.232 1257.888,1386.192 C1256.928,1386.384 1256.16,1386.48 1255.584,1386.48 C1254.144,1386.48 1252.752,1386.264 1251.408,1385.832 C1250.064,1385.4 1249.008,1384.848 1248.24,1384.176 C1246.416,1382.448 1245.504,1380.336 1245.504,1377.84 C1245.504,1376.4 1245.72,1374.912 1246.152,1373.376 C1246.584,1371.84 1247.28,1369.872 1248.24,1367.472 C1249.2,1364.784 1249.944,1362.552 1250.472,1360.776 C1251,1359 1251.264,1357.2 1251.264,1355.376 C1251.264,1353.456 1250.928,1351.776 1250.256,1350.336 C1248.912,1347.168 1246.8,1345.584 1243.92,1345.584 C1241.328,1345.584 1238.808,1346.736 1236.36,1349.04 C1233.912,1351.344 1232.496,1353.984 1232.112,1356.96 C1232.016,1357.44 1231.968,1358.16 1231.968,1359.12 C1231.968,1360.656 1232.256,1362.768 1232.832,1365.456 C1233.408,1367.952 1233.696,1369.776 1233.696,1370.928 C1233.696,1373.52 1233.312,1376.352 1232.544,1379.424 C1231.776,1382.496 1230.72,1386.192 1229.376,1390.512 C1227.456,1396.944 1226.304,1401.408 1225.92,1403.904 C1225.44,1406.496 1225.2,1409.712 1225.2,1413.552 C1225.2,1416.048 1225.344,1418.064 1225.632,1419.6 L1225.632,1419.6 L1231.968,1419.6 Z M1409.664,1410.384 C1411.776,1410.384 1413.648,1409.808 1415.28,1408.656 C1419.024,1406.16 1423.68,1402.2 1429.248,1396.776 C1434.816,1391.352 1440.096,1384.848 1445.088,1377.264 C1450.08,1369.68 1453.296,1361.808 1454.736,1353.648 C1455.024,1352.016 1455.168,1350.528 1455.168,1349.184 C1455.168,1344.768 1453.944,1341.432 1451.496,1339.176 C1449.048,1336.92 1445.904,1335.792 1442.064,1335.792 C1438.8,1335.792 1435.488,1336.608 1432.128,1338.24 C1428.768,1339.872 1425.864,1342.2 1423.416,1345.224 C1420.968,1348.248 1419.408,1351.776 1418.736,1355.808 C1420.944,1354.56 1422.912,1353.936 1424.64,1353.936 C1426.464,1353.936 1427.928,1354.56 1429.032,1355.808 C1430.136,1357.056 1430.688,1358.688 1430.688,1360.704 C1430.688,1362.816 1430.016,1365.12 1428.672,1367.616 C1426.08,1372.416 1423.728,1376.184 1421.616,1378.92 C1419.504,1381.656 1417.872,1383.024 1416.72,1383.024 C1415.664,1383.024 1414.632,1381.68 1413.624,1378.992 C1412.616,1376.304 1411.344,1371.936 1409.808,1365.888 C1409.136,1363.2 1408.608,1360.368 1408.224,1357.392 C1407.072,1350.576 1405.752,1345.368 1404.264,1341.768 C1402.776,1338.168 1400.352,1336.368 1396.992,1336.368 C1396.224,1336.368 1395.648,1336.416 1395.264,1336.512 C1395.264,1336.32 1393.968,1336.8 1391.376,1337.952 C1388.784,1339.104 1385.592,1341.12 1381.8,1344 C1378.008,1346.88 1373.952,1350.912 1369.632,1356.096 L1369.632,1356.096 L1373.088,1360.704 C1376.064,1358.304 1378.56,1357.104 1380.576,1357.104 C1381.248,1357.104 1381.752,1357.2 1382.088,1357.392 C1382.424,1357.584 1382.64,1357.728 1382.736,1357.824 C1383.312,1358.496 1384.344,1361.112 1385.832,1365.672 C1387.32,1370.232 1388.832,1375.056 1390.368,1380.144 C1394.112,1392.336 1396.416,1399.296 1397.28,1401.024 C1398.432,1403.424 1400.136,1405.584 1402.392,1407.504 C1404.648,1409.424 1407.072,1410.384 1409.664,1410.384 Z M1566.912,1408.8 C1577.376,1408.8 1586.472,1406.28 1594.2,1401.24 C1601.928,1396.2 1607.832,1389.744 1611.912,1381.872 C1615.992,1374 1618.032,1365.936 1618.032,1357.68 L1618.032,1357.68 L1617.888,1355.376 C1621.536,1352.88 1624.512,1349.76 1626.816,1346.016 C1623.552,1347.552 1620.144,1348.512 1616.592,1348.896 C1620.336,1346.592 1622.976,1343.28 1624.512,1338.96 C1621.056,1341.072 1617.216,1342.512 1612.992,1343.28 C1611.36,1341.552 1609.416,1340.184 1607.16,1339.176 C1604.904,1338.168 1602.48,1337.664 1599.888,1337.664 C1596.72,1337.664 1593.768,1338.48 1591.032,1340.112 C1588.296,1341.744 1586.112,1343.928 1584.48,1346.664 C1582.848,1349.4 1582.032,1352.4 1582.032,1355.664 C1582.032,1357.008 1582.176,1358.352 1582.464,1359.696 C1575.168,1359.312 1568.304,1357.464 1561.872,1354.152 C1555.44,1350.84 1549.968,1346.448 1545.456,1340.976 C1543.92,1343.76 1543.152,1346.784 1543.152,1350.048 C1543.152,1353.12 1543.848,1355.976 1545.24,1358.616 C1546.632,1361.256 1548.576,1363.392 1551.072,1365.024 C1548.192,1364.928 1545.504,1364.16 1543.008,1362.72 C1543.008,1367.136 1544.352,1371 1547.04,1374.312 C1549.728,1377.624 1553.136,1379.664 1557.264,1380.432 C1556.112,1380.912 1554.528,1381.152 1552.512,1381.152 C1551.84,1381.152 1550.736,1381.056 1549.2,1380.864 C1550.352,1384.512 1552.464,1387.488 1555.536,1389.792 C1558.608,1392.096 1562.064,1393.248 1565.904,1393.248 C1562.832,1395.648 1559.4,1397.52 1555.608,1398.864 C1551.816,1400.208 1547.856,1400.88 1543.728,1400.88 C1541.808,1400.88 1540.368,1400.784 1539.408,1400.592 C1547.76,1406.064 1556.928,1408.8 1566.912,1408.8 Z M1780.464,1403.04 L1793.856,1402.752 C1795.2,1402.752 1796.256,1402.56 1797.024,1402.176 C1797.696,1401.792 1798.128,1401.312 1798.32,1400.736 C1798.416,1400.16 1798.416,1399.536 1798.32,1398.864 L1798.32,1398.864 L1797.888,1397.568 C1797.792,1397.472 1797.744,1397.352 1797.744,1397.208 C1797.744,1397.064 1797.696,1396.944 1797.6,1396.848 C1795.776,1393.488 1792.416,1389.648 1787.52,1385.328 L1787.52,1385.328 L1787.52,1385.184 L1787.376,1385.04 L1787.232,1385.04 C1784.832,1382.64 1783.44,1381.2 1783.056,1380.72 C1782.384,1379.952 1782.048,1379.088 1782.048,1378.128 C1782.048,1377.84 1782.144,1377.312 1782.336,1376.544 C1782.432,1375.968 1783.296,1374.624 1784.928,1372.512 C1785.888,1371.36 1786.608,1370.4 1787.088,1369.632 L1787.088,1369.632 L1790.4,1365.168 C1796.544,1357.008 1799.184,1351.872 1798.32,1349.76 L1798.32,1349.76 L1798.032,1349.184 C1797.744,1348.896 1797.216,1348.608 1796.448,1348.32 C1795.68,1348.128 1795.056,1348.032 1794.576,1348.032 L1794.576,1348.032 L1792.992,1348.176 L1777.872,1348.32 C1777.68,1348.128 1777.344,1348.128 1776.864,1348.32 L1776.864,1348.32 L1776.144,1348.464 L1775.856,1348.608 L1775.712,1348.752 C1775.4816,1348.9824 1775.32032,1349.14368 1775.22816,1349.23584 L1775.136,1349.328 C1774.944,1349.52 1774.752,1349.808 1774.56,1350.192 C1773.312,1353.648 1771.44,1357.584 1768.944,1362 C1767.6,1364.4 1766.4,1366.32 1765.344,1367.76 C1764.384,1369.296 1763.52,1370.448 1762.752,1371.216 C1762.656,1371.312 1762.5615,1371.4065 1762.4685,1371.4995 L1761.672,1372.296 C1761.336,1372.632 1761.024,1372.896 1760.736,1373.088 C1760.256,1373.472 1759.776,1373.664 1759.296,1373.664 L1759.296,1373.664 L1758.432,1373.376 C1757.952,1373.088 1757.568,1372.656 1757.28,1372.08 C1756.896,1371.504 1756.704,1370.832 1756.704,1370.064 C1756.512,1368.912 1756.416,1368.192 1756.416,1367.904 C1756.416,1366.944 1756.464,1366.128 1756.56,1365.456 L1756.56,1365.456 L1756.56,1358.832 C1756.656,1357.872 1756.704,1356.672 1756.704,1355.232 C1756.8,1354.56 1756.848,1353.6 1756.848,1352.352 C1756.848,1351.488 1756.752,1350.672 1756.56,1349.904 C1756.56,1349.52 1756.512,1349.184 1756.416,1348.896 C1756.32,1348.608 1756.224,1348.368 1756.128,1348.176 C1755.84,1347.696 1755.456,1347.312 1754.976,1347.024 C1754.4,1346.64 1753.824,1346.4 1753.248,1346.304 C1751.136,1345.824 1748.784,1345.584 1746.192,1345.584 C1739.28,1345.584 1735.104,1346.016 1733.664,1346.88 C1732.896,1347.168 1732.224,1347.696 1731.648,1348.464 C1731.264,1348.848 1731.072,1349.136 1731.072,1349.328 C1731.072,1349.52 1731.168,1349.616 1731.36,1349.616 C1733.472,1350 1734.96,1350.768 1735.824,1351.92 L1735.824,1351.92 L1736.112,1352.64 C1736.496,1353.216 1736.736,1353.984 1736.832,1354.944 C1737.12,1356.096 1737.264,1357.392 1737.264,1358.832 C1737.456,1360.56 1737.552,1361.76 1737.552,1362.432 C1737.552,1363.2 1737.456,1364.16 1737.264,1365.312 L1737.264,1365.312 L1736.832,1369.632 C1736.736,1370.592 1736.496,1371.408 1736.112,1372.08 L1736.112,1372.08 L1735.536,1373.232 L1735.248,1373.52 C1734.672,1373.712 1734.192,1373.808 1733.808,1373.808 C1733.424,1373.808 1732.848,1373.568 1732.08,1373.088 C1731.12,1372.32 1730.4,1371.648 1729.92,1371.072 C1729.248,1370.304 1728.384,1369.104 1727.328,1367.472 C1726.752,1366.512 1726.224,1365.576 1725.744,1364.664 C1725.264,1363.752 1724.784,1362.864 1724.304,1362 L1724.304,1362 L1723.584,1360.416 L1721.424,1356.096 C1720.752,1354.848 1719.936,1353.072 1718.976,1350.768 C1718.688,1350 1718.256,1349.424 1717.68,1349.04 L1717.68,1349.04 L1717.392,1348.896 L1716.672,1348.464 C1716.096,1348.272 1715.664,1348.176 1715.376,1348.176 L1715.376,1348.176 L1700.976,1348.176 C1699.536,1348.176 1698.576,1348.512 1698.096,1349.184 L1698.096,1349.184 L1697.808,1349.472 C1697.712,1349.664 1697.664,1349.952 1697.664,1350.336 C1697.664,1350.528 1697.76,1351.008 1697.952,1351.776 C1700.16,1356.672 1702.464,1361.424 1704.864,1366.032 C1707.264,1370.448 1709.376,1374.144 1711.2,1377.12 C1712.832,1379.712 1714.704,1382.352 1716.816,1385.04 L1716.816,1385.04 L1720.56,1389.792 L1722,1391.376 L1723.296,1392.672 C1724.064,1393.44 1725.312,1394.448 1727.04,1395.696 C1728.096,1396.464 1729.872,1397.616 1732.368,1399.152 C1734.192,1400.208 1736.496,1401.12 1739.28,1401.888 C1741.968,1402.56 1744.56,1402.848 1747.056,1402.752 L1747.056,1402.752 L1752.96,1402.752 C1754.112,1402.752 1755.072,1402.368 1755.84,1401.6 L1755.84,1401.6 L1756.416,1400.448 C1756.512,1400.16 1756.56,1399.68 1756.56,1399.008 C1756.56,1397.472 1756.704,1396.08 1756.992,1394.832 C1757.184,1393.68 1757.472,1392.816 1757.856,1392.24 C1758.048,1391.76 1758.432,1391.232 1759.008,1390.656 L1759.008,1390.656 L1759.872,1389.792 L1760.304,1389.648 C1761.072,1389.36 1762.032,1389.648 1763.184,1390.512 C1764.432,1391.472 1765.536,1392.48 1766.496,1393.536 C1768.512,1395.84 1769.712,1397.184 1770.096,1397.568 C1770.768,1398.432 1771.968,1399.584 1773.696,1401.024 L1773.696,1401.024 L1774.704,1401.6 C1775.472,1402.08 1776.384,1402.464 1777.44,1402.752 C1778.016,1402.944 1778.784,1403.04 1779.744,1403.04 L1779.744,1403.04 L1780.464,1403.04 Z M1920,1414.272 L1920,1371.216 L1932.672,1371.216 L1934.544,1356.384 L1920,1356.384 L1920,1347.024 C1920,1344.624 1920.504,1342.824 1921.512,1341.624 C1922.52,1340.424 1924.416,1339.824 1927.2,1339.824 L1927.2,1339.824 L1934.976,1339.824 L1934.976,1326.72 C1931.52,1326.336 1927.776,1326.144 1923.744,1326.144 C1917.984,1326.144 1913.376,1327.848 1909.92,1331.256 C1906.464,1334.664 1904.736,1339.44 1904.736,1345.584 L1904.736,1345.584 L1904.736,1356.384 L1892.064,1356.384 L1892.064,1371.216 L1904.736,1371.216 L1904.736,1414.272 L1920,1414.272 Z" id="flist-sni"></path>
        </g>
    </g>
</svg>