<?xml version="1.0" encoding="UTF-8"?>
<svg width="1736px" height="164px" viewBox="0 0 1736 164" version="1.1" xmlns="http://www.w3.org/2000/svg" xmlns:xlink="http://www.w3.org/1999/xlink">
    <title>flist-social-networking-icons</title>
    <g id="flist-social-networking-icons" stroke="none" stroke-width="1" fill="none" fill-rule="evenodd">
        <path d="M46.2338007,89.0647059 C53.5313477,89.0647059 60.3007827,87.7916667 66.5421057,85.2455882 C72.7834287,82.6995098 77.728477,79.2406863 81.3772505,74.8691176 C85.0260239,70.497549 86.8504107,65.7176471 86.8504107,60.5294118 C86.8504107,58.9921569 86.8024005,57.8392157 86.7063802,57.0705882 C88.7228076,56.1098039 90.3791587,54.6926471 91.6754335,52.8191176 C92.9717083,50.9455882 93.6198457,48.9039216 93.6198457,46.6941176 C93.6198457,43.5235294 92.4676014,40.8333333 90.1631129,38.6235294 C87.8586244,36.4137255 85.0740341,35.3088235 81.8093421,35.3088235 C78.3526093,35.3088235 75.4719987,36.5578431 73.1675102,39.0558824 C66.0620039,34.7323529 57.9002738,32.3303922 48.6823198,31.85 L48.6823198,31.85 L51.995022,13.8352941 L63.0853729,17.2941176 L62.9413424,18.7352941 C62.9413424,21.7137255 63.9975663,24.2838235 66.1100141,26.4455882 C68.2224619,28.6073529 70.7670013,29.6882353 73.7436323,29.6882353 C76.7202633,29.6882353 79.2648027,28.6073529 81.3772505,26.4455882 C83.4896983,24.2838235 84.5459222,21.7137255 84.5459222,18.7352941 C84.5459222,15.7568627 83.4896983,13.2107843 81.3772505,11.0970588 C79.2648027,8.98333333 76.7202633,7.92647059 73.7436323,7.92647059 C71.6311845,7.92647059 69.7587876,8.43088235 68.1264415,9.43970588 C66.4940955,10.4485294 65.2458309,11.8176471 64.3816477,13.5470588 L64.3816477,13.5470588 L50.9868083,9.36764706 C50.5067065,9.07941176 49.9305844,9.12745098 49.2584419,9.51176471 C48.8743605,9.70392157 48.5862994,10.1843137 48.3942587,10.9529412 L48.3942587,10.9529412 L44.5054343,31.85 C35.1914599,32.1382353 27.0297298,34.3480392 20.0202439,38.4794118 C17.7157554,36.3656863 14.9791753,35.3088235 11.8105036,35.3088235 C8.54581155,35.3088235 5.76122127,36.4137255 3.45673276,38.6235294 C1.15224425,40.8333333 0,43.5235294 0,46.6941176 C0,48.7117647 0.52811195,50.5852941 1.58433585,52.3147059 C2.64055975,54.0441176 4.03285489,55.3892157 5.76122127,56.35 C5.47316021,57.5990196 5.32912968,58.9921569 5.32912968,60.5294118 C5.32912968,65.7176471 7.15351641,70.497549 10.8022899,74.8691176 C14.4510634,79.2406863 19.4201167,82.6995098 25.7094499,85.2455882 C31.9987832,87.7916667 38.8402334,89.0647059 46.2338007,89.0647059 Z M31.9747781,54.9088235 C30.5344727,54.9088235 29.3102132,54.4044118 28.3019995,53.3955882 C27.2937858,52.3867647 26.7896789,51.1137255 26.7896789,49.5764706 C26.7896789,48.1352941 27.2937858,46.9102941 28.3019995,45.9014706 C29.3102132,44.8926471 30.5344727,44.3882353 31.9747781,44.3882353 C33.4150834,44.3882353 34.663348,44.8926471 35.7195719,45.9014706 C36.7757958,46.9102941 37.3039077,48.1352941 37.3039077,49.5764706 C37.3039077,51.1137255 36.7757958,52.3867647 35.7195719,53.3955882 C34.663348,54.4044118 33.4150834,54.9088235 31.9747781,54.9088235 Z M61.3570066,54.9088235 C59.9167012,54.9088235 58.6924417,54.4044118 57.684228,53.3955882 C56.6760143,52.3867647 56.1719074,51.1137255 56.1719074,49.5764706 C56.1719074,48.1352941 56.6760143,46.9102941 57.684228,45.9014706 C58.6924417,44.8926471 59.9167012,44.3882353 61.3570066,44.3882353 C62.7973119,44.3882353 64.0455765,44.8926471 65.1018004,45.9014706 C66.1580243,46.9102941 66.6861362,48.1352941 66.6861362,49.5764706 C66.6861362,51.1137255 66.1580243,52.3867647 65.1018004,53.3955882 C64.0455765,54.4044118 62.7973119,54.9088235 61.3570066,54.9088235 Z M46.5218618,73.0676471 C43.065129,73.0676471 39.7524268,72.5872549 36.5837551,71.6264706 C33.7031444,70.9539216 31.3026356,69.704902 29.3822285,67.8794118 C28.9981471,67.495098 28.8061064,67.0147059 28.8061064,66.4382353 C28.8061064,65.6696078 28.9981471,65.0931373 29.3822285,64.7088235 C29.8623303,64.2284314 30.4384524,63.9882353 31.1105949,63.9882353 C31.8787577,63.9882353 32.4548798,64.2284314 32.8389613,64.7088235 C33.7031444,65.7656863 35.3354905,66.6303922 37.7359993,67.3029412 C41.0006914,68.0715686 43.9293122,68.4558824 46.5218618,68.4558824 C49.018391,68.4558824 51.8990016,68.0715686 55.1636937,67.3029412 C57.6602229,66.5343137 59.3885893,65.6696078 60.3487928,64.7088235 C60.7328742,64.2284314 61.2609862,63.9882353 61.9331287,63.9882353 C62.6052712,63.9882353 63.1333831,64.2284314 63.5174645,64.7088235 C63.9975663,65.0931373 64.2376172,65.6215686 64.2376172,66.2941176 C64.2376172,66.9666667 63.9975663,67.495098 63.5174645,67.8794118 C61.8851185,69.6088235 59.5326198,70.8578431 56.4599685,71.6264706 C53.2912968,72.5872549 49.9785945,73.0676471 46.5218618,73.0676471 Z M213.741309,97.2794118 C222.575182,97.2794118 230.712907,95.0936275 238.154484,90.7220588 C245.596062,86.3504902 251.501314,80.4656863 255.87024,73.0676471 C260.239166,65.6696078 262.423629,57.5509804 262.423629,48.7117647 C262.423629,39.872549 260.239166,31.729902 255.87024,24.2838235 C251.501314,16.8377451 245.596062,10.9289216 238.154484,6.55735294 C230.712907,2.18578431 222.575182,0 213.741309,0 C204.907437,0 196.769712,2.18578431 189.328134,6.55735294 C181.886557,10.9289216 175.981305,16.8377451 171.612379,24.2838235 C167.243453,31.729902 165.058989,39.872549 165.058989,48.7117647 C165.058989,57.5509804 167.243453,65.6696078 171.612379,73.0676471 C175.981305,80.4656863 181.886557,86.3504902 189.328134,90.7220588 C196.769712,95.0936275 204.907437,97.2794118 213.741309,97.2794118 Z M219.50253,34.0117647 C214.605492,24.9803922 209.180342,16.8137255 203.22708,9.51176471 C207.067895,8.55098039 210.572638,8.07058824 213.741309,8.07058824 C219.022429,8.07058824 224.111508,9.07941176 229.008546,11.0970588 C233.905584,13.1147059 238.2265,15.9490196 241.971293,19.6 C234.673747,25.7490196 227.184159,30.5529412 219.50253,34.0117647 Z M178.74189,42.6588235 C177.397605,42.6588235 175.669239,42.5627451 173.556791,42.3705882 C174.613015,36.0294118 177.037529,30.2406863 180.830333,25.0044118 C184.623137,19.7681373 189.400149,15.6607843 195.161371,12.6823529 C201.306673,19.8882353 206.827844,27.9588235 211.724882,36.8941176 C200.778561,40.7372549 189.784231,42.6588235 178.74189,42.6588235 Z M254.357919,48.5676471 C248.980779,47.222549 243.84369,46.55 238.946652,46.55 C234.529716,46.55 230.11278,46.9823529 225.695843,47.8470588 C224.927681,45.9254902 224.447579,44.7245098 224.255538,44.2441176 L224.255538,44.2441176 L222.959263,41.2176471 C231.601095,37.2784314 239.666805,32.1382353 247.156393,25.7970588 C251.76537,32.6186275 254.165878,40.2088235 254.357919,48.5676471 Z M184.07102,76.2382353 C180.806328,72.6833333 178.237783,68.720098 176.365386,64.3485294 C174.492989,59.9769608 173.46077,55.3892157 173.26873,50.5852941 C174.613015,50.6813725 176.485412,50.7294118 178.885921,50.7294118 C191.752648,50.7294118 203.947233,48.6156863 215.469676,44.3882353 C215.757737,45.1568627 216.117813,46.0215686 216.549905,46.9823529 C216.981996,47.9431373 217.390083,49 217.774164,50.1529412 C210.956719,52.4588235 204.667386,55.8455882 198.906164,60.3132353 C193.144943,64.7808824 188.199895,70.0892157 184.07102,76.2382353 Z M234.337675,83.5882353 C233.089411,73.4039216 231.120993,64.0843137 228.432423,55.6294118 C232.657319,54.9568627 236.162062,54.6205882 238.946652,54.6205882 C243.555629,54.6205882 248.404657,55.2931373 253.493736,56.6382353 C252.437512,62.3068627 250.229044,67.4710784 246.868332,72.1308824 C243.507619,76.7906863 239.330734,80.6098039 234.337675,83.5882353 Z M213.741309,89.2088235 C205.195498,89.2088235 197.321829,86.7107843 190.120302,81.7147059 C193.673055,76.0460784 198.065986,71.170098 203.299096,67.0867647 C208.532205,63.0034314 214.269421,59.904902 220.510744,57.7911765 C223.583396,67.3990196 225.551813,77.1990196 226.415996,87.1911765 C222.09508,88.5362745 217.870184,89.2088235 213.741309,89.2088235 Z M380.816726,91.0823529 C381.488869,91.0823529 382.161011,90.8421569 382.833154,90.3617647 L382.833154,90.3617647 L421.721397,64.4205882 L421.937443,64.4205882 C421.985453,64.4205882 422.009458,64.372549 422.009458,64.2764706 C422.105479,64.2764706 422.153489,64.252451 422.153489,64.2044118 L422.153489,64.2044118 L422.153489,64.1323529 C422.249509,64.1323529 422.297519,64.1083333 422.297519,64.0602941 L422.297519,64.0602941 L422.297519,63.9882353 L422.58558,63.8441176 C422.58558,63.7480392 422.633591,63.7 422.729611,63.7 L422.729611,63.7 L422.873641,63.4117647 L422.873641,63.2676471 L423.017672,62.9794118 L423.161702,62.8352941 L423.161702,62.5470588 C423.257723,62.5470588 423.305733,62.5230392 423.305733,62.475 L423.305733,62.475 L423.305733,62.1147059 C423.305733,62.0186275 423.353743,61.9705882 423.449764,61.9705882 L423.449764,61.9705882 L423.449764,35.0205882 C423.353743,35.0205882 423.305733,34.9965686 423.305733,34.9485294 L423.305733,34.9485294 L423.305733,34.5882353 L423.161702,34.3 L423.161702,34.1558824 L423.017672,33.8676471 L423.017672,33.8676471 L423.017672,33.7955882 C423.017672,33.747549 422.969662,33.7235294 422.873641,33.7235294 L422.873641,33.7235294 L422.873641,33.4352941 C422.777621,33.4352941 422.729611,33.4112745 422.729611,33.3632353 L422.729611,33.3632353 L422.729611,33.2911765 C422.633591,33.2911765 422.58558,33.2671569 422.58558,33.2191176 L422.58558,33.2191176 L422.58558,33.1470588 L422.009458,32.5705882 L422.009458,32.5705882 L421.937443,32.5705882 C421.889433,32.5705882 421.865428,32.522549 421.865428,32.4264706 L421.865428,32.4264706 L421.721397,32.4264706 L382.833154,6.48529412 C382.161011,6.00490196 381.488869,5.76470588 380.816726,5.76470588 C380.240604,5.76470588 379.568462,6.00490196 378.800299,6.48529412 L378.800299,6.48529412 L339.912055,32.4264706 L339.768025,32.5705882 L339.479963,32.7147059 C339.479963,32.8107843 339.455958,32.8588235 339.407948,32.8588235 L339.407948,32.8588235 L339.335933,32.8588235 L339.191902,33.1470588 C339.095882,33.1470588 339.047872,33.1710784 339.047872,33.2191176 L339.047872,33.2191176 L339.047872,33.2911765 L338.903841,33.4352941 L338.759811,33.7235294 L338.759811,33.7235294 L338.759811,33.7955882 C338.759811,33.8436275 338.711801,33.8676471 338.61578,33.8676471 L338.61578,33.8676471 L338.61578,34.1558824 C338.51976,34.1558824 338.47175,34.179902 338.47175,34.2279412 L338.47175,34.2279412 L338.47175,34.5882353 C338.375729,34.5882353 338.327719,34.6843137 338.327719,34.8764706 L338.327719,34.8764706 L338.327719,62.1147059 L338.47175,62.4029412 L338.47175,62.5470588 L338.61578,62.8352941 L338.61578,62.9794118 L338.759811,63.2676471 L338.903841,63.4117647 L339.047872,63.7 L339.479963,64.1323529 L339.768025,64.2764706 C339.768025,64.372549 339.816035,64.4205882 339.912055,64.4205882 L339.912055,64.4205882 L378.800299,90.3617647 C379.472441,90.8421569 380.144584,91.0823529 380.816726,91.0823529 Z M361.372604,44.1 L348.553887,35.4529412 L377.215963,16.4294118 L377.215963,33.4352941 L361.372604,44.1 Z M400.404878,44.1 L384.56152,33.4352941 L384.56152,16.4294118 L413.223596,35.4529412 L400.404878,44.1 Z M380.816726,57.0705882 L367.853978,48.4235294 L380.816726,39.7764706 L393.779474,48.4235294 L380.816726,57.0705882 Z M345.673276,54.6205882 L345.673276,42.3705882 L354.7472,48.4235294 L345.673276,54.6205882 Z M416.104206,54.6205882 L406.886252,48.4235294 L416.104206,42.3705882 L416.104206,54.6205882 Z M377.215963,80.5617647 L348.553887,61.3941176 L361.372604,52.8911765 L377.215963,63.4117647 L377.215963,80.5617647 Z M384.56152,80.5617647 L384.56152,63.4117647 L400.404878,52.8911765 L413.223596,61.3941176 L384.56152,80.5617647 Z M521.246495,26.5176471 C523.743024,26.5176471 525.855472,25.6289216 527.583838,23.8514706 C529.312204,22.0740196 530.176388,19.9843137 530.176388,17.5823529 C530.176388,15.1803922 529.312204,13.1147059 527.583838,11.3852941 C525.855472,9.65588235 523.743024,8.79117647 521.246495,8.79117647 C518.845986,8.79117647 516.781548,9.63186275 515.053182,11.3132353 C513.324815,12.9946078 512.460632,15.0843137 512.460632,17.5823529 C512.460632,20.0803922 513.324815,22.1941176 515.053182,23.9235294 C516.781548,25.6529412 518.845986,26.5176471 521.246495,26.5176471 Z M553.941425,82.5794118 L553.941425,58.0794118 C553.941425,54.2362745 554.565558,51.1857843 555.813822,48.9279412 C557.062087,46.670098 559.510606,45.5411765 563.159379,45.5411765 C566.616112,45.5411765 568.800575,46.7181373 569.712769,49.0720588 C570.624962,51.4259804 571.081059,54.572549 571.081059,58.5117647 L571.081059,58.5117647 L571.081059,82.5794118 L586.492326,82.5794118 L586.492326,55.4852941 C586.492326,47.895098 585.220056,42.0823529 582.675516,38.0470588 C580.130977,34.0117647 575.257944,31.9941176 568.056417,31.9941176 C564.599685,31.9941176 561.599049,32.7627451 559.054509,34.3 C556.50997,35.8372549 554.661578,37.7107843 553.509334,39.9205882 L553.509334,39.9205882 L553.221273,39.9205882 L553.221273,33.2911765 L538.530158,33.2911765 L538.530158,82.5794118 L553.941425,82.5794118 Z M529.024143,82.5794118 L529.024143,33.2911765 L513.612876,33.2911765 L513.612876,82.5794118 L529.024143,82.5794118 Z M681.120385,70.9058824 C685.15324,68.2156863 688.177881,66.2941176 690.194308,65.1411765 C690.962471,64.8529412 691.730634,64.7088235 692.498797,64.7088235 L692.498797,64.7088235 L693.36298,64.7088235 C695.475428,64.9009804 697.203794,65.0931373 698.548079,65.2852941 L698.548079,65.2852941 L702.868995,65.7176471 C702.772975,65.045098 702.724965,64.0362745 702.724965,62.6911765 C702.724965,55.2931373 705.461545,49 710.934705,43.8117647 C716.407865,38.3352941 723.705412,35.3568627 732.827346,34.8764706 C732.251224,29.7843137 730.474847,25.3166667 727.498216,21.4735294 C724.521585,17.5343137 720.704776,14.4598039 716.047789,12.25 C711.390802,10.0401961 706.469759,8.93529412 701.284659,8.93529412 C697.539866,8.93529412 693.939102,9.51176471 690.48237,10.6647059 C679.82411,14.1235294 673.054675,20.704902 670.174065,30.4088235 C669.501922,32.7147059 669.165851,35.0686275 669.165851,37.4705882 C669.165851,41.7941176 670.222075,45.8534314 672.334523,49.6485294 C674.44697,53.4436275 677.519622,56.7343137 681.552477,59.5205882 C682.51268,60.0970588 682.992782,60.8656863 682.992782,61.8264706 C682.992782,62.4029412 682.944772,62.8833333 682.848751,63.2676471 C682.46467,64.4205882 681.888548,66.9666667 681.120385,70.9058824 Z M689.618186,35.1647059 C688.561962,35.0686275 687.673774,34.6602941 686.953622,33.9397059 C686.233469,33.2191176 685.873393,32.3303922 685.873393,31.2735294 C685.969413,30.2166667 686.401504,29.3279412 687.169667,28.6073529 C687.93783,27.8867647 688.850024,27.5264706 689.906247,27.5264706 C690.866451,27.5264706 691.730634,27.8867647 692.498797,28.6073529 C693.26696,29.3279412 693.651041,30.1686275 693.651041,31.1294118 C693.651041,32.2823529 693.242955,33.2431373 692.426782,34.0117647 C691.610609,34.7803922 690.67441,35.1647059 689.618186,35.1647059 Z M714.103377,35.1647059 C713.047153,35.1647059 712.134959,34.8044118 711.366797,34.0838235 C710.598634,33.3632353 710.214552,32.4745098 710.214552,31.4176471 C710.214552,30.3607843 710.598634,29.4480392 711.366797,28.6794118 C712.134959,27.9107843 713.047153,27.5264706 714.103377,27.5264706 C715.159601,27.5264706 716.071794,27.8867647 716.839957,28.6073529 C717.60812,29.3279412 717.992201,30.2166667 717.992201,31.2735294 C717.992201,32.3303922 717.60812,33.2431373 716.839957,34.0117647 C716.071794,34.7803922 715.159601,35.1647059 714.103377,35.1647059 Z M751.839376,87.9117647 C751.839376,87.7196078 751.791366,87.4073529 751.695346,86.975 C751.599325,86.5426471 751.455295,86.1823529 751.263254,85.8941176 C750.687132,84.8372549 750.399071,83.9245098 750.399071,83.1558824 C750.399071,81.7147059 751.311264,80.177451 753.135651,78.5441176 C755.63218,76.4303922 757.504577,73.9803922 758.752842,71.1941176 C760.001106,68.4078431 760.625239,65.477451 760.625239,62.4029412 C760.625239,57.2147059 758.992893,52.5068627 755.7282,48.2794118 C753.135651,45.0127451 749.870959,42.4906863 745.934124,40.7132353 C741.99729,38.9357843 737.820404,38.0470588 733.403468,38.0470588 C727.450206,38.0470588 722.169087,39.5843137 717.56011,42.6588235 C713.911336,45.0607843 711.102741,47.9671569 709.134323,51.3779412 C707.165906,54.7887255 706.181698,58.3676471 706.181698,62.1147059 C706.181698,65.0931373 706.829835,68.047549 708.12611,70.9779412 C709.422384,73.9083333 711.366797,76.5745098 713.959346,78.9764706 C719.144445,83.8764706 725.385768,86.3264706 732.683315,86.3264706 C734.123621,86.3264706 735.227855,86.2784314 735.996018,86.1823529 C736.66816,86.0862745 737.772394,85.8460784 739.30872,85.4617647 C741.037086,84.8852941 742.429381,84.5970588 743.485605,84.5970588 C744.73387,84.5970588 746.606267,85.2696078 749.102796,86.6147059 L749.102796,86.6147059 L751.839376,87.9117647 Z M721.160873,58.2235294 C720.39271,58.2235294 719.696562,57.9352941 719.07243,57.3588235 C718.448298,56.7823529 718.088221,56.0617647 717.992201,55.1970588 C717.992201,54.3323529 718.304267,53.5637255 718.9284,52.8911765 C719.552532,52.2186275 720.3447,51.8823529 721.304903,51.8823529 C722.169087,51.8823529 722.913244,52.2186275 723.537377,52.8911765 C724.161509,53.5637255 724.473575,54.3323529 724.473575,55.1970588 C724.377555,56.0617647 724.017478,56.7823529 723.393346,57.3588235 C722.769214,57.9352941 722.025056,58.2235294 721.160873,58.2235294 Z M740.893056,58.2235294 C740.124893,58.2235294 739.428745,57.9352941 738.804613,57.3588235 C738.180481,56.7823529 737.868415,56.0617647 737.868415,55.1970588 L737.868415,55.1970588 L737.868415,54.9088235 C737.868415,54.1401961 738.180481,53.4436275 738.804613,52.8191176 C739.428745,52.1946078 740.172903,51.8823529 741.037086,51.8823529 C741.901269,51.8823529 742.621422,52.2186275 743.197544,52.8911765 C743.773666,53.5637255 744.061727,54.3323529 744.061727,55.1970588 C744.061727,56.0617647 743.749661,56.7823529 743.125529,57.3588235 C742.501397,57.9352941 741.757239,58.2235294 740.893056,58.2235294 Z M862.454825,80.1294118 C866.871761,80.1294118 871.024641,79.1926471 874.913466,77.3191176 C878.80229,75.4455882 882.090987,72.827451 884.779557,69.4647059 L884.779557,69.4647059 L881.034763,60.9617647 C879.306397,64.4205882 876.785862,67.1588235 873.47316,69.1764706 C870.160458,71.1941176 866.487679,72.2029412 862.454825,72.2029412 C858.710031,72.2029412 855.229293,71.2661765 852.012611,69.3926471 C848.795929,67.5191176 846.25139,64.9730392 844.378993,61.7544118 C842.506596,58.5357843 841.570397,55.0529412 841.570397,51.3058824 C841.570397,47.4627451 842.506596,43.9318627 844.378993,40.7132353 C846.25139,37.4946078 848.795929,34.9485294 852.012611,33.075 C855.229293,31.2014706 858.710031,30.2647059 862.454825,30.2647059 C866.67972,30.2647059 870.520534,31.4176471 873.977267,33.7235294 C877.434,36.0294118 879.978539,39.0558824 881.610885,42.8029412 L881.610885,42.8029412 L890.828839,63.7 L891.981084,66.15 C893.997511,70.6656863 896.49404,74.052451 899.470671,76.3102941 C902.447302,78.5681373 906.336127,79.745098 911.137144,79.8411765 C916.610304,79.8411765 921.195276,78.2558824 924.89206,75.0852941 C928.588844,71.9147059 930.437236,67.8794118 930.437236,62.9794118 C930.437236,58.4637255 929.308996,55.0289216 927.052518,52.675 C924.79604,50.3210784 921.027241,48.327451 915.746121,46.6941176 C914.977958,46.4058824 913.441633,45.9014706 911.137144,45.1808824 C908.832656,44.4602941 906.888244,43.5715686 905.303908,42.5147059 C903.719572,41.4578431 902.927404,39.7284314 902.927404,37.3264706 C902.927404,35.2127451 903.671562,33.4593137 905.159877,32.0661765 C906.648193,30.6730392 908.544595,29.9764706 910.849083,29.9764706 C914.017755,29.9764706 916.706325,31.4656863 918.914793,34.4441176 L918.914793,34.4441176 L924.964075,31.4176471 C921.987444,25.7490196 917.378467,22.9147059 911.137144,22.9147059 C906.336127,22.9147059 902.519317,24.2598039 899.686717,26.95 C896.854117,29.6401961 895.437816,33.1470588 895.437816,37.4705882 C895.437816,41.7941176 896.782101,45.1328431 899.470671,47.4867647 C902.159241,49.8406863 906.528167,52.0264706 912.57745,54.0441176 C916.322243,55.1970588 918.938798,56.3259804 920.427114,57.4308824 C921.915429,58.5357843 922.659587,60.2892157 922.659587,62.6911765 C922.659587,65.3813725 921.603363,67.6392157 919.490915,69.4647059 C917.378467,71.2901961 914.689897,72.2029412 911.425205,72.2029412 C907.872452,72.2029412 905.231892,71.4102941 903.503526,69.825 C901.77516,68.2397059 900.142814,65.6215686 898.606488,61.9705882 C898.030366,60.7215686 895.437816,54.7647059 890.828839,44.1 L890.828839,44.1 L889.100473,40.2088235 C886.603944,34.5401961 883.051191,30.1446078 878.442214,27.0220588 C873.833237,23.8995098 868.504107,22.3382353 862.454825,22.3382353 C857.269725,22.3382353 852.468708,23.6352941 848.051771,26.2294118 C843.634835,28.8235294 840.130092,32.3303922 837.537543,36.75 C834.944993,41.1696078 833.648718,46.0215686 833.648718,51.3058824 C833.648718,56.4941176 834.944993,61.2980392 837.537543,65.7176471 C840.130092,70.1372549 843.634835,73.6441176 848.051771,76.2382353 C852.468708,78.8323529 857.269725,80.1294118 862.454825,80.1294118 Z M1032.84294,98 C1034.95539,94.5411765 1036.77978,90.3617647 1038.3161,85.4617647 C1039.85243,80.5617647 1041.34075,74.9892157 1042.78105,68.7441176 C1043.16513,68.4558824 1043.52521,68.4318627 1043.86128,68.6720588 C1044.19735,68.9122549 1044.58143,69.3686275 1045.01352,70.0411765 C1045.44562,70.7137255 1045.75768,71.1460784 1045.94972,71.3382353 C1048.83033,73.5480392 1052.52712,74.6529412 1057.04007,74.6529412 C1060.49681,74.6529412 1063.97754,74.0284314 1067.48229,72.7794118 C1070.98703,71.5303922 1073.79562,69.9931373 1075.90807,68.1676471 C1079.94093,64.7088235 1083.08559,59.9529412 1085.34207,53.9 C1087.59855,47.8470588 1088.72679,41.65 1088.72679,35.3088235 C1088.72679,34.1558824 1088.63077,32.6186275 1088.43873,30.6970588 C1087.95863,25.8931373 1086.25427,21.3534314 1083.32565,17.0779412 C1080.39702,12.802451 1076.65223,9.27156863 1072.09126,6.48529412 C1067.5303,3.69901961 1062.60925,2.01764706 1057.32813,1.44117647 C1054.8316,1.24901961 1052.9112,1.15294118 1051.56691,1.15294118 C1044.17335,1.15294118 1037.3319,2.69019608 1031.04256,5.76470588 C1024.75323,8.83921569 1019.71216,13.1627451 1015.91936,18.7352941 C1012.12655,24.3078431 1010.18214,30.6970588 1010.08612,37.9029412 C1010.08612,43.7637255 1011.11834,48.4955882 1013.18278,52.0985294 C1015.24721,55.7014706 1018.72795,58.4637255 1023.62499,60.3852941 C1025.44938,58.5598039 1026.36157,56.7343137 1026.36157,54.9088235 C1026.36157,53.4676471 1025.64142,51.4019608 1024.20111,48.7117647 C1022.66479,45.8294118 1021.8006,43.4754902 1021.60856,41.65 C1021.51254,41.0735294 1021.46453,40.2088235 1021.46453,39.0558824 C1021.46453,34.1558824 1022.80882,29.4960784 1025.49739,25.0764706 C1028.18596,20.6568627 1031.76271,17.1019608 1036.22766,14.4117647 C1040.69261,11.7215686 1045.42161,10.3764706 1050.41467,10.3764706 C1055.31171,10.3764706 1060.0167,11.7215686 1064.52966,14.4117647 C1067.60231,16.2372549 1069.97882,19.2397059 1071.65917,23.4191176 C1073.33953,27.5985294 1074.17971,32.1862745 1074.17971,37.1823529 C1074.17971,43.9078431 1072.81142,49.9127451 1070.07484,55.1970588 C1067.33826,60.4813725 1063.56946,63.6039216 1058.76844,64.5647059 C1057.80824,64.7568627 1057.04007,64.8529412 1056.46395,64.8529412 C1055.02365,64.8529412 1053.63135,64.6367647 1052.28707,64.2044118 C1050.94278,63.7720588 1049.88656,63.2196078 1049.11839,62.5470588 C1047.29401,60.8176471 1046.38181,58.7039216 1046.38181,56.2058824 C1046.38181,54.7647059 1046.59786,53.2754902 1047.02995,51.7382353 C1047.46204,50.2009804 1048.15819,48.2313725 1049.11839,45.8294118 C1050.0786,43.1392157 1050.82276,40.9053922 1051.35087,39.1279412 C1051.87898,37.3504902 1052.14303,35.5490196 1052.14303,33.7235294 C1052.14303,31.8019608 1051.80696,30.1205882 1051.13482,28.6794118 C1049.79054,25.5088235 1047.67809,23.9235294 1044.79748,23.9235294 C1042.20493,23.9235294 1039.68439,25.0764706 1037.23587,27.3823529 C1034.78736,29.6882353 1033.37106,32.3303922 1032.98697,35.3088235 C1032.89095,35.7892157 1032.84294,36.5098039 1032.84294,37.4705882 C1032.84294,39.0078431 1033.131,41.1215686 1033.70713,43.8117647 C1034.28325,46.3098039 1034.57131,48.1352941 1034.57131,49.2882353 C1034.57131,51.8823529 1034.18723,54.7166667 1033.41907,57.7911765 C1032.6509,60.8656863 1031.59468,64.5647059 1030.25039,68.8882353 C1028.32999,75.3254902 1027.17774,79.7931373 1026.79366,82.2911765 C1026.31356,84.8852941 1026.07351,88.1039216 1026.07351,91.9470588 C1026.07351,94.445098 1026.21754,96.4627451 1026.5056,98 L1026.5056,98 L1032.84294,98 Z M1210.57662,88.7764706 C1212.68907,88.7764706 1214.56146,88.2 1216.19381,87.0470588 C1219.9386,84.5490196 1224.59559,80.5857843 1230.16477,75.1573529 C1235.73395,69.7289216 1241.01507,63.2196078 1246.00813,55.6294118 C1251.00119,48.0392157 1254.21787,40.1607843 1255.65818,31.9941176 C1255.94624,30.3607843 1256.09027,28.8715686 1256.09027,27.5264706 C1256.09027,23.1068627 1254.86601,19.7681373 1252.41749,17.5102941 C1249.96897,15.252451 1246.8243,14.1235294 1242.98349,14.1235294 C1239.7188,14.1235294 1236.4061,14.9401961 1233.04538,16.5735294 C1229.68467,18.2068627 1226.78005,20.5367647 1224.33154,23.5632353 C1221.88302,26.5897059 1220.32269,30.1205882 1219.65054,34.1558824 C1221.85901,32.9068627 1223.82743,32.2823529 1225.5558,32.2823529 C1227.38018,32.2823529 1228.84449,32.9068627 1229.94873,34.1558824 C1231.05296,35.404902 1231.60508,37.0382353 1231.60508,39.0558824 C1231.60508,41.1696078 1230.93294,43.4754902 1229.58865,45.9735294 C1226.9961,50.777451 1224.6436,54.5485294 1222.53115,57.2867647 C1220.41871,60.025 1218.78636,61.3941176 1217.63412,61.3941176 C1216.57789,61.3941176 1215.54567,60.0490196 1214.53746,57.3588235 C1213.52925,54.6686275 1212.25698,50.2970588 1210.72065,44.2441176 C1210.04851,41.5539216 1209.5204,38.7196078 1209.13631,35.7411765 C1207.98407,28.9196078 1206.66379,23.7073529 1205.17547,20.1044118 C1203.68716,16.5014706 1201.26265,14.7 1197.90193,14.7 C1197.13377,14.7 1196.55765,14.7480392 1196.17357,14.8441176 C1196.17357,14.6519608 1194.87729,15.1323529 1192.28474,16.2852941 C1189.69219,17.4382353 1186.49952,19.4558824 1182.70671,22.3382353 C1178.91391,25.2205882 1174.85705,29.2558824 1170.53613,34.4441176 L1170.53613,34.4441176 L1173.99286,39.0558824 C1176.9695,36.6539216 1179.46603,35.4529412 1181.48245,35.4529412 C1182.15459,35.4529412 1182.6587,35.5490196 1182.99477,35.7411765 C1183.33084,35.9333333 1183.54689,36.077451 1183.64291,36.1735294 C1184.21903,36.8460784 1185.25125,39.4642157 1186.73957,44.0279412 C1188.22788,48.5916667 1189.7402,53.4196078 1191.27653,58.5117647 C1195.02132,70.7137255 1197.32581,77.6794118 1198.18999,79.4088235 C1199.34224,81.8107843 1201.0466,83.972549 1203.30308,85.8941176 C1205.55956,87.8156863 1207.98407,88.7764706 1210.57662,88.7764706 Z M1367.85796,87.1911765 C1378.32418,87.1911765 1387.42211,84.6691176 1395.15175,79.625 C1402.88138,74.5808824 1408.78664,68.1196078 1412.8675,60.2411765 C1416.94837,52.3627451 1418.9888,44.2921569 1418.9888,36.0294118 L1418.9888,36.0294118 L1418.84477,33.7235294 C1422.49354,31.2254902 1425.47017,28.1029412 1427.77466,24.3558824 C1424.50997,25.8931373 1421.10125,26.8539216 1417.54849,27.2382353 C1421.29329,24.9323529 1423.93385,21.6176471 1425.47017,17.2941176 C1422.01344,19.4078431 1418.17263,20.8490196 1413.94773,21.6176471 C1412.31538,19.8882353 1410.37097,18.5191176 1408.11449,17.5102941 C1405.85802,16.5014706 1403.4335,15.9970588 1400.84095,15.9970588 C1397.67228,15.9970588 1394.71965,16.8137255 1391.98307,18.4470588 C1389.24649,20.0803922 1387.06203,22.2661765 1385.42969,25.0044118 C1383.79734,27.7426471 1382.98117,30.745098 1382.98117,34.0117647 C1382.98117,35.3568627 1383.1252,36.7019608 1383.41326,38.0470588 C1376.11571,37.6627451 1369.25026,35.8132353 1362.81689,32.4985294 C1356.38353,29.1838235 1350.91037,24.7882353 1346.39741,19.3117647 C1344.86109,22.0980392 1344.09292,25.1245098 1344.09292,28.3911765 C1344.09292,31.4656863 1344.78907,34.3240196 1346.18137,36.9661765 C1347.57366,39.6083333 1349.51807,41.7460784 1352.0146,43.3794118 C1349.13399,43.2833333 1346.44542,42.5147059 1343.94889,41.0735294 C1343.94889,45.4931373 1345.29318,49.3602941 1347.98175,52.675 C1350.67032,55.9897059 1354.07904,58.0313725 1358.20792,58.8 C1357.05567,59.2803922 1355.47133,59.5205882 1353.45491,59.5205882 C1352.78277,59.5205882 1351.67853,59.4245098 1350.14221,59.2323529 C1351.29445,62.8833333 1353.4069,65.8617647 1356.47955,68.1676471 C1359.5522,70.4735294 1363.00893,71.6264706 1366.84975,71.6264706 C1363.7771,74.0284314 1360.34437,75.9019608 1356.55156,77.2470588 C1352.75876,78.5921569 1348.79792,79.2647059 1344.66905,79.2647059 C1342.74864,79.2647059 1341.30833,79.1686275 1340.34813,78.9764706 C1348.7019,84.4529412 1357.87184,87.1911765 1367.85796,87.1911765 Z M1581.45524,81.4264706 L1594.85008,81.1382353 C1596.19436,81.1382353 1597.25059,80.9460784 1598.01875,80.5617647 C1598.69089,80.177451 1599.12298,79.6970588 1599.31503,79.1205882 C1599.41105,78.5441176 1599.41105,77.9196078 1599.31503,77.2470588 L1599.31503,77.2470588 L1598.88293,75.95 C1598.78691,75.8539216 1598.7389,75.7338235 1598.7389,75.5897059 C1598.7389,75.4455882 1598.69089,75.3254902 1598.59487,75.2294118 C1596.77049,71.8666667 1593.40977,68.0235294 1588.51274,63.7 L1588.51274,63.7 L1588.51274,63.5558824 L1588.3687,63.4117647 L1588.22467,63.4117647 C1585.82417,61.0098039 1584.43187,59.5686275 1584.04779,59.0882353 C1583.37565,58.3196078 1583.03958,57.454902 1583.03958,56.4941176 C1583.03958,56.2058824 1583.1356,55.677451 1583.32764,54.9088235 C1583.42366,54.3323529 1584.28784,52.9872549 1585.92019,50.8735294 C1586.88039,49.7205882 1587.60054,48.7598039 1588.08064,47.9911765 L1588.08064,47.9911765 L1591.39335,43.5235294 C1597.53865,35.3568627 1600.17921,30.2166667 1599.31503,28.1029412 L1599.31503,28.1029412 L1599.02696,27.5264706 C1598.7389,27.2382353 1598.21079,26.95 1597.44263,26.6617647 C1596.67447,26.4696078 1596.05033,26.3735294 1595.57023,26.3735294 L1595.57023,26.3735294 L1593.9859,26.5176471 L1578.86269,26.6617647 C1578.67065,26.4696078 1578.33458,26.4696078 1577.85448,26.6617647 L1577.85448,26.6617647 L1577.13432,26.8058824 L1576.84626,26.95 L1576.70223,27.0941176 C1576.47178,27.3247059 1576.31047,27.4861176 1576.21829,27.5783529 L1576.12611,27.6705882 C1575.93407,27.8627451 1575.74203,28.1509804 1575.54999,28.5352941 C1574.30172,31.9941176 1572.42933,35.9333333 1569.9328,40.3529412 C1568.58851,42.754902 1567.38826,44.6764706 1566.33203,46.1176471 C1565.37183,47.654902 1564.50765,48.8078431 1563.73948,49.5764706 C1563.64346,49.672549 1563.54894,49.7671262 1563.45592,49.8602022 L1562.65925,50.6573529 C1562.32318,50.9936275 1562.01112,51.2578431 1561.72306,51.45 C1561.24295,51.8343137 1560.76285,52.0264706 1560.28275,52.0264706 L1560.28275,52.0264706 L1559.41857,51.7382353 C1558.93847,51.45 1558.55438,51.0176471 1558.26632,50.4411765 C1557.88224,49.8647059 1557.6902,49.1921569 1557.6902,48.4235294 C1557.49816,47.2705882 1557.40214,46.55 1557.40214,46.2617647 C1557.40214,45.3009804 1557.45015,44.4843137 1557.54617,43.8117647 L1557.54617,43.8117647 L1557.54617,37.1823529 C1557.64219,36.2215686 1557.6902,35.0205882 1557.6902,33.5794118 C1557.78622,32.9068627 1557.83423,31.9460784 1557.83423,30.6970588 C1557.83423,29.8323529 1557.73821,29.0156863 1557.54617,28.2470588 C1557.54617,27.8627451 1557.49816,27.5264706 1557.40214,27.2382353 C1557.30612,26.95 1557.2101,26.7098039 1557.11408,26.5176471 C1556.82602,26.0372549 1556.44194,25.6529412 1555.96184,25.3647059 C1555.38571,24.9803922 1554.80959,24.7401961 1554.23347,24.6441176 C1552.12102,24.1637255 1549.76852,23.9235294 1547.17597,23.9235294 C1540.26251,23.9235294 1536.08562,24.3558824 1534.64532,25.2205882 C1533.87715,25.5088235 1533.20501,26.0372549 1532.62889,26.8058824 C1532.24481,27.1901961 1532.05277,27.4784314 1532.05277,27.6705882 C1532.05277,27.8627451 1532.14879,27.9588235 1532.34083,27.9588235 C1534.45328,28.3431373 1535.94159,29.1117647 1536.80577,30.2647059 L1536.80577,30.2647059 L1537.09384,30.9852941 C1537.47792,31.5617647 1537.71797,32.3303922 1537.81399,33.2911765 C1538.10205,34.4441176 1538.24608,35.7411765 1538.24608,37.1823529 C1538.43812,38.9117647 1538.53414,40.1127451 1538.53414,40.7852941 C1538.53414,41.5539216 1538.43812,42.5147059 1538.24608,43.6676471 L1538.24608,43.6676471 L1537.81399,47.9911765 C1537.71797,48.9519608 1537.47792,49.7686275 1537.09384,50.4411765 L1537.09384,50.4411765 L1536.51771,51.5941176 L1536.22965,51.8823529 C1535.65353,52.0745098 1535.17343,52.1705882 1534.78935,52.1705882 C1534.40527,52.1705882 1533.82914,51.9303922 1533.06098,51.45 C1532.10078,50.6813725 1531.38062,50.0088235 1530.90052,49.4323529 C1530.22838,48.6637255 1529.3642,47.4627451 1528.30797,45.8294118 C1527.73185,44.8686275 1527.20374,43.9318627 1526.72364,43.0191176 C1526.24354,42.1063725 1525.76343,41.2176471 1525.28333,40.3529412 L1525.28333,40.3529412 L1524.56318,38.7676471 L1522.40272,34.4441176 C1521.73058,33.195098 1520.91441,31.4176471 1519.9542,29.1117647 C1519.66614,28.3431373 1519.23405,27.7666667 1518.65793,27.3823529 L1518.65793,27.3823529 L1518.36987,27.2382353 L1517.64971,26.8058824 C1517.07359,26.6137255 1516.6415,26.5176471 1516.35344,26.5176471 L1516.35344,26.5176471 L1501.95039,26.5176471 C1500.51008,26.5176471 1499.54988,26.8539216 1499.06978,27.5264706 L1499.06978,27.5264706 L1498.78171,27.8147059 C1498.68569,28.0068627 1498.63768,28.295098 1498.63768,28.6794118 C1498.63768,28.8715686 1498.7337,29.3519608 1498.92574,30.1205882 C1501.13421,35.0205882 1503.4387,39.7764706 1505.83921,44.3882353 C1508.23972,48.8078431 1510.35217,52.5068627 1512.17655,55.4852941 C1513.8089,58.0794118 1515.6813,60.7215686 1517.79374,63.4117647 L1517.79374,63.4117647 L1521.53854,68.1676471 L1522.97884,69.7529412 L1524.27512,71.05 C1525.04328,71.8186275 1526.29155,72.827451 1528.01991,74.0764706 C1529.07614,74.845098 1530.85251,75.9980392 1533.34904,77.5352941 C1535.17343,78.5921569 1537.47792,79.504902 1540.26251,80.2735294 C1542.95108,80.9460784 1545.54363,81.2343137 1548.04016,81.1382353 L1548.04016,81.1382353 L1553.94541,81.1382353 C1555.09765,81.1382353 1556.05786,80.7539216 1556.82602,79.9852941 L1556.82602,79.9852941 L1557.40214,78.8323529 C1557.49816,78.5441176 1557.54617,78.0637255 1557.54617,77.3911765 C1557.54617,75.8539216 1557.6902,74.4607843 1557.97826,73.2117647 C1558.1703,72.0588235 1558.45836,71.1941176 1558.84245,70.6176471 C1559.03449,70.1372549 1559.41857,69.6088235 1559.99469,69.0323529 L1559.99469,69.0323529 L1560.85887,68.1676471 L1561.29096,68.0235294 C1562.05913,67.7352941 1563.01933,68.0235294 1564.17158,68.8882353 C1565.41984,69.8490196 1566.52407,70.8578431 1567.48428,71.9147059 C1569.50071,74.2205882 1570.70096,75.5656863 1571.08504,75.95 C1571.75718,76.8147059 1572.95744,77.9676471 1574.6858,79.4088235 L1574.6858,79.4088235 L1575.69402,79.9852941 C1576.46218,80.4656863 1577.37437,80.85 1578.4306,81.1382353 C1579.00672,81.3303922 1579.77488,81.4264706 1580.73509,81.4264706 L1580.73509,81.4264706 L1581.45524,81.4264706 Z M1721.02082,92.6676471 L1721.02082,49.5764706 L1733.69551,49.5764706 L1735.56791,34.7323529 L1721.02082,34.7323529 L1721.02082,25.3647059 C1721.02082,22.9627451 1721.52493,21.1612745 1722.53315,19.9602941 C1723.54136,18.7593137 1725.43776,18.1588235 1728.22235,18.1588235 L1728.22235,18.1588235 L1736,18.1588235 L1736,5.04411765 C1732.54327,4.65980392 1728.79847,4.46764706 1724.76562,4.46764706 C1719.0044,4.46764706 1714.39542,6.17303922 1710.93869,9.58382353 C1707.48195,12.9946078 1705.75359,17.7745098 1705.75359,23.9235294 L1705.75359,23.9235294 L1705.75359,34.7323529 L1693.0789,34.7323529 L1693.0789,49.5764706 L1705.75359,49.5764706 L1705.75359,92.6676471 L1721.02082,92.6676471 Z" id="flist-sni" fill="#FFFFFF" fill-rule="nonzero"></path>
    </g>
</svg>