<svg viewBox="0 0 1736 164" xmlns="http://www.w3.org/2000/svg"><path d="M46.234 89.065c7.297 0 14.067-1.273 20.308-3.82 6.241-2.545 11.186-6.004 14.835-10.376 3.649-4.371 5.473-9.151 5.473-14.34 0-1.537-.048-2.69-.144-3.458 2.017-.961 3.673-2.378 4.97-4.252 1.296-1.873 1.944-3.915 1.944-6.125 0-3.17-1.152-5.86-3.457-8.07-2.304-2.21-5.089-3.315-8.354-3.315-3.456 0-6.337 1.249-8.641 3.747-7.106-4.324-15.268-6.726-24.486-7.206l3.313-18.015 11.09 3.46-.144 1.44c0 2.979 1.057 5.549 3.169 7.71 2.112 2.162 4.657 3.243 7.634 3.243 2.976 0 5.52-1.08 7.633-3.242 2.113-2.162 3.169-4.732 3.169-7.71 0-2.98-1.056-5.525-3.169-7.639-2.112-2.114-4.657-3.17-7.633-3.17-2.113 0-3.985.504-5.618 1.513a9.976 9.976 0 00-3.744 4.107l-13.395-4.18c-.48-.288-1.056-.24-1.729.145-.384.192-.672.672-.864 1.44L44.505 31.85c-9.314.288-17.475 2.498-24.485 6.63-2.304-2.114-5.04-3.171-8.21-3.171-3.264 0-6.049 1.105-8.353 3.315C1.152 40.834 0 43.524 0 46.694c0 2.018.528 3.891 1.584 5.62 1.057 1.73 2.449 3.075 4.177 4.036-.288 1.249-.432 2.642-.432 4.18 0 5.188 1.825 9.968 5.473 14.34 3.65 4.37 8.618 7.83 14.907 10.376 6.29 2.546 13.131 3.819 20.525 3.819zm-14.26-34.156c-1.44 0-2.664-.505-3.672-1.513-1.008-1.01-1.512-2.282-1.512-3.82 0-1.44.504-2.666 1.512-3.675 1.008-1.008 2.232-1.513 3.673-1.513 1.44 0 2.688.505 3.745 1.513 1.056 1.01 1.584 2.234 1.584 3.675 0 1.538-.528 2.81-1.584 3.82-1.057 1.008-2.305 1.513-3.745 1.513zm29.383 0c-1.44 0-2.665-.505-3.673-1.513-1.008-1.01-1.512-2.282-1.512-3.82 0-1.44.504-2.666 1.512-3.675 1.008-1.008 2.233-1.513 3.673-1.513s2.689.505 3.745 1.513c1.056 1.01 1.584 2.234 1.584 3.675 0 1.538-.528 2.81-1.584 3.82-1.056 1.008-2.305 1.513-3.745 1.513zM46.522 73.068c-3.457 0-6.77-.48-9.938-1.442-2.88-.672-5.281-1.921-7.202-3.747-.384-.384-.576-.864-.576-1.44 0-.77.192-1.346.576-1.73.48-.48 1.056-.72 1.729-.72.768 0 1.344.24 1.728.72.864 1.057 2.496 1.921 4.897 2.594 3.265.769 6.193 1.153 8.786 1.153 2.496 0 5.377-.384 8.642-1.153 2.496-.769 4.225-1.633 5.185-2.594.384-.48.912-.72 1.584-.72s1.2.24 1.584.72c.48.384.72.913.72 1.585 0 .673-.24 1.201-.72 1.585-1.632 1.73-3.984 2.979-7.057 3.747-3.169.961-6.481 1.442-9.938 1.442zm167.22 24.211c8.833 0 16.97-2.185 24.412-6.557s13.347-10.256 17.716-17.654c4.37-7.398 6.554-15.517 6.554-24.356 0-8.84-2.185-16.982-6.554-24.428-4.369-7.446-10.274-13.355-17.716-17.727C230.713 2.186 222.575 0 213.741 0s-16.971 2.186-24.413 6.557c-7.441 4.372-13.347 10.28-17.716 17.727-4.369 7.446-6.553 15.589-6.553 24.428s2.184 16.958 6.553 24.356c4.37 7.398 10.275 13.282 17.716 17.654 7.442 4.372 15.58 6.557 24.413 6.557zm5.76-63.267c-4.897-9.032-10.322-17.198-16.275-24.5 3.84-.961 7.346-1.441 10.514-1.441 5.281 0 10.37 1.008 15.268 3.026 4.897 2.018 9.218 4.852 12.962 8.503-7.297 6.149-14.787 10.953-22.468 14.412zm-40.76 8.647c-1.344 0-3.073-.096-5.185-.288 1.056-6.342 3.48-12.13 7.273-17.367 3.793-5.236 8.57-9.343 14.331-12.322 6.146 7.206 11.667 15.277 16.564 24.212-10.946 3.843-21.94 5.765-32.983 5.765zm75.616 5.909c-5.377-1.345-10.514-2.018-15.411-2.018a68.82 68.82 0 00-13.251 1.297l-1.44-3.603-1.297-3.026c8.642-3.94 16.708-9.08 24.197-15.42 4.61 6.82 7.01 14.41 7.202 22.77zm-70.287 27.67c-3.265-3.555-5.833-7.518-7.706-11.89a38.576 38.576 0 01-3.096-13.763c1.344.096 3.216.144 5.617.144 12.867 0 25.061-2.113 36.584-6.34a44.38 44.38 0 001.08 2.593c.432.961.84 2.018 1.224 3.17-6.817 2.307-13.107 5.694-18.868 10.161-5.761 4.468-10.706 9.776-14.835 15.925zm50.267 7.35c-1.249-10.184-3.217-19.504-5.906-27.959 4.225-.672 7.73-1.008 10.515-1.008 4.609 0 9.458.672 14.547 2.017-1.056 5.669-3.265 10.833-6.626 15.493-3.36 4.66-7.537 8.479-12.53 11.457zm-20.597 5.62c-8.546 0-16.42-2.497-23.62-7.493 3.552-5.669 7.945-10.545 13.178-14.628a58.074 58.074 0 0117.212-9.296 134.18 134.18 0 015.905 29.4c-4.32 1.345-8.546 2.018-12.675 2.018zm167.076 1.874c.672 0 1.344-.24 2.016-.72l38.888-25.941h.216c.048 0 .072-.048.072-.145.096 0 .144-.024.144-.072v-.072c.097 0 .145-.024.145-.072v-.072l.288-.144c0-.096.048-.144.144-.144l.144-.288v-.144l.144-.289.144-.144v-.288c.096 0 .144-.024.144-.072v-.36c0-.096.048-.144.144-.144V35.02c-.096 0-.144-.024-.144-.072v-.36l-.144-.289v-.144l-.144-.288v-.072c0-.048-.048-.072-.144-.072v-.289c-.096 0-.144-.024-.144-.072v-.072c-.096 0-.144-.024-.144-.072v-.072l-.577-.576h-.072c-.048 0-.072-.048-.072-.145h-.144l-38.888-25.94c-.672-.481-1.344-.721-2.016-.721-.576 0-1.249.24-2.017.72l-38.888 25.941-.144.145-.288.144c0 .096-.024.144-.072.144h-.072l-.144.288c-.096 0-.144.024-.144.072v.072l-.144.144-.144.289v.072c0 .048-.048.072-.144.072v.288c-.096 0-.144.024-.144.072v.36c-.096 0-.144.096-.144.288v27.239l.144.288v.144l.144.288v.144l.144.289.144.144.144.288.432.432.288.144c0 .097.048.145.144.145L378.8 90.36c.672.481 1.345.721 2.017.721zM361.373 44.1l-12.82-8.647 28.663-19.024v17.006L361.373 44.1zm39.032 0l-15.843-10.665V16.43l28.662 19.024-12.82 8.647zm-19.588 12.97l-12.963-8.646 12.963-8.648 12.962 8.648-12.962 8.647zm-35.144-2.45V42.37l9.074 6.054-9.074 6.197zm70.431 0l-9.218-6.196 9.218-6.053v12.25zm-38.888 25.942l-28.662-19.168 12.819-8.503 15.843 10.52v17.15zm7.346 0v-17.15l15.843-10.52 12.819 8.502-28.662 19.168zm136.684-54.044c2.497 0 4.61-.89 6.338-2.667 1.728-1.777 2.592-3.867 2.592-6.269s-.864-4.467-2.592-6.197c-1.729-1.73-3.841-2.594-6.338-2.594-2.4 0-4.464.84-6.193 2.522-1.728 1.682-2.592 3.771-2.592 6.27 0 2.497.864 4.611 2.592 6.34 1.729 1.73 3.793 2.595 6.193 2.595zm32.695 56.061v-24.5c0-3.843.625-6.893 1.873-9.151s3.697-3.387 7.345-3.387c3.457 0 5.642 1.177 6.554 3.531.912 2.354 1.368 5.5 1.368 9.44v24.067h15.411V55.485c0-7.59-1.272-13.403-3.816-17.438-2.545-4.035-7.418-6.053-14.62-6.053-3.456 0-6.457.769-9.001 2.306-2.545 1.537-4.393 3.41-5.546 5.62h-.288v-6.629h-14.69V82.58h15.41zm-24.917 0V33.291h-15.411V82.58h15.411zM681.12 70.906c4.033-2.69 7.058-4.612 9.074-5.765a6.52 6.52 0 012.305-.432h.864c2.112.192 3.84.384 5.185.576l4.321.433c-.096-.673-.144-1.682-.144-3.027 0-7.398 2.737-13.691 8.21-18.88 5.473-5.476 12.77-8.454 21.892-8.935-.576-5.092-2.352-9.56-5.329-13.402-2.976-3.94-6.793-7.014-11.45-9.224-4.657-2.21-9.578-3.315-14.763-3.315-3.745 0-7.346.577-10.803 1.73-10.658 3.459-17.427 10.04-20.308 19.744a25.109 25.109 0 00-1.008 7.062c0 4.323 1.056 8.382 3.169 12.178 2.112 3.795 5.185 7.085 9.217 9.872.96.576 1.44 1.345 1.44 2.305 0 .577-.047 1.057-.143 1.442-.384 1.153-.96 3.699-1.729 7.638zm8.498-35.741c-1.056-.096-1.944-.505-2.664-1.225-.72-.72-1.08-1.61-1.08-2.666a4.04 4.04 0 011.296-2.667 3.864 3.864 0 012.736-1.08c.96 0 1.825.36 2.593 1.08.768.72 1.152 1.562 1.152 2.522 0 1.153-.408 2.114-1.224 2.883-.816.768-1.753 1.153-2.809 1.153zm24.485 0a3.864 3.864 0 01-2.736-1.081c-.768-.72-1.152-1.61-1.152-2.666 0-1.057.384-1.97 1.152-2.739.768-.768 1.68-1.153 2.736-1.153 1.057 0 1.969.36 2.737 1.081.768.72 1.152 1.61 1.152 2.667 0 1.056-.384 1.97-1.152 2.738-.768.768-1.68 1.153-2.737 1.153zm37.736 52.747c0-.192-.048-.505-.144-.937-.096-.432-.24-.793-.432-1.08-.576-1.058-.864-1.97-.864-2.74 0-1.44.912-2.978 2.737-4.61 2.496-2.115 4.369-4.565 5.617-7.35a21.264 21.264 0 001.872-8.792c0-5.188-1.632-9.896-4.897-14.124-2.592-3.266-5.857-5.788-9.794-7.566-3.937-1.777-8.114-2.666-12.53-2.666-5.954 0-11.235 1.537-15.844 4.612-3.649 2.402-6.457 5.308-8.426 8.719-1.968 3.41-2.952 6.99-2.952 10.737 0 2.978.648 5.933 1.944 8.863 1.296 2.93 3.24 5.597 5.833 7.998 5.185 4.9 11.427 7.35 18.724 7.35 1.44 0 2.545-.048 3.313-.144.672-.096 1.776-.336 3.313-.72 1.728-.577 3.12-.865 4.177-.865 1.248 0 3.12.673 5.617 2.018l2.736 1.297zm-30.678-29.688c-.768 0-1.464-.289-2.089-.865-.624-.577-.984-1.297-1.08-2.162 0-.865.312-1.633.936-2.306.625-.672 1.417-1.009 2.377-1.009.864 0 1.608.337 2.232 1.01.625.672.937 1.44.937 2.305-.096.865-.457 1.585-1.08 2.162a3.177 3.177 0 01-2.233.865zm19.732 0c-.768 0-1.464-.289-2.088-.865-.625-.577-.937-1.297-.937-2.162v-.288c0-.769.312-1.465.937-2.09.624-.624 1.368-.937 2.232-.937.864 0 1.584.337 2.16 1.01.577.672.865 1.44.865 2.305 0 .865-.312 1.585-.936 2.162a3.177 3.177 0 01-2.233.865zm121.562 21.905c4.417 0 8.57-.936 12.458-2.81a28.074 28.074 0 009.867-7.854l-3.745-8.503c-1.729 3.459-4.25 6.197-7.562 8.214-3.313 2.018-6.985 3.027-11.018 3.027-3.745 0-7.226-.937-10.442-2.81a20.797 20.797 0 01-7.634-7.639c-1.872-3.218-2.809-6.701-2.809-10.448 0-3.843.937-7.374 2.809-10.593a20.797 20.797 0 017.634-7.638c3.216-1.874 6.697-2.81 10.442-2.81 4.225 0 8.066 1.153 11.522 3.459 3.457 2.305 6.002 5.332 7.634 9.079l9.218 20.897 1.152 2.45c2.017 4.516 4.513 7.902 7.49 10.16 2.976 2.258 6.865 3.435 11.666 3.531 5.473 0 10.058-1.585 13.755-4.756 3.697-3.17 5.545-7.206 5.545-12.106 0-4.515-1.128-7.95-3.384-10.304-2.257-2.354-6.026-4.348-11.307-5.98-.768-.29-2.304-.794-4.609-1.514-2.304-.72-4.249-1.61-5.833-2.666-1.584-1.057-2.377-2.787-2.377-5.189 0-2.113.745-3.867 2.233-5.26 1.488-1.393 3.385-2.09 5.69-2.09 3.168 0 5.856 1.49 8.065 4.468l6.05-3.026c-2.978-5.669-7.587-8.503-13.828-8.503-4.8 0-8.618 1.345-11.45 4.035-2.833 2.69-4.25 6.197-4.25 10.52 0 4.324 1.345 7.663 4.034 10.017 2.688 2.354 7.057 4.54 13.106 6.557 3.745 1.153 6.362 2.282 7.85 3.387 1.488 1.105 2.233 2.858 2.233 5.26 0 2.69-1.057 4.948-3.17 6.774-2.112 1.825-4.8 2.738-8.065 2.738-3.553 0-6.193-.793-7.921-2.378-1.729-1.585-3.361-4.203-4.898-7.854-.576-1.25-3.168-7.206-7.777-17.871l-1.729-3.891c-2.496-5.669-6.049-10.064-10.658-13.187-4.609-3.122-9.938-4.684-15.987-4.684-5.185 0-9.986 1.297-14.403 3.891-4.417 2.595-7.922 6.101-10.514 10.521-2.593 4.42-3.89 9.272-3.89 14.556 0 5.188 1.297 9.992 3.89 14.412 2.592 4.42 6.097 7.926 10.514 10.52 4.417 2.594 9.218 3.891 14.403 3.891zM1032.843 98c2.112-3.459 3.937-7.638 5.473-12.538s3.025-10.473 4.465-16.718c.384-.288.744-.312 1.08-.072.336.24.72.697 1.153 1.37.432.672.744 1.104.936 1.296 2.88 2.21 6.577 3.315 11.09 3.315 3.457 0 6.938-.625 10.442-1.874 3.505-1.249 6.314-2.786 8.426-4.611 4.033-3.46 7.178-8.215 9.434-14.268 2.257-6.053 3.385-12.25 3.385-18.591 0-1.153-.096-2.69-.288-4.612-.48-4.804-2.185-9.344-5.113-13.62-2.929-4.275-6.674-7.805-11.235-10.592-4.56-2.786-9.482-4.467-14.763-5.044-2.496-.192-4.417-.288-5.761-.288-7.394 0-14.235 1.537-20.524 4.612-6.29 3.074-11.33 7.398-15.124 12.97-3.792 5.573-5.737 11.962-5.833 19.168 0 5.86 1.032 10.593 3.097 14.196 2.064 3.602 5.545 6.365 10.442 8.286 1.824-1.825 2.737-3.65 2.737-5.476 0-1.441-.72-3.507-2.16-6.197-1.537-2.883-2.401-5.237-2.593-7.062-.096-.576-.144-1.441-.144-2.594 0-4.9 1.344-9.56 4.032-13.98 2.689-4.42 6.266-7.974 10.73-10.664 4.466-2.69 9.195-4.036 14.188-4.036 4.897 0 9.602 1.346 14.115 4.036 3.072 1.825 5.449 4.828 7.13 9.007 1.68 4.18 2.52 8.767 2.52 13.763 0 6.726-1.369 12.73-4.105 18.015-2.737 5.284-6.506 8.407-11.307 9.368-.96.192-1.728.288-2.304.288-1.44 0-2.833-.216-4.177-.649-1.344-.432-2.4-.984-3.169-1.657-1.824-1.73-2.736-3.843-2.736-6.341 0-1.441.216-2.93.648-4.468.432-1.537 1.128-3.507 2.088-5.909.96-2.69 1.705-4.924 2.233-6.701.528-1.778.792-3.579.792-5.404 0-1.922-.336-3.603-1.008-5.045-1.344-3.17-3.457-4.755-6.338-4.755-2.592 0-5.113 1.152-7.561 3.458-2.449 2.306-3.865 4.948-4.249 7.927-.096.48-.144 1.2-.144 2.162 0 1.537.288 3.65.864 6.34.576 2.499.864 4.324.864 5.477 0 2.594-.384 5.429-1.152 8.503-.768 3.075-1.824 6.774-3.169 11.097-1.92 6.437-3.072 10.905-3.456 13.403-.48 2.594-.72 5.813-.72 9.656 0 2.498.144 4.516.432 6.053h6.337zm177.734-9.224c2.112 0 3.984-.576 5.617-1.729 3.745-2.498 8.402-6.461 13.97-11.89 5.57-5.428 10.851-11.937 15.844-19.528 4.993-7.59 8.21-15.468 9.65-23.635.288-1.633.432-3.122.432-4.468 0-4.42-1.224-7.758-3.673-10.016-2.448-2.258-5.593-3.386-9.434-3.386-3.264 0-6.577.816-9.938 2.45-3.36 1.633-6.265 3.963-8.713 6.99-2.449 3.026-4.01 6.557-4.681 10.592 2.208-1.25 4.176-1.874 5.905-1.874 1.824 0 3.288.625 4.393 1.874 1.104 1.249 1.656 2.882 1.656 4.9 0 2.114-.672 4.42-2.016 6.918-2.593 4.803-4.945 8.575-7.058 11.313-2.112 2.738-3.745 4.107-4.897 4.107-1.056 0-2.088-1.345-3.097-4.035-1.008-2.69-2.28-7.062-3.816-13.115a74.256 74.256 0 01-1.585-8.503c-1.152-6.821-2.472-12.034-3.96-15.637-1.489-3.603-3.913-5.404-7.274-5.404-.768 0-1.344.048-1.728.144 0-.192-1.297.288-3.89 1.441-2.592 1.153-5.784 3.17-9.577 6.053s-7.85 6.918-12.17 12.106l3.456 4.612c2.976-2.402 5.473-3.603 7.49-3.603.672 0 1.176.096 1.512.288.336.192.552.336.648.433.576.672 1.608 3.29 3.097 7.854 1.488 4.564 3 9.392 4.537 14.484 3.744 12.202 6.049 19.167 6.913 20.897 1.152 2.402 2.857 4.564 5.113 6.485 2.257 1.922 4.681 2.882 7.274 2.882zm157.281-1.585c10.466 0 19.564-2.522 27.294-7.566 7.73-5.044 13.635-11.505 17.716-19.384 4.08-7.878 6.12-15.949 6.12-24.212l-.143-2.305a30.773 30.773 0 008.93-9.368 31.9 31.9 0 01-10.227 2.882c3.745-2.306 6.386-5.62 7.922-9.944-3.457 2.114-7.297 3.555-11.522 4.324-1.633-1.73-3.577-3.099-5.834-4.108-2.256-1.009-4.68-1.513-7.273-1.513-3.169 0-6.121.817-8.858 2.45a18.633 18.633 0 00-6.553 6.557c-1.633 2.739-2.449 5.741-2.449 9.008 0 1.345.144 2.69.432 4.035-7.297-.384-14.163-2.234-20.596-5.548-6.433-3.315-11.907-7.71-16.42-13.187-1.536 2.786-2.304 5.813-2.304 9.08 0 3.074.696 5.932 2.088 8.574a17.03 17.03 0 005.834 6.413 17.031 17.031 0 01-8.066-2.305c0 4.42 1.344 8.286 4.033 11.601 2.688 3.315 6.097 5.356 10.226 6.125-1.152.48-2.737.72-4.753.72-.672 0-1.776-.095-3.313-.288 1.152 3.651 3.265 6.63 6.338 8.936 3.072 2.306 6.529 3.458 10.37 3.458-3.073 2.402-6.506 4.276-10.298 5.621-3.793 1.345-7.754 2.018-11.883 2.018-1.92 0-3.36-.096-4.32-.289 8.353 5.477 17.523 8.215 27.509 8.215zm213.597-5.765l13.395-.288c1.344 0 2.4-.192 3.169-.576.672-.385 1.104-.865 1.296-1.441a6.12 6.12 0 000-1.874l-.432-1.297a.489.489 0 01-.144-.36.489.489 0 00-.144-.36c-1.825-3.363-5.185-7.206-10.082-11.53v-.144l-.144-.144h-.144c-2.4-2.402-3.793-3.843-4.177-4.324-.672-.768-1.008-1.633-1.008-2.594 0-.288.096-.817.288-1.585.096-.577.96-1.922 2.592-4.035.96-1.153 1.68-2.114 2.16-2.883l3.313-4.467c6.146-8.167 8.786-13.307 7.922-15.421l-.288-.577c-.288-.288-.816-.576-1.584-.864-.769-.192-1.393-.288-1.873-.288l-1.584.144-15.123.144c-.192-.192-.528-.192-1.009 0l-.72.144-.288.144-.144.144-.484.484-.092.093c-.192.192-.384.48-.576.864-1.248 3.46-3.12 7.398-5.617 11.818-1.344 2.402-2.545 4.323-3.601 5.765-.96 1.537-1.824 2.69-2.593 3.458l-.283.284-.797.797c-.336.337-.648.6-.936.793-.48.384-.96.576-1.44.576l-.864-.288c-.48-.288-.865-.72-1.153-1.297-.384-.576-.576-1.249-.576-2.017-.192-1.153-.288-1.874-.288-2.162 0-.961.048-1.778.144-2.45v-6.63c.096-.96.144-2.161.144-3.603.096-.672.144-1.633.144-2.882 0-.865-.096-1.681-.288-2.45 0-.384-.048-.72-.144-1.009a5.594 5.594 0 00-.288-.72 3.311 3.311 0 00-1.152-1.153c-.576-.385-1.152-.625-1.729-.72-2.112-.481-4.464-.721-7.057-.721-6.913 0-11.09.432-12.53 1.297-.769.288-1.441.816-2.017 1.585-.384.384-.576.672-.576.865 0 .192.096.288.288.288 2.112.384 3.6 1.153 4.465 2.306l.288.72c.384.577.624 1.345.72 2.306.288 1.153.432 2.45.432 3.891.192 1.73.288 2.93.288 3.603 0 .769-.096 1.73-.288 2.883l-.432 4.323c-.096.961-.336 1.778-.72 2.45l-.576 1.153-.288.288c-.576.193-1.057.289-1.44.289-.385 0-.96-.24-1.729-.721-.96-.769-1.68-1.441-2.16-2.018-.673-.768-1.537-1.97-2.593-3.603a57.758 57.758 0 01-1.584-2.81c-.48-.913-.96-1.801-1.44-2.666l-.72-1.585-2.161-4.324c-.672-1.249-1.489-3.026-2.449-5.332-.288-.769-.72-1.345-1.296-1.73l-.288-.144-.72-.432c-.576-.192-1.009-.288-1.297-.288h-14.403c-1.44 0-2.4.336-2.88 1.008l-.288.289c-.096.192-.144.48-.144.864 0 .193.096.673.288 1.442 2.208 4.9 4.513 9.655 6.913 14.267 2.4 4.42 4.513 8.119 6.338 11.097 1.632 2.594 3.504 5.237 5.617 7.927l3.745 4.756 1.44 1.585 1.296 1.297c.768.769 2.017 1.777 3.745 3.026 1.056.77 2.833 1.922 5.329 3.46 1.824 1.056 4.129 1.969 6.914 2.738 2.688.672 5.28.96 7.777.864h5.905c1.153 0 2.113-.384 2.881-1.153l.576-1.153c.096-.288.144-.768.144-1.44 0-1.538.144-2.931.432-4.18.192-1.153.48-2.018.864-2.594.192-.48.577-1.01 1.153-1.586l.864-.864.432-.144c.768-.289 1.728 0 2.88.864 1.249.961 2.353 1.97 3.313 3.027 2.017 2.306 3.217 3.65 3.601 4.035.672.865 1.872 2.018 3.6 3.459l1.009.576c.768.48 1.68.865 2.737 1.153.576.192 1.344.288 2.304.288h.72zm139.566 11.242V49.576h12.675l1.872-14.844h-14.547v-9.367c0-2.402.504-4.204 1.512-5.405 1.008-1.2 2.905-1.801 5.69-1.801H1736V5.044c-3.457-.384-7.202-.576-11.234-.576-5.762 0-10.37 1.705-13.827 5.116-3.457 3.41-5.185 8.19-5.185 14.34v10.808h-12.675v14.844h12.675v43.092h15.267z" fill="#FFF" fill-rule="nonzero"/></svg>
