<svg width="1736" height="164" xmlns="http://www.w3.org/2000/svg"><path d="M7.865 116c4.437 0 6.655-2.215 6.655-6.646V76.125L25.41 65.25l32.67 32.625v11.48c0 4.43 2.218 6.645 6.654 6.645h1.21c4.437 0 6.655-2.215 6.655-6.646V95.458c0-3.222-1.109-5.94-3.327-8.156L36.3 54.375l29.342-29.302c2.218-2.215 3.327-4.934 3.327-8.156V6.646C68.97 2.216 66.751 0 62.314 0h-1.21c-4.436 0-6.655 2.215-6.655 6.646V14.5L14.52 54.375V6.645C14.52 2.216 12.303 0 7.866 0h-1.21C2.218 0 0 2.215 0 6.646v102.708C0 113.784 2.218 116 6.655 116h1.21zm111.924 0c3.226 0 5.949-1.108 8.167-3.323l3.933-3.927v3.625c0 2.417 2.218 3.625 6.655 3.625h1.21c4.436 0 6.654-2.215 6.654-6.646V35.646c0-4.43-2.218-6.646-6.654-6.646h-1.21c-4.437 0-6.655 2.215-6.655 6.646V94.25l-7.26 7.25h-14.52l-7.26-7.25V35.646c0-4.43-2.218-6.646-6.655-6.646h-1.21c-4.437 0-6.655 2.215-6.655 6.646v61.02c0 3.223 1.11 5.942 3.328 8.157l7.864 7.854c2.219 2.215 4.941 3.323 8.168 3.323h12.1zm53.844 0c4.437 0 6.655-2.215 6.655-6.646V50.75l7.26-7.25h14.52l7.26 7.25v58.604c0 4.43 2.218 6.646 6.655 6.646h1.21c4.436 0 6.655-2.215 6.655-6.646v-61.02c0-3.223-1.11-5.942-3.328-8.157l-7.865-7.854c-2.218-2.215-4.94-3.323-8.167-3.323h-12.1c-3.227 0-5.95 1.108-8.167 3.323l-3.933 3.927v-3.625c0-2.417-2.218-3.625-6.655-3.625h-1.21c-4.436 0-6.655 2.215-6.655 6.646v73.708c0 4.43 2.219 6.646 6.655 6.646h1.21zm105.874 0c3.227 0 5.95-1.108 8.167-3.323l7.865-7.854c2.219-2.215 3.328-4.934 3.328-8.156v-8.459c0-3.222-1.11-5.94-3.328-8.156l-11.495-11.48c-2.218-2.214-4.94-3.322-8.167-3.322h-9.68l-10.89-10.875V50.75l7.26-7.25h14.52l7.26 7.25v3.625c0 2.417 2.218 3.625 6.655 3.625h1.21c4.437 0 6.655-2.215 6.655-6.646v-3.02c0-3.223-1.11-5.942-3.328-8.157l-7.865-7.854c-2.218-2.215-4.94-3.323-8.167-3.323h-19.36c-3.226 0-5.949 1.108-8.167 3.323l-7.865 7.854c-2.218 2.215-3.328 4.934-3.328 8.156v8.459c0 3.222 1.11 5.94 3.328 8.156l11.495 11.48c2.218 2.214 4.94 3.322 8.167 3.322h9.68l10.89 10.875v3.625l-7.26 7.25h-14.52l-7.26-7.25v-3.625c0-2.417-2.218-3.625-6.655-3.625h-1.21c-4.436 0-6.655 2.215-6.655 6.646v3.02c0 3.223 1.11 5.942 3.328 8.157l7.865 7.854c2.218 2.215 4.94 3.323 8.167 3.323h19.36zm64.734 0c4.437 0 6.655-2.215 6.655-6.646v-1.208c0-4.43-2.218-6.646-6.655-6.646h-4.235l-7.26-7.25V43.5h11.495c4.437 0 6.655-2.215 6.655-6.646v-1.208c0-4.43-2.218-6.646-6.655-6.646h-11.495V15.255c0-1.812-.327-3.222-.983-4.229-.655-1.007-1.588-1.51-2.798-1.51-1.411 0-2.873.755-4.386 2.265l-3.025 3.021c-2.218 2.215-3.327 4.934-3.327 8.156V29h-3.63c-2.42 0-3.63 2.215-3.63 6.646v1.208c0 4.43 2.218 6.646 6.655 6.646h.605v53.167c0 3.222 1.109 5.94 3.327 8.156l7.865 7.854c2.218 2.215 4.94 3.323 8.167 3.323h6.655zm80.465 0c4.436 0 6.654-2.215 6.654-6.646V72.5h10.89l32.67 32.625v5.438c0 3.624 2.218 5.437 6.655 5.437h1.21c4.437 0 6.655-2.215 6.655-6.646v-6.646c0-3.222-1.11-5.94-3.328-8.156L464.03 72.5h6.05c3.227 0 5.95-1.108 8.167-3.323l7.865-7.854c2.219-2.215 3.328-4.934 3.328-8.156V19.333c0-3.222-1.11-5.94-3.328-8.156l-7.865-7.854C476.03 1.108 473.307 0 470.08 0h-46.584c-4.437 0-6.655 2.215-6.655 6.646v102.708c0 4.43 2.218 6.646 6.655 6.646h1.21zm42.954-58h-36.3V14.5h36.3l7.26 7.25v29L467.66 58zm79.86 58c3.226 0 5.948-1.108 8.167-3.323l7.865-7.854c2.218-2.215 3.327-4.934 3.327-8.156V48.333c0-3.222-1.11-5.94-3.327-8.156l-7.865-7.854c-2.219-2.215-4.941-3.323-8.168-3.323h-19.36c-3.226 0-5.949 1.108-8.167 3.323l-7.865 7.854c-2.218 2.215-3.327 4.934-3.327 8.156v48.334c0 3.222 1.109 5.94 3.327 8.156l7.865 7.854c2.218 2.215 4.94 3.323 8.167 3.323h19.36zm-2.42-14.5h-14.52l-7.26-7.25v-43.5l7.26-7.25h14.52l7.26 7.25v43.5l-7.26 7.25zm71.388 14.5c3.227 0 5.95-1.108 8.168-3.323l3.932-3.927v3.625c0 2.417 2.219 3.625 6.655 3.625h1.21c4.437 0 6.655-2.215 6.655-6.646V35.646c0-4.43-2.218-6.646-6.655-6.646h-1.21c-4.436 0-6.655 2.215-6.655 6.646V94.25l-7.26 7.25h-14.52l-7.26-7.25V35.646c0-4.43-2.218-6.646-6.654-6.646h-1.21c-4.437 0-6.655 2.215-6.655 6.646v61.02c0 3.223 1.109 5.942 3.327 8.157l7.865 7.854c2.219 2.215 4.941 3.323 8.168 3.323h12.1zm53.845 0c4.437 0 6.655-2.215 6.655-6.646V50.75l7.26-7.25h14.52l7.26 7.25v58.604c0 4.43 2.218 6.646 6.654 6.646h1.21c4.437 0 6.655-2.215 6.655-6.646v-61.02c0-3.223-1.109-5.942-3.327-8.157l-7.865-7.854c-2.218-2.215-4.94-3.323-8.167-3.323h-12.1c-3.227 0-5.95 1.108-8.168 3.323l-3.932 3.927v-3.625c0-2.417-2.218-3.625-6.655-3.625h-1.21c-4.437 0-6.655 2.215-6.655 6.646v73.708c0 4.43 2.218 6.646 6.655 6.646h1.21zm98.614 0c3.226 0 5.949-1.108 8.167-3.323l3.933-3.927v3.625c0 2.417 2.218 3.625 6.655 3.625h1.21c4.436 0 6.655-2.215 6.655-6.646V6.646c0-4.43-2.219-6.646-6.655-6.646h-1.21c-4.437 0-6.655 2.215-6.655 6.646V36.25l-3.933-3.927c-2.218-2.215-4.94-3.323-8.167-3.323h-12.1c-3.227 0-5.95 1.108-8.167 3.323l-7.865 7.854c-2.219 2.215-3.328 4.934-3.328 8.156v48.334c0 3.222 1.11 5.94 3.328 8.156l7.865 7.854c2.218 2.215 4.94 3.323 8.167 3.323h12.1zm4.84-14.5h-14.52l-7.26-7.25v-43.5l7.26-7.25h14.52l7.26 7.25v43.5l-7.26 7.25zm90.749 14.5c4.436 0 6.655-2.215 6.655-6.646v-1.208c0-4.43-2.219-6.646-6.655-6.646H834.89l-7.26-7.25V83.375h24.2c3.227 0 5.95-1.108 8.167-3.323l7.865-7.854c2.219-2.215 3.328-4.934 3.328-8.156V48.333c0-3.222-1.11-5.94-3.328-8.156l-7.865-7.854c-2.218-2.215-4.94-3.323-8.167-3.323h-19.36c-3.226 0-5.949 1.108-8.167 3.323l-7.865 7.854c-2.218 2.215-3.328 4.934-3.328 8.156v48.334c0 3.222 1.11 5.94 3.328 8.156l7.865 7.854c2.218 2.215 4.94 3.323 8.167 3.323h32.065zM849.41 68.875h-21.78V50.75l7.26-7.25h14.52l7.26 7.25v10.875l-7.26 7.25zM918.381 116c3.226 0 5.948-1.108 8.167-3.323l3.932-3.927v3.625c0 2.417 2.218 3.625 6.655 3.625h1.21c4.437 0 6.655-2.215 6.655-6.646V6.646C945 2.216 942.782 0 938.345 0h-1.21c-4.437 0-6.655 2.215-6.655 6.646V36.25l-3.932-3.927C924.329 30.108 921.607 29 918.38 29h-12.1c-3.226 0-5.949 1.108-8.167 3.323l-7.865 7.854c-2.218 2.215-3.327 4.934-3.327 8.156v48.334c0 3.222 1.109 5.94 3.327 8.156l7.865 7.854c2.218 2.215 4.94 3.323 8.167 3.323h12.1zm4.84-14.5H908.7l-7.26-7.25v-43.5l7.26-7.25h14.52l7.26 7.25v43.5l-7.26 7.25z" fill="#FFF" fill-rule="nonzero"/></svg>
