<?xml version="1.0" encoding="UTF-8"?>
<svg width="1200px" height="152px" viewBox="0 0 1200 152" version="1.1" xmlns="http://www.w3.org/2000/svg" xmlns:xlink="http://www.w3.org/1999/xlink" style="background: #E934A8;">
<title>Kunst Rounded</title>
    <defs></defs>
    <g id="Page-1" stroke="none" stroke-width="1" fill="none" fill-rule="evenodd">
        <g id="Artboard-2-Copy-3" fill="#FFF0B9">
            <path d="M82.025,92.7916667 C83.4305626,94.1972293 84.1333333,95.922212 84.1333333,97.9666667 L84.1333333,106.783333 C84.1333333,109.594459 82.7277918,111 79.9166667,111 L79.15,111 C76.3388748,111 74.9333333,109.594459 74.9333333,106.783333 L74.9333333,99.5 L54.2333333,78.8 L47.3333333,85.7 L47.3333333,106.783333 C47.3333333,109.594459 45.9277918,111 43.1166667,111 L42.35,111 C39.5388748,111 38.1333333,109.594459 38.1333333,106.783333 L38.1333333,41.6166667 C38.1333333,38.8055415 39.5388748,37.4 42.35,37.4 L43.1166667,37.4 C45.9277918,37.4 47.3333333,38.8055415 47.3333333,41.6166667 L47.3333333,71.9 L72.6333333,46.6 L72.6333333,41.6166667 C72.6333333,38.8055415 74.0388748,37.4 76.85,37.4 L77.6166667,37.4 C80.4277918,37.4 81.8333333,38.8055415 81.8333333,41.6166667 L81.8333333,48.1333333 C81.8333333,50.177788 81.1305626,51.9027708 79.725,53.3083333 L61.1333333,71.9 L82.025,92.7916667 Z M101.191667,108.891667 L96.2083333,103.908333 C94.8027708,102.502771 94.1,100.777788 94.1,98.7333333 L94.1,60.0166667 C94.1,57.2055415 95.5055415,55.8 98.3166667,55.8 L99.0833333,55.8 C101.894459,55.8 103.3,57.2055415 103.3,60.0166667 L103.3,97.2 L107.9,101.8 L117.1,101.8 L121.7,97.2 L121.7,60.0166667 C121.7,57.2055415 123.105541,55.8 125.916667,55.8 L126.683333,55.8 C129.494459,55.8 130.9,57.2055415 130.9,60.0166667 L130.9,106.783333 C130.9,109.594459 129.494459,111 126.683333,111 L125.916667,111 C123.105541,111 121.7,110.233341 121.7,108.7 L121.7,106.4 L119.208333,108.891667 C117.802771,110.297229 116.077788,111 114.033333,111 L106.366667,111 C104.322212,111 102.597229,110.297229 101.191667,108.891667 Z M143.166667,106.783333 L143.166667,60.0166667 C143.166667,57.2055415 144.572208,55.8 147.383333,55.8 L148.15,55.8 C150.961125,55.8 152.366667,56.566659 152.366667,58.1 L152.366667,60.4 L154.858333,57.9083333 C156.263896,56.5027708 157.988879,55.8 160.033333,55.8 L167.7,55.8 C169.744455,55.8 171.469437,56.5027708 172.875,57.9083333 L177.858333,62.8916667 C179.263896,64.2972293 179.966667,66.022212 179.966667,68.0666667 L179.966667,106.783333 C179.966667,109.594459 178.561125,111 175.75,111 L174.983333,111 C172.172208,111 170.766667,109.594459 170.766667,106.783333 L170.766667,69.6 L166.166667,65 L156.966667,65 L152.366667,69.6 L152.366667,106.783333 C152.366667,109.594459 150.961125,111 148.15,111 L147.383333,111 C144.572208,111 143.166667,109.594459 143.166667,106.783333 Z M197.791667,108.891667 L192.808333,103.908333 C191.402771,102.502771 190.7,100.777788 190.7,98.7333333 L190.7,96.8166667 C190.7,94.0055415 192.105541,92.6 194.916667,92.6 L195.683333,92.6 C198.494459,92.6 199.9,93.366659 199.9,94.9 L199.9,97.2 L204.5,101.8 L213.7,101.8 L218.3,97.2 L218.3,94.9 L211.4,88 L205.266667,88 C203.222212,88 201.497229,87.2972293 200.091667,85.8916667 L192.808333,78.6083333 C191.402771,77.2027707 190.7,75.477788 190.7,73.4333333 L190.7,68.0666667 C190.7,66.022212 191.402771,64.2972293 192.808333,62.8916667 L197.791667,57.9083333 C199.197229,56.5027708 200.922212,55.8 202.966667,55.8 L215.233333,55.8 C217.277788,55.8 219.002771,56.5027708 220.408333,57.9083333 L225.391667,62.8916667 C226.797229,64.2972293 227.5,66.022212 227.5,68.0666667 L227.5,69.9833333 C227.5,72.7944585 226.094458,74.2 223.283333,74.2 L222.516667,74.2 C219.705541,74.2 218.3,73.433341 218.3,71.9 L218.3,69.6 L213.7,65 L204.5,65 L199.9,69.6 L199.9,71.9 L206.8,78.8 L212.933333,78.8 C214.977788,78.8 216.702771,79.5027707 218.108333,80.9083333 L225.391667,88.1916667 C226.797229,89.5972292 227.5,91.322212 227.5,93.3666667 L227.5,98.7333333 C227.5,100.777788 226.797229,102.502771 225.391667,103.908333 L220.408333,108.891667 C219.002771,110.297229 217.277788,111 215.233333,111 L202.966667,111 C200.922212,111 199.197229,110.297229 197.791667,108.891667 Z M246.858333,108.891667 L241.875,103.908333 C240.469437,102.502771 239.766667,100.777788 239.766667,98.7333333 L239.766667,65 L239.383333,65 C236.572208,65 235.166667,63.5944585 235.166667,60.7833333 L235.166667,60.0166667 C235.166667,57.2055415 235.933326,55.8 237.466667,55.8 L239.766667,55.8 L239.766667,51.9666667 C239.766667,49.922212 240.469437,48.1972293 241.875,46.7916667 L243.791667,44.875 C244.750005,43.9166619 245.676384,43.4375 246.570833,43.4375 C247.337504,43.4375 247.92847,43.7569413 248.34375,44.3958333 C248.75903,45.0347254 248.966667,45.9291609 248.966667,47.0791667 L248.966667,55.8 L256.25,55.8 C259.061125,55.8 260.466667,57.2055415 260.466667,60.0166667 L260.466667,60.7833333 C260.466667,63.5944585 259.061125,65 256.25,65 L248.966667,65 L248.966667,97.2 L253.566667,101.8 L256.25,101.8 C259.061125,101.8 260.466667,103.205542 260.466667,106.016667 L260.466667,106.783333 C260.466667,109.594459 259.061125,111 256.25,111 L252.033333,111 C249.988879,111 248.263896,110.297229 246.858333,108.891667 Z M346.141667,76.3083333 L341.158333,81.2916667 C339.752771,82.6972293 338.027788,83.4 335.983333,83.4 L332.15,83.4 L346.141667,97.3916667 C347.547229,98.7972293 348.25,100.522212 348.25,102.566667 L348.25,106.783333 C348.25,109.594459 346.844458,111 344.033333,111 L343.266667,111 C340.455541,111 339.05,109.850011 339.05,107.55 L339.05,104.1 L318.35,83.4 L311.45,83.4 L311.45,106.783333 C311.45,109.594459 310.044459,111 307.233333,111 L306.466667,111 C303.655542,111 302.25,109.594459 302.25,106.783333 L302.25,41.6166667 C302.25,38.8055415 303.655542,37.4 306.466667,37.4 L335.983333,37.4 C338.027788,37.4 339.752771,38.1027708 341.158333,39.5083333 L346.141667,44.4916667 C347.547229,45.8972293 348.25,47.622212 348.25,49.6666667 L348.25,71.1333333 C348.25,73.177788 347.547229,74.9027708 346.141667,76.3083333 Z M311.45,74.2 L334.45,74.2 L339.05,69.6 L339.05,51.2 L334.45,46.6 L311.45,46.6 L311.45,74.2 Z M367.608333,108.891667 L362.625,103.908333 C361.219437,102.502771 360.516667,100.777788 360.516667,98.7333333 L360.516667,68.0666667 C360.516667,66.022212 361.219437,64.2972293 362.625,62.8916667 L367.608333,57.9083333 C369.013896,56.5027708 370.738879,55.8 372.783333,55.8 L385.05,55.8 C387.094455,55.8 388.819437,56.5027708 390.225,57.9083333 L395.208333,62.8916667 C396.613896,64.2972293 397.316667,66.022212 397.316667,68.0666667 L397.316667,98.7333333 C397.316667,100.777788 396.613896,102.502771 395.208333,103.908333 L390.225,108.891667 C388.819437,110.297229 387.094455,111 385.05,111 L372.783333,111 C370.738879,111 369.013896,110.297229 367.608333,108.891667 Z M374.316667,101.8 L383.516667,101.8 L388.116667,97.2 L388.116667,69.6 L383.516667,65 L374.316667,65 L369.716667,69.6 L369.716667,97.2 L374.316667,101.8 Z M415.908333,108.891667 L410.925,103.908333 C409.519437,102.502771 408.816667,100.777788 408.816667,98.7333333 L408.816667,60.0166667 C408.816667,57.2055415 410.222208,55.8 413.033333,55.8 L413.8,55.8 C416.611125,55.8 418.016667,57.2055415 418.016667,60.0166667 L418.016667,97.2 L422.616667,101.8 L431.816667,101.8 L436.416667,97.2 L436.416667,60.0166667 C436.416667,57.2055415 437.822208,55.8 440.633333,55.8 L441.4,55.8 C444.211125,55.8 445.616667,57.2055415 445.616667,60.0166667 L445.616667,106.783333 C445.616667,109.594459 444.211125,111 441.4,111 L440.633333,111 C437.822208,111 436.416667,110.233341 436.416667,108.7 L436.416667,106.4 L433.925,108.891667 C432.519437,110.297229 430.794455,111 428.75,111 L421.083333,111 C419.038879,111 417.313896,110.297229 415.908333,108.891667 Z M457.883333,106.783333 L457.883333,60.0166667 C457.883333,57.2055415 459.288875,55.8 462.1,55.8 L462.866667,55.8 C465.677792,55.8 467.083333,56.566659 467.083333,58.1 L467.083333,60.4 L469.575,57.9083333 C470.980563,56.5027708 472.705545,55.8 474.75,55.8 L482.416667,55.8 C484.461121,55.8 486.186104,56.5027708 487.591667,57.9083333 L492.575,62.8916667 C493.980563,64.2972293 494.683333,66.022212 494.683333,68.0666667 L494.683333,106.783333 C494.683333,109.594459 493.277792,111 490.466667,111 L489.7,111 C486.888875,111 485.483333,109.594459 485.483333,106.783333 L485.483333,69.6 L480.883333,65 L471.683333,65 L467.083333,69.6 L467.083333,106.783333 C467.083333,109.594459 465.677792,111 462.866667,111 L462.1,111 C459.288875,111 457.883333,109.594459 457.883333,106.783333 Z M512.508333,108.891667 L507.525,103.908333 C506.119437,102.502771 505.416667,100.777788 505.416667,98.7333333 L505.416667,68.0666667 C505.416667,66.022212 506.119437,64.2972293 507.525,62.8916667 L512.508333,57.9083333 C513.913896,56.5027708 515.638879,55.8 517.683333,55.8 L525.35,55.8 C527.394455,55.8 529.119437,56.5027708 530.525,57.9083333 L533.016667,60.4 L533.016667,41.6166667 C533.016667,38.8055415 534.422208,37.4 537.233333,37.4 L538,37.4 C540.811125,37.4 542.216667,38.8055415 542.216667,41.6166667 L542.216667,106.783333 C542.216667,109.594459 540.811125,111 538,111 L537.233333,111 C534.422208,111 533.016667,110.233341 533.016667,108.7 L533.016667,106.4 L530.525,108.891667 C529.119437,110.297229 527.394455,111 525.35,111 L517.683333,111 C515.638879,111 513.913896,110.297229 512.508333,108.891667 Z M519.216667,101.8 L528.416667,101.8 L533.016667,97.2 L533.016667,69.6 L528.416667,65 L519.216667,65 L514.616667,69.6 L514.616667,97.2 L519.216667,101.8 Z M577.866667,90.3 L562.533333,90.3 L562.533333,97.2 L567.133333,101.8 L585.916667,101.8 C588.727792,101.8 590.133333,103.205542 590.133333,106.016667 L590.133333,106.783333 C590.133333,109.594459 588.727792,111 585.916667,111 L565.6,111 C563.555545,111 561.830563,110.297229 560.425,108.891667 L555.441667,103.908333 C554.036104,102.502771 553.333333,100.777788 553.333333,98.7333333 L553.333333,68.0666667 C553.333333,66.022212 554.036104,64.2972293 555.441667,62.8916667 L560.425,57.9083333 C561.830563,56.5027708 563.555545,55.8 565.6,55.8 L577.866667,55.8 C579.911121,55.8 581.636104,56.5027708 583.041667,57.9083333 L588.025,62.8916667 C589.430563,64.2972293 590.133333,66.022212 590.133333,68.0666667 L590.133333,78.0333333 C590.133333,80.077788 589.430563,81.8027708 588.025,83.2083333 L583.041667,88.1916667 C581.636104,89.5972292 579.911121,90.3 577.866667,90.3 Z M567.133333,65 L562.533333,69.6 L562.533333,81.1 L576.333333,81.1 L580.933333,76.5 L580.933333,69.6 L576.333333,65 L567.133333,65 Z M607.191667,108.891667 L602.208333,103.908333 C600.802771,102.502771 600.1,100.777788 600.1,98.7333333 L600.1,68.0666667 C600.1,66.022212 600.802771,64.2972293 602.208333,62.8916667 L607.191667,57.9083333 C608.597229,56.5027708 610.322212,55.8 612.366667,55.8 L620.033333,55.8 C622.077788,55.8 623.802771,56.5027708 625.208333,57.9083333 L627.7,60.4 L627.7,41.6166667 C627.7,38.8055415 629.105541,37.4 631.916667,37.4 L632.683333,37.4 C635.494458,37.4 636.9,38.8055415 636.9,41.6166667 L636.9,106.783333 C636.9,109.594459 635.494458,111 632.683333,111 L631.916667,111 C629.105541,111 627.7,110.233341 627.7,108.7 L627.7,106.4 L625.208333,108.891667 C623.802771,110.297229 622.077788,111 620.033333,111 L612.366667,111 C610.322212,111 608.597229,110.297229 607.191667,108.891667 Z M613.9,101.8 L623.1,101.8 L627.7,97.2 L627.7,69.6 L623.1,65 L613.9,65 L609.3,69.6 L609.3,97.2 L613.9,101.8 Z" id="Kunst-Rounded"></path>
        </g>
    </g>
</svg>
