<?xml version="1.0" encoding="UTF-8"?>
<svg width="938px" height="164px" viewBox="0 0 938 164" version="1.1" xmlns="http://www.w3.org/2000/svg" xmlns:xlink="http://www.w3.org/1999/xlink">
    <title>flist-kunst-rounded</title>
    <g id="flist-kunst-rounded" stroke="none" stroke-width="1" fill="none" fill-rule="evenodd">
        <path d="M7.79833547,115 C12.1973965,115 14.396927,112.803819 14.396927,108.411458 L14.396927,108.411458 L14.396927,75.46875 L25.1946223,64.6875 L57.5877081,97.03125 L57.5877081,108.411458 C57.5877081,112.803819 59.7872386,115 64.1862996,115 L64.1862996,115 L65.3860435,115 C69.7851046,115 71.9846351,112.803819 71.9846351,108.411458 L71.9846351,108.411458 L71.9846351,94.6354167 C71.9846351,91.4409722 70.8848698,88.7456597 68.6853393,86.5494792 L68.6853393,86.5494792 L35.9923175,53.90625 L65.0861076,24.8567708 C67.2856381,22.6605903 68.3854033,19.9652778 68.3854033,16.7708333 L68.3854033,16.7708333 L68.3854033,6.58854167 C68.3854033,2.19618056 66.1858728,0 61.7868118,0 L61.7868118,0 L60.5870679,0 C56.1880068,0 53.9884763,2.19618056 53.9884763,6.58854167 L53.9884763,6.58854167 L53.9884763,14.375 L14.396927,53.90625 L14.396927,6.58854167 C14.396927,2.19618056 12.1973965,0 7.79833547,0 L7.79833547,0 L6.59859155,0 C2.19953052,0 0,2.19618056 0,6.58854167 L0,6.58854167 L0,108.411458 C0,112.803819 2.19953052,115 6.59859155,115 L6.59859155,115 L7.79833547,115 Z M118.774648,115 C121.973965,115 124.673389,113.90191 126.872919,111.705729 L126.872919,111.705729 L130.772087,107.8125 L130.772087,111.40625 C130.772087,113.802083 132.971618,115 137.370679,115 L137.370679,115 L138.570423,115 C142.969484,115 145.169014,112.803819 145.169014,108.411458 L145.169014,108.411458 L145.169014,35.3385417 C145.169014,30.9461806 142.969484,28.75 138.570423,28.75 L138.570423,28.75 L137.370679,28.75 C132.971618,28.75 130.772087,30.9461806 130.772087,35.3385417 L130.772087,35.3385417 L130.772087,93.4375 L123.573624,100.625 L109.176697,100.625 L101.978233,93.4375 L101.978233,35.3385417 C101.978233,30.9461806 99.7787025,28.75 95.3796415,28.75 L95.3796415,28.75 L94.1798976,28.75 C89.7808365,28.75 87.581306,30.9461806 87.581306,35.3385417 L87.581306,35.3385417 L87.581306,95.8333333 C87.581306,99.0277778 88.6810713,101.72309 90.8806018,103.919271 L90.8806018,103.919271 L98.6789373,111.705729 C100.878468,113.90191 103.577892,115 106.777209,115 L106.777209,115 L118.774648,115 Z M172.163252,115 C176.562313,115 178.761844,112.803819 178.761844,108.411458 L178.761844,108.411458 L178.761844,50.3125 L185.960307,43.125 L200.357234,43.125 L207.555698,50.3125 L207.555698,108.411458 C207.555698,112.803819 209.755228,115 214.154289,115 L214.154289,115 L215.354033,115 C219.753094,115 221.952625,112.803819 221.952625,108.411458 L221.952625,108.411458 L221.952625,47.9166667 C221.952625,44.7222222 220.85286,42.0269097 218.653329,39.8307292 L218.653329,39.8307292 L210.854994,32.0442708 C208.655463,29.8480903 205.956039,28.75 202.756722,28.75 L202.756722,28.75 L190.759283,28.75 C187.559966,28.75 184.860542,29.8480903 182.661012,32.0442708 L182.661012,32.0442708 L178.761844,35.9375 L178.761844,32.34375 C178.761844,29.9479167 176.562313,28.75 172.163252,28.75 L172.163252,28.75 L170.963508,28.75 C166.564447,28.75 164.364917,30.9461806 164.364917,35.3385417 L164.364917,35.3385417 L164.364917,108.411458 C164.364917,112.803819 166.564447,115 170.963508,115 L170.963508,115 L172.163252,115 Z M277.140845,115 C280.340162,115 283.039586,113.90191 285.239117,111.705729 L285.239117,111.705729 L293.037452,103.919271 C295.236983,101.72309 296.336748,99.0277778 296.336748,95.8333333 L296.336748,95.8333333 L296.336748,87.4479167 C296.336748,84.2534722 295.236983,81.5581597 293.037452,79.3619792 L293.037452,79.3619792 L281.639885,67.9817708 C279.440354,65.7855903 276.74093,64.6875 273.541613,64.6875 L273.541613,64.6875 L263.943662,64.6875 L253.145967,53.90625 L253.145967,50.3125 L260.34443,43.125 L274.741357,43.125 L281.939821,50.3125 L281.939821,53.90625 C281.939821,56.3020833 284.139351,57.5 288.538412,57.5 L288.538412,57.5 L289.738156,57.5 C294.137217,57.5 296.336748,55.3038194 296.336748,50.9114583 L296.336748,50.9114583 L296.336748,47.9166667 C296.336748,44.7222222 295.236983,42.0269097 293.037452,39.8307292 L293.037452,39.8307292 L285.239117,32.0442708 C283.039586,29.8480903 280.340162,28.75 277.140845,28.75 L277.140845,28.75 L257.944942,28.75 C254.745625,28.75 252.046201,29.8480903 249.846671,32.0442708 L249.846671,32.0442708 L242.048335,39.8307292 C239.848805,42.0269097 238.74904,44.7222222 238.74904,47.9166667 L238.74904,47.9166667 L238.74904,56.3020833 C238.74904,59.4965278 239.848805,62.1918403 242.048335,64.3880208 L242.048335,64.3880208 L253.445903,75.7682292 C255.645433,77.9644097 258.344857,79.0625 261.544174,79.0625 L261.544174,79.0625 L271.142125,79.0625 L281.939821,89.84375 L281.939821,93.4375 L274.741357,100.625 L260.34443,100.625 L253.145967,93.4375 L253.145967,89.84375 C253.145967,87.4479167 250.946436,86.25 246.547375,86.25 L246.547375,86.25 L245.347631,86.25 C240.94857,86.25 238.74904,88.4461806 238.74904,92.8385417 L238.74904,92.8385417 L238.74904,95.8333333 C238.74904,99.0277778 239.848805,101.72309 242.048335,103.919271 L242.048335,103.919271 L249.846671,111.705729 C252.046201,113.90191 254.745625,115 257.944942,115 L257.944942,115 L277.140845,115 Z M341.327145,115 C345.726206,115 347.925736,112.803819 347.925736,108.411458 L347.925736,108.411458 L347.925736,107.213542 C347.925736,102.821181 345.726206,100.625 341.327145,100.625 L341.327145,100.625 L337.128041,100.625 L329.929577,93.4375 L329.929577,43.125 L341.327145,43.125 C345.726206,43.125 347.925736,40.9288194 347.925736,36.5364583 L347.925736,36.5364583 L347.925736,35.3385417 C347.925736,30.9461806 345.726206,28.75 341.327145,28.75 L341.327145,28.75 L329.929577,28.75 L329.929577,15.1236979 C329.929577,13.3268229 329.604647,11.9292535 328.954786,10.9309896 C328.304924,9.93272569 327.380122,9.43359375 326.180378,9.43359375 C324.780676,9.43359375 323.330986,10.1822917 321.831306,11.6796875 L321.831306,11.6796875 L318.831946,14.6744792 C316.632416,16.8706597 315.53265,19.5659722 315.53265,22.7604167 L315.53265,22.7604167 L315.53265,28.75 L311.933419,28.75 C309.533931,28.75 308.334187,30.9461806 308.334187,35.3385417 L308.334187,35.3385417 L308.334187,36.5364583 C308.334187,40.9288194 310.533717,43.125 314.932778,43.125 L314.932778,43.125 L315.53265,43.125 L315.53265,95.8333333 C315.53265,99.0277778 316.632416,101.72309 318.831946,103.919271 L318.831946,103.919271 L326.630282,111.705729 C328.829812,113.90191 331.529236,115 334.728553,115 L334.728553,115 L341.327145,115 Z M421.110115,115 C425.509176,115 427.708707,112.803819 427.708707,108.411458 L427.708707,108.411458 L427.708707,71.875 L438.506402,71.875 L470.899488,104.21875 L470.899488,109.609375 C470.899488,113.203125 473.099018,115 477.498079,115 L477.498079,115 L478.697823,115 C483.096884,115 485.296415,112.803819 485.296415,108.411458 L485.296415,108.411458 L485.296415,101.822917 C485.296415,98.6284722 484.19665,95.9331597 481.997119,93.7369792 L481.997119,93.7369792 L460.101793,71.875 L466.100512,71.875 C469.299829,71.875 471.999253,70.7769097 474.198784,68.5807292 L474.198784,68.5807292 L481.997119,60.7942708 C484.19665,58.5980903 485.296415,55.9027778 485.296415,52.7083333 L485.296415,52.7083333 L485.296415,19.1666667 C485.296415,15.9722222 484.19665,13.2769097 481.997119,11.0807292 L481.997119,11.0807292 L474.198784,3.29427083 C471.999253,1.09809028 469.299829,0 466.100512,0 L466.100512,0 L419.910371,0 C415.51131,0 413.31178,2.19618056 413.31178,6.58854167 L413.31178,6.58854167 L413.31178,108.411458 C413.31178,112.803819 415.51131,115 419.910371,115 L419.910371,115 L421.110115,115 Z M463.701024,57.5 L427.708707,57.5 L427.708707,14.375 L463.701024,14.375 L470.899488,21.5625 L470.899488,50.3125 L463.701024,57.5 Z M542.884123,115 C546.08344,115 548.782864,113.90191 550.982394,111.705729 L550.982394,111.705729 L558.78073,103.919271 C560.98026,101.72309 562.080026,99.0277778 562.080026,95.8333333 L562.080026,95.8333333 L562.080026,47.9166667 C562.080026,44.7222222 560.98026,42.0269097 558.78073,39.8307292 L558.78073,39.8307292 L550.982394,32.0442708 C548.782864,29.8480903 546.08344,28.75 542.884123,28.75 L542.884123,28.75 L523.68822,28.75 C520.488903,28.75 517.789479,29.8480903 515.589949,32.0442708 L515.589949,32.0442708 L507.791613,39.8307292 C505.592083,42.0269097 504.492318,44.7222222 504.492318,47.9166667 L504.492318,47.9166667 L504.492318,95.8333333 C504.492318,99.0277778 505.592083,101.72309 507.791613,103.919271 L507.791613,103.919271 L515.589949,111.705729 C517.789479,113.90191 520.488903,115 523.68822,115 L523.68822,115 L542.884123,115 Z M540.484635,100.625 L526.087708,100.625 L518.889245,93.4375 L518.889245,50.3125 L526.087708,43.125 L540.484635,43.125 L547.683099,50.3125 L547.683099,93.4375 L540.484635,100.625 Z M611.269526,115 C614.468843,115 617.168267,113.90191 619.367798,111.705729 L619.367798,111.705729 L623.266965,107.8125 L623.266965,111.40625 C623.266965,113.802083 625.466496,115 629.865557,115 L629.865557,115 L631.065301,115 C635.464362,115 637.663892,112.803819 637.663892,108.411458 L637.663892,108.411458 L637.663892,35.3385417 C637.663892,30.9461806 635.464362,28.75 631.065301,28.75 L631.065301,28.75 L629.865557,28.75 C625.466496,28.75 623.266965,30.9461806 623.266965,35.3385417 L623.266965,35.3385417 L623.266965,93.4375 L616.068502,100.625 L601.671575,100.625 L594.473111,93.4375 L594.473111,35.3385417 C594.473111,30.9461806 592.273581,28.75 587.87452,28.75 L587.87452,28.75 L586.674776,28.75 C582.275715,28.75 580.076184,30.9461806 580.076184,35.3385417 L580.076184,35.3385417 L580.076184,95.8333333 C580.076184,99.0277778 581.17595,101.72309 583.37548,103.919271 L583.37548,103.919271 L591.173816,111.705729 C593.373346,113.90191 596.07277,115 599.272087,115 L599.272087,115 L611.269526,115 Z M664.658131,115 C669.057192,115 671.256722,112.803819 671.256722,108.411458 L671.256722,108.411458 L671.256722,50.3125 L678.455186,43.125 L692.852113,43.125 L700.050576,50.3125 L700.050576,108.411458 C700.050576,112.803819 702.250107,115 706.649168,115 L706.649168,115 L707.848912,115 C712.247973,115 714.447503,112.803819 714.447503,108.411458 L714.447503,108.411458 L714.447503,47.9166667 C714.447503,44.7222222 713.347738,42.0269097 711.148207,39.8307292 L711.148207,39.8307292 L703.349872,32.0442708 C701.150341,29.8480903 698.450918,28.75 695.251601,28.75 L695.251601,28.75 L683.254161,28.75 C680.054844,28.75 677.35542,29.8480903 675.15589,32.0442708 L675.15589,32.0442708 L671.256722,35.9375 L671.256722,32.34375 C671.256722,29.9479167 669.057192,28.75 664.658131,28.75 L664.658131,28.75 L663.458387,28.75 C659.059326,28.75 656.859795,30.9461806 656.859795,35.3385417 L656.859795,35.3385417 L656.859795,108.411458 C656.859795,112.803819 659.059326,115 663.458387,115 L663.458387,115 L664.658131,115 Z M762.43726,115 C765.636577,115 768.336001,113.90191 770.535531,111.705729 L770.535531,111.705729 L774.434699,107.8125 L774.434699,111.40625 C774.434699,113.802083 776.63423,115 781.033291,115 L781.033291,115 L782.233035,115 C786.632096,115 788.831626,112.803819 788.831626,108.411458 L788.831626,108.411458 L788.831626,6.58854167 C788.831626,2.19618056 786.632096,0 782.233035,0 L782.233035,0 L781.033291,0 C776.63423,0 774.434699,2.19618056 774.434699,6.58854167 L774.434699,6.58854167 L774.434699,35.9375 L770.535531,32.0442708 C768.336001,29.8480903 765.636577,28.75 762.43726,28.75 L762.43726,28.75 L750.439821,28.75 C747.240504,28.75 744.54108,29.8480903 742.341549,32.0442708 L742.341549,32.0442708 L734.543214,39.8307292 C732.343683,42.0269097 731.243918,44.7222222 731.243918,47.9166667 L731.243918,47.9166667 L731.243918,95.8333333 C731.243918,99.0277778 732.343683,101.72309 734.543214,103.919271 L734.543214,103.919271 L742.341549,111.705729 C744.54108,113.90191 747.240504,115 750.439821,115 L750.439821,115 L762.43726,115 Z M767.236236,100.625 L752.839309,100.625 L745.640845,93.4375 L745.640845,50.3125 L752.839309,43.125 L767.236236,43.125 L774.434699,50.3125 L774.434699,93.4375 L767.236236,100.625 Z M857.217029,115 C861.61609,115 863.815621,112.803819 863.815621,108.411458 L863.815621,108.411458 L863.815621,107.213542 C863.815621,102.821181 861.61609,100.625 857.217029,100.625 L857.217029,100.625 L827.823303,100.625 L820.62484,93.4375 L820.62484,82.65625 L844.619718,82.65625 C847.819035,82.65625 850.518459,81.5581597 852.71799,79.3619792 L852.71799,79.3619792 L860.516325,71.5755208 C862.715856,69.3793403 863.815621,66.6840278 863.815621,63.4895833 L863.815621,63.4895833 L863.815621,47.9166667 C863.815621,44.7222222 862.715856,42.0269097 860.516325,39.8307292 L860.516325,39.8307292 L852.71799,32.0442708 C850.518459,29.8480903 847.819035,28.75 844.619718,28.75 L844.619718,28.75 L825.423816,28.75 C822.224499,28.75 819.525075,29.8480903 817.325544,32.0442708 L817.325544,32.0442708 L809.527209,39.8307292 C807.327678,42.0269097 806.227913,44.7222222 806.227913,47.9166667 L806.227913,47.9166667 L806.227913,95.8333333 C806.227913,99.0277778 807.327678,101.72309 809.527209,103.919271 L809.527209,103.919271 L817.325544,111.705729 C819.525075,113.90191 822.224499,115 825.423816,115 L825.423816,115 L857.217029,115 Z M842.22023,68.28125 L820.62484,68.28125 L820.62484,50.3125 L827.823303,43.125 L842.22023,43.125 L849.418694,50.3125 L849.418694,61.09375 L842.22023,68.28125 Z M910.605634,115 C913.804951,115 916.504375,113.90191 918.703905,111.705729 L918.703905,111.705729 L922.603073,107.8125 L922.603073,111.40625 C922.603073,113.802083 924.802603,115 929.201665,115 L929.201665,115 L930.401408,115 C934.800469,115 937,112.803819 937,108.411458 L937,108.411458 L937,6.58854167 C937,2.19618056 934.800469,0 930.401408,0 L930.401408,0 L929.201665,0 C924.802603,0 922.603073,2.19618056 922.603073,6.58854167 L922.603073,6.58854167 L922.603073,35.9375 L918.703905,32.0442708 C916.504375,29.8480903 913.804951,28.75 910.605634,28.75 L910.605634,28.75 L898.608195,28.75 C895.408878,28.75 892.709454,29.8480903 890.509923,32.0442708 L890.509923,32.0442708 L882.711588,39.8307292 C880.512057,42.0269097 879.412292,44.7222222 879.412292,47.9166667 L879.412292,47.9166667 L879.412292,95.8333333 C879.412292,99.0277778 880.512057,101.72309 882.711588,103.919271 L882.711588,103.919271 L890.509923,111.705729 C892.709454,113.90191 895.408878,115 898.608195,115 L898.608195,115 L910.605634,115 Z M915.404609,100.625 L901.007682,100.625 L893.809219,93.4375 L893.809219,50.3125 L901.007682,43.125 L915.404609,43.125 L922.603073,50.3125 L922.603073,93.4375 L915.404609,100.625 Z" fill="#FFFFFF" fill-rule="nonzero"></path>
    </g>
</svg>