<svg height="116" viewBox="0 0 938 116" width="938" xmlns="http://www.w3.org/2000/svg"><path d="m191.4 630c4.4 0 6.6-2.2 6.6-6.6v-33l10.8-10.8 32.4 32.4v11.4c0 4.4 2.2 6.6 6.6 6.6h1.2c4.4 0 6.6-2.2 6.6-6.6v-13.8c0-3.2-1.1-5.9-3.3-8.1l-32.7-32.7 29.1-29.1c2.2-2.2 3.3-4.9 3.3-8.1v-10.2c0-4.4-2.2-6.6-6.6-6.6h-1.2c-4.4 0-6.6 2.2-6.6 6.6v7.8l-39.6 39.6v-47.4c0-4.4-2.2-6.6-6.6-6.6h-1.2c-4.4 0-6.6 2.2-6.6 6.6v102c0 4.4 2.2 6.6 6.6 6.6zm111 0c3.2 0 5.9-1.1 8.1-3.3l3.9-3.9v3.6c0 2.4 2.2 3.6 6.6 3.6h1.2c4.4 0 6.6-2.2 6.6-6.6v-73.2c0-4.4-2.2-6.6-6.6-6.6h-1.2c-4.4 0-6.6 2.2-6.6 6.6v58.2l-7.2 7.2h-14.4l-7.2-7.2v-58.2c0-4.4-2.2-6.6-6.6-6.6h-1.2c-4.4 0-6.6 2.2-6.6 6.6v60.6c0 3.2 1.1 5.9 3.3 8.1l7.8 7.8c2.2 2.2 4.9 3.3 8.1 3.3zm53.4 0c4.4 0 6.6-2.2 6.6-6.6v-58.2l7.2-7.2h14.4l7.2 7.2v58.2c0 4.4 2.2 6.6 6.6 6.6h1.2c4.4 0 6.6-2.2 6.6-6.6v-60.6c0-3.2-1.1-5.9-3.3-8.1l-7.8-7.8c-2.2-2.2-4.9-3.3-8.1-3.3h-12c-3.2 0-5.9 1.1-8.1 3.3l-3.9 3.9v-3.6c0-2.4-2.2-3.6-6.6-3.6h-1.2c-4.4 0-6.6 2.2-6.6 6.6v73.2c0 4.4 2.2 6.6 6.6 6.6zm105 0c3.2 0 5.9-1.1 8.1-3.3l7.8-7.8c2.2-2.2 3.3-4.9 3.3-8.1v-8.4c0-3.2-1.1-5.9-3.3-8.1l-11.4-11.4c-2.2-2.2-4.9-3.3-8.1-3.3h-9.6l-10.8-10.8v-3.6l7.2-7.2h14.4l7.2 7.2v3.6c0 2.4 2.2 3.6 6.6 3.6h1.2c4.4 0 6.6-2.2 6.6-6.6v-3c0-3.2-1.1-5.9-3.3-8.1l-7.8-7.8c-2.2-2.2-4.9-3.3-8.1-3.3h-19.2c-3.2 0-5.9 1.1-8.1 3.3l-7.8 7.8c-2.2 2.2-3.3 4.9-3.3 8.1v8.4c0 3.2 1.1 5.9 3.3 8.1l11.4 11.4c2.2 2.2 4.9 3.3 8.1 3.3h9.6l10.8 10.8v3.6l-7.2 7.2h-14.4l-7.2-7.2v-3.6c0-2.4-2.2-3.6-6.6-3.6h-1.2c-4.4 0-6.6 2.2-6.6 6.6v3c0 3.2 1.1 5.9 3.3 8.1l7.8 7.8c2.2 2.2 4.9 3.3 8.1 3.3zm64.2 0c4.4 0 6.6-2.2 6.6-6.6v-1.2c0-4.4-2.2-6.6-6.6-6.6h-4.2l-7.2-7.2v-50.4h11.4c4.4 0 6.6-2.2 6.6-6.6v-1.2c0-4.4-2.2-6.6-6.6-6.6h-11.4v-13.65c0-1.8-.325-3.2-.975-4.2s-1.575-1.5-2.775-1.5c-1.4 0-2.85.75-4.35 2.25l-3 3c-2.2 2.2-3.3 4.9-3.3 8.1v6h-3.6c-2.4 0-3.6 2.2-3.6 6.6v1.2c0 4.4 2.2 6.6 6.6 6.6h.6v52.8c0 3.2 1.1 5.9 3.3 8.1l7.8 7.8c2.2 2.2 4.9 3.3 8.1 3.3zm79.8 0c4.4 0 6.6-2.2 6.6-6.6v-36.6h10.8l32.4 32.4v5.4c0 3.6 2.2 5.4 6.6 5.4h1.2c4.4 0 6.6-2.2 6.6-6.6v-6.6c0-3.2-1.1-5.9-3.3-8.1l-21.9-21.9h6c3.2 0 5.9-1.1 8.1-3.3l7.8-7.8c2.2-2.2 3.3-4.9 3.3-8.1v-33.6c0-3.2-1.1-5.9-3.3-8.1l-7.8-7.8c-2.2-2.2-4.9-3.3-8.1-3.3h-46.2c-4.4 0-6.6 2.2-6.6 6.6v102c0 4.4 2.2 6.6 6.6 6.6zm42.6-57.6h-36v-43.2h36l7.2 7.2v28.8zm79.2 57.6c3.2 0 5.9-1.1 8.1-3.3l7.8-7.8c2.2-2.2 3.3-4.9 3.3-8.1v-48c0-3.2-1.1-5.9-3.3-8.1l-7.8-7.8c-2.2-2.2-4.9-3.3-8.1-3.3h-19.2c-3.2 0-5.9 1.1-8.1 3.3l-7.8 7.8c-2.2 2.2-3.3 4.9-3.3 8.1v48c0 3.2 1.1 5.9 3.3 8.1l7.8 7.8c2.2 2.2 4.9 3.3 8.1 3.3zm-2.4-14.4h-14.4l-7.2-7.2v-43.2l7.2-7.2h14.4l7.2 7.2v43.2zm70.8 14.4c3.2 0 5.9-1.1 8.1-3.3l3.9-3.9v3.6c0 2.4 2.2 3.6 6.6 3.6h1.2c4.4 0 6.6-2.2 6.6-6.6v-73.2c0-4.4-2.2-6.6-6.6-6.6h-1.2c-4.4 0-6.6 2.2-6.6 6.6v58.2l-7.2 7.2h-14.4l-7.2-7.2v-58.2c0-4.4-2.2-6.6-6.6-6.6h-1.2c-4.4 0-6.6 2.2-6.6 6.6v60.6c0 3.2 1.1 5.9 3.3 8.1l7.8 7.8c2.2 2.2 4.9 3.3 8.1 3.3zm53.4 0c4.4 0 6.6-2.2 6.6-6.6v-58.2l7.2-7.2h14.4l7.2 7.2v58.2c0 4.4 2.2 6.6 6.6 6.6h1.2c4.4 0 6.6-2.2 6.6-6.6v-60.6c0-3.2-1.1-5.9-3.3-8.1l-7.8-7.8c-2.2-2.2-4.9-3.3-8.1-3.3h-12c-3.2 0-5.9 1.1-8.1 3.3l-3.9 3.9v-3.6c0-2.4-2.2-3.6-6.6-3.6h-1.2c-4.4 0-6.6 2.2-6.6 6.6v73.2c0 4.4 2.2 6.6 6.6 6.6zm97.8 0c3.2 0 5.9-1.1 8.1-3.3l3.9-3.9v3.6c0 2.4 2.2 3.6 6.6 3.6h1.2c4.4 0 6.6-2.2 6.6-6.6v-102c0-4.4-2.2-6.6-6.6-6.6h-1.2c-4.4 0-6.6 2.2-6.6 6.6v29.4l-3.9-3.9c-2.2-2.2-4.9-3.3-8.1-3.3h-12c-3.2 0-5.9 1.1-8.1 3.3l-7.8 7.8c-2.2 2.2-3.3 4.9-3.3 8.1v48c0 3.2 1.1 5.9 3.3 8.1l7.8 7.8c2.2 2.2 4.9 3.3 8.1 3.3zm4.8-14.4h-14.4l-7.2-7.2v-43.2l7.2-7.2h14.4l7.2 7.2v43.2zm90 14.4c4.4 0 6.6-2.2 6.6-6.6v-1.2c0-4.4-2.2-6.6-6.6-6.6h-29.4l-7.2-7.2v-10.8h24c3.2 0 5.9-1.1 8.1-3.3l7.8-7.8c2.2-2.2 3.3-4.9 3.3-8.1v-15.6c0-3.2-1.1-5.9-3.3-8.1l-7.8-7.8c-2.2-2.2-4.9-3.3-8.1-3.3h-19.2c-3.2 0-5.9 1.1-8.1 3.3l-7.8 7.8c-2.2 2.2-3.3 4.9-3.3 8.1v48c0 3.2 1.1 5.9 3.3 8.1l7.8 7.8c2.2 2.2 4.9 3.3 8.1 3.3zm-15-46.8h-21.6v-18l7.2-7.2h14.4l7.2 7.2v10.8zm68.4 46.8c3.2 0 5.9-1.1 8.1-3.3l3.9-3.9v3.6c0 2.4 2.2 3.6 6.6 3.6h1.2c4.4 0 6.6-2.2 6.6-6.6v-102c0-4.4-2.2-6.6-6.6-6.6h-1.2c-4.4 0-6.6 2.2-6.6 6.6v29.4l-3.9-3.9c-2.2-2.2-4.9-3.3-8.1-3.3h-12c-3.2 0-5.9 1.1-8.1 3.3l-7.8 7.8c-2.2 2.2-3.3 4.9-3.3 8.1v48c0 3.2 1.1 5.9 3.3 8.1l7.8 7.8c2.2 2.2 4.9 3.3 8.1 3.3zm4.8-14.4h-14.4l-7.2-7.2v-43.2l7.2-7.2h14.4l7.2 7.2v43.2z" fill="#fff" transform="translate(-183 -514)"/></svg>