<svg viewBox="0 0 1736 164" xmlns="http://www.w3.org/2000/svg"><path d="M16.571 116V66.286h49.715V58h8.285v-8.286h8.286V16.571h-8.286V8.286h-8.285V0H0v116h16.571zM58 49.714H16.571V16.571H58v8.286h8.286V41.43H58v8.285zm58-33.143V0H99.429v16.571H116zM116 116V33.143H99.429V116H116zm33.143 0V91.143h8.286v-8.286H174v8.286h8.286V116h16.571V91.143h-8.286v-8.286h-8.285V66.286h8.285V58h8.286V33.143h-16.571V58H174v8.286h-16.571V58h-8.286V33.143H132.57V58h8.286v8.286h8.286v16.571h-8.286v8.286h-8.286V116h16.572zm116 0V99.429h-8.286v-8.286h-8.286V49.714h16.572V33.143H248.57V0H232v33.143h-16.571v16.571H232V99.43h8.286v8.285h8.285V116h16.572zm66.286 0v-8.286h8.285V99.43h-41.428V82.857h41.428v-8.286H348V49.714h-8.286V41.43h-8.285v-8.286h-33.143v8.286H290v8.285h-8.286V99.43H290v8.285h8.286V116h33.143zm0-49.714h-33.143V49.714h33.143v16.572zM381.143 116V58h8.286v-8.286H406V58h8.286v8.286h16.571V49.714h-8.286V41.43h-8.285v-8.286h-24.857v8.286h-8.286v-8.286H364.57V116h16.572z" fill="#FFF" fill-rule="nonzero"/></svg>
