<?xml version="1.0" encoding="UTF-8"?>
<svg width="822px" height="199px" viewBox="0 0 822 199" version="1.1" xmlns="http://www.w3.org/2000/svg" xmlns:xlink="http://www.w3.org/1999/xlink">
    <title>nhsxsupreme</title>
    <defs>
        <polygon id="path-1" points="0 0 358 0 335 146 0 146"></polygon>
    </defs>
    <g id="nhsxsupreme" stroke="none" stroke-width="1" fill="none" fill-rule="evenodd">
        <g id="Supreme_Logo" transform="translate(246.000000, 0.000000)" fill-rule="nonzero">
            <polyline id="Path" fill="#ED1C24" points="575.84 198.67 0 198.67 0 0 575.84 0 575.84 198.67"></polyline>
            <path d="M86.23,48.45 C82.87,42.65 77.99,39 70.5,39 C63.33,39 55.54,44.5 54.32,51.97 C51.27,71.35 98.27,63.27 92.17,101.87 C88.51,124.92 71.57,141.25 48.07,141.25 C32.19,141.25 21.97,132.09 16.17,118.81 L32.96,104.62 C34.64,113.47 41.35,121.41 50.96,121.41 C60.12,121.41 67.14,113.63 68.52,104.78 C70.35,92.88 59.97,89.51 51.42,86 C37.69,79.9 27.92,72.42 30.82,54.57 C33.87,35.49 50.51,20.07 69.89,20.07 C80.11,20.07 93.39,25.11 99.19,32.9 L86.23,48.45 M124.65,63.26 L118.24,103.85 C116.87,112.4 116.56,122.62 127.4,122.62 C138.23,122.62 141.28,112.4 142.66,103.85 L149.06,63.25 L170.43,63.25 L163.41,107.35 C159.91,129.18 146.78,140.63 124.5,140.63 C102.22,140.63 92.75,129.18 96.26,107.36 L103.28,63.26 L124.65,63.26 M226.9,100.64 C228.42,90.57 223.53,79.74 212.55,79.74 C201.55,79.74 193.01,90.57 191.49,100.64 C189.96,110.72 194.84,121.7 205.83,121.7 C216.82,121.7 225.36,110.72 226.89,100.64 L226.9,100.64 Z M198.5,70.12 C204.3,64.32 212.7,60.82 220.63,60.82 C241.85,60.82 251.77,80.65 248.56,100.34 C245.36,120.79 229.64,140.63 207.51,140.63 C199.88,140.63 192.41,137.27 189.04,131.17 L188.74,131.17 L181.41,178.17 L160.05,178.17 L178.2,63.26 L199.56,63.26 L198.5,70.12 M279.66,71.04 L279.96,71.04 C285.3,64.48 292.17,60.81 300.11,60.81 C303.16,60.81 306.21,61.58 308.65,62.65 L303.01,82.48 C300.607498,80.6295846 297.641499,79.6621039 294.61,79.74 C279.81,79.74 276.15,92.86 274.31,104.46 L268.97,138.19 L247.61,138.19 L259.51,63.26 L280.88,63.26 L279.66,71.04 M353.21,90.88 C353.36,83.25 349.7,75.77 341.46,75.77 C332.91,75.77 326.96,83.09 324.67,90.87 L353.21,90.88 Z M321.93,104.15 C320.55,113.62 322.38,124.3 333.53,124.3 C340.54,124.3 345.73,120.03 349.55,114.07 L368.78,117.27 C361.15,132.23 346.65,140.63 330.93,140.63 C307.73,140.63 296.29,124.15 299.8,101.41 C303.46,78.67 318.26,60.81 342.53,60.81 C367.1,60.81 375.19,78.97 371.68,101.56 L371.22,104.16 L321.92,104.16 M402.04,69.97 L402.34,69.97 C407.303629,64.2519564 414.468905,60.9202847 422.04,60.81 C431.34,60.81 438.06,64.63 441.72,72.56 C447.52,65.24 456.67,60.81 465.37,60.81 C484.45,60.81 486.89,75.16 484.3,91.49 L476.97,138.19 L455.61,138.19 L461.86,98.81 C462.93,91.49 465.68,77.91 455.15,77.91 C443.55,77.91 441.11,93.62 439.89,101.41 L434.09,138.19 L412.72,138.19 L418.67,100.19 C419.9,92.86 423.25,77.91 412.11,77.91 C400.21,77.91 398.23,93.47 397.01,101.41 L391.21,138.19 L369.84,138.19 L381.74,63.26 L403.11,63.26 L402.04,69.97 M541.36,90.88 C541.52,83.25 537.86,75.77 529.61,75.77 C521.07,75.77 515.11,83.09 512.83,90.87 L541.36,90.88 Z M510.08,104.15 C508.71,113.62 510.54,124.3 521.68,124.3 C528.7,124.3 533.88,120.03 537.7,114.07 L556.93,117.27 C549.3,132.23 534.8,140.63 519.08,140.63 C495.88,140.63 484.44,124.15 487.95,101.41 C491.61,78.67 506.42,60.81 530.68,60.81 C555.25,60.81 563.34,78.97 559.83,101.56 L559.37,104.16 L510.08,104.16" id="Shape" fill="#FFFFFF"></path>
        </g>
        <g id="Bitmap" transform="translate(-0.000000, 8.000000)">
            <mask id="mask-2" fill="white">
                <use xlink:href="#path-1"></use>
            </mask>
            <use id="Mask" fill="#FFFFFF" xlink:href="#path-1"></use>
            <g id="NHS-Logo" mask="url(#mask-2)" fill-rule="nonzero">
                <rect id="Rectangle" fill="#005EB8" x="0" y="0" width="361" height="146"></rect>
                <g id="Group" transform="translate(9.000000, 12.000000)" fill="#FFFFFF">
                    <polygon id="Path" points="25.9508511 2.13647059 65.1769149 2.13647059 89.2234043 83.5752941 89.5882979 83.5752941 106.081489 2.13647059 135.710851 2.13647059 110.788617 119.571765 71.745 119.571765 47.1511702 38.3152941 46.822766 38.3152941 30.5120213 119.571765 0.882659574 119.571765"></polygon>
                    <polygon id="Path" points="147.277979 2.13647059 178.768298 2.13647059 169.5 47.0682353 206.719149 47.0682353 215.987447 2.13647059 247.477766 2.13647059 223.066383 119.571765 191.393617 119.571765 201.829574 69.2788235 164.792872 69.2788235 154.356915 119.571765 122.903085 119.571765"></polygon>
                    <path d="M330.272128,28.7235294 C322.200762,25.0096573 313.394779,23.1645936 304.510638,23.3258824 C292.067766,23.3258824 281.960213,25.1858824 281.960213,34.5952941 C281.960213,51.2623529 327.571915,45.0258824 327.571915,80.6941176 C327.571915,113.152941 297.431702,121.577647 270.174149,121.577647 C257.786219,121.289834 245.501342,119.251593 233.684787,115.523529 L240.98266,91.6352941 C247.22234,95.6835294 259.665213,98.3823529 269.918723,98.3823529 C280.172234,98.3823529 294.986915,96.5223529 294.986915,84.4141176 C294.986915,65.5588235 249.375213,72.6341176 249.375213,39.4823529 C249.375213,9.21176471 275.975957,0.0941176471 301.737447,0.0941176471 C316.333191,0.0941176471 329.834255,1.62588235 337.752447,5.30941176 L330.272128,28.7235294 Z" id="Path"></path>
                </g>
            </g>
        </g>
    </g>
</svg>