<svg height="104" viewBox="0 0 502 104" width="502" xmlns="http://www.w3.org/2000/svg"><path d="m203.232 2350.144c5.04 0 10.512-.72 16.128-2.448 6.336-1.872 11.664-4.752 15.552-8.352 9.792-2.016 17.136-7.056 21.888-14.544 5.184-.72 9.36-2.88 12.384-6.192 4.032-4.32 6.048-10.512 6.048-18.288 0-28.224-16.128-46.224-44.064-48.672-2.88-.144-6.912-.432-11.952-.144-2.88.144-11.232.144-12.96.144h-6.48c-.288 0-.72-.144-.864-.144-.576 0-3.744 0-4.896-.144-1.152 0-4.176-.144-4.608-.144-2.16 0-7.056.864-7.056 2.736 0 1.44 1.152 6.048 2.736 6.048.432 0 1.008 1.44 1.872 1.296s1.584 1.44 2.016 1.44c2.88 0 4.032 6.768 4.032 9.792v55.872c0 3.168-1.152 10.224-4.032 10.224-.432 0-1.152 1.728-2.016 1.584s-1.44 1.296-1.728 1.296c-1.728 0-2.88 4.752-2.88 6.48 0 1.584 18.576 2.16 20.88 2.16zm21.168-9.792c-3.456 0-12.24-.288-13.104-.864-.864-.432-6.48-2.16-6.48-4.896v-67.824c0-2.88 6.192-4.608 6.912-5.04.576-.576 8.208-.864 10.8-.864 19.728 0 31.104 10.8 36 24.48 1.44 4.176 4.608 8.208 4.608 15.12 0 9.42873-2.062934 17.61969-6.054398 23.90088l-.281602.43512c-1.28.256-2.56.28444-3.941136.2876l-1.191395-.00016c-1.608469-.00394-3.561469-.03544-5.955469-.28744-2.736 4.896-5.904 9.504-9.648 13.392-.24.36-.58.62-.936667.94667l-.215333.20533c-3.168.72-6.768 1.008-10.512 1.008zm86.112 11.664c10.08 0 17.712-2.88 23.616-9.504 3.456-3.744 6.336-8.208 7.344-12.096.288-1.296-5.76-5.184-7.056-4.752-2.304 1.008-3.6 9.36-5.184 12.24-1.296 2.304-3.024-2.016-4.176-.864-4.032 4.032-8.208 5.904-14.112 5.904-6.192 0-11.088-2.304-14.832-6.624-3.6-4.464-5.472-10.224-5.472-17.28v-.432l21.312 3.744c0-.72.288-5.328.432-6.48l21.888-2.592c1.296-.144 8.064 2.448 8.352 1.872.864-1.872 1.008-4.32 1.008-6.912 0-11.52-4.176-19.872-11.376-25.2-5.184-3.744-17.424-5.616-24.768-5.616-10.224 0-13.392 8.64-19.872 16.128s-8.496 11.808-8.496 23.616c0 10.8 2.88 19.296 8.64 25.632 5.76 6.192 13.392 9.216 22.752 9.216zm18.288-44.064-36.864-.72c.864-6.192 3.168-11.232 7.056-15.264s8.64-6.048 14.544-6.048c4.176 0 7.632 1.152 10.512 3.312s2.88 6.192 5.616 8.928c1.296 2.016 4.176 1.584 4.176 4.464 0 .432-5.04 4.608-5.04 5.328zm63.648 43.776c6.48 0 12.528-1.44 17.424-4.464.864-.144 1.584-.576 2.016-1.152 1.872-1.296 3.744-2.88 5.328-4.752 6.048-6.48 9.648-15.84 9.648-27.648v-.144c0-11.52-3.6-20.736-9.792-27.504s-14.688-10.368-23.904-10.368c-9.792 0-16.848 3.744-22.176 9.648l1.152-11.664c.144-.288.288-2.16.288-2.88.144-2.16.864-8.064.864-8.928l.000664-.34357c.008154-2.58002.060136-7.57643-1.728664-7.57643-.432 0-2.736 0-3.888.144-.288-2.448-1.008-4.752-2.16-4.752-.288 0-2.304 0-3.312.144-.948706.11859-2.77636.13952-3.874429.14321l-1.007571.00012c-.89-.00333-2.63-.02333-3.47-.14333-1.008-.144-3.024-.144-3.456-.144-1.872 0-2.736 4.176-2.736 5.616 0 1.584 1.44 4.608 3.168 6.048l.144.144c.432 1.584 1.296 3.168 2.304 4.176l1.872 1.728c.432.432.864.864 1.296 1.44.144 1.728.288 4.176.288 5.472v20.016l-3.456 45.36-.432 5.616c-.144 2.016.144 5.904 1.872 5.904 1.296 0 5.76-.144 6.192-.576 0 0 .144-.144.144-.288.288.288.432.432.576.288.432-.288 6.192-1.152 6.192-2.592v-3.168c4.608 4.752 10.656 7.056 18 7.056.864 0 1.728-.144 2.736-.144 1.152.144 2.592.288 3.888.288zm-1.152-9.504c-2.736-1.008-5.184-1.728-6.768-1.728-1.872 0-3.456-.288-4.896-.72-2.88-1.44-5.328-3.456-7.344-6.192-.864-1.728-1.584-3.888-2.16-6.336-1.296-1.296-2.592-7.776-2.016-10.08-1.44-7.632 1.872-14.544 5.616-20.448 3.744-5.76 8.64-8.64 14.832-8.64 5.328 0 9.504 2.016 12.384 5.904 1.728 2.304 7.92 7.632 12.528 12.816.864 2.16 1.872 4.32 1.872 7.056 0 17.568-9.792 27.936-24.048 28.368zm11.808 4.32c2.592-1.872 5.04-4.32 7.2-7.344 4.896-6.912 7.776-14.976 8.496-24.048.144.576.288 1.152.288 1.584 0 8.352-3.312 23.04-7.056 29.088 0 .1152-.09216.13824-.129024.21658l-.014976.07142c-.6.36-1.1.72-1.666667.99667l-.349333.15533c-1.728.432-4.176.144-6.768-.72zm84.816 4.464c.864 0 5.904-.144 6.624-.144h5.76c.864.144 4.608.144 5.04.144 4.176 0 6.48-1.584 6.48-4.752 0-1.44-1.152-4.032-2.448-5.184l-2.304-2.16c-1.152-.864-2.304-3.312-2.736-4.032-.422609-.84522-.70741-8.16737-.719593-11.58599l-.000407-37.95001c0-1.728-.288-5.616-.432-6.048-.288-1.728-1.872-2.592-5.04-2.592-.432 0-1.152 0-2.016.144-1.008.144-2.016.144-2.736.144-1.152.144-2.304.144-3.744.144s-2.448.288-3.024.288c-2.016.432-3.168 1.44-3.168 3.312 0 1.584 2.16 13.248 2.736 15.12l2.592 7.92c.288 1.008 1.584 7.488 1.872 7.92.144.288.288 3.6.288 3.888.144.72-2.448 2.304-3.456 3.168l-6.336 5.616v.576c-.72 11.232-4.32 16.272-11.952 16.128-4.464 0-7.92-1.584-10.368-4.176s-4.464-6.912-4.896-12.96c-.850065-2.40852-1.700129-19.17444-1.727329-22.32039l-.000671-4.03161c0-1.728-.144-17.712-.288-18.144-.432-.576-1.008-1.008-1.872-1.296-.432-.144-1.152-.432-2.16-.432-1.008-.144-1.872-.288-2.592-.432-1.296-.144-2.736-.288-4.464-.432-1.44-.144-2.592-.144-3.168-.144-2.304 0-3.456.72-3.888 2.16-.432 1.584 0 2.16 1.728 2.448.144.288 1.872.144 2.016.288 1.008.144 1.44.576 1.584 1.296.144.864.144 2.592.144 5.184v29.52c0 8.064 1.296 14.256 4.176 18.864s7.344 7.632 13.536 9.504c3.6 1.152 6.768 1.872 9.936 1.872 3.168-.144 6.48-1.008 9.936-2.736.576.144 1.152 2.592 1.728 3.024 1.44 2.304 2.448 3.024 5.328 3.024 1.296 0 2.592 0 4.032-.144zm59.04-2.88c0-1.584-.864-7.056-2.736-7.056-.432 0-.864-1.584-1.44-1.44-.576 0-.864-1.152-1.008-1.152-1.97568 0-2.430086-6.36169-2.447472-9.46232l.000435-16.52624c.033079-17.38677.995517-25.13144 14.543037-25.13144 4.896 0-.72.432 2.016 2.736 3.024 2.592 22.176 5.76 22.896 11.664 1.44.72 2.016 13.392 1.872 15.408.288 2.88.144 4.896-.432 6.192-.144.576-.864 2.448-1.872 2.448-.144 0-.576.864-1.152.864-.576-.144-1.008.864-1.44.864-1.872 0-2.736 3.888-2.736 5.616 0 1.44.864 5.04 2.592 5.04.144 0 1.152 2.16 3.024 2.016 1.728-.144 3.6 3.744 5.328 3.744 1.44 0 3.024 3.744 4.752 3.888s2.736 2.304 3.024 2.304c2.016 0 8.352-.432 8.352-1.872 0-1.728-1.008-6.624-3.024-6.624-.288 0-1.296-1.584-1.872-1.584-1.44 0-2.304-2.88-2.736-3.456-.420324-.42032-.704327-5.6119-.719372-8.01441l-.000628-22.08159c0-5.328-1.008-9.216-3.168-11.664-2.304-2.448-5.76-3.6-10.656-3.6-5.184 0-7.632-1.872-10.944 2.448v-2.592c0-2.448-.432-2.88-2.304-2.88h-.576c-1.2.12-2.5.14-3.733333.14333l-.730667.00067c-.576 0-1.296 0-1.872-.144h-1.152c-.144-8.928-6.336-11.232-15.408-11.232-6.768 0-11.664 2.592-13.68 7.056-.740571 1.35771-.211592 2.29224.861481 2.98496l.004519.00304-.002.036v30.096c0 1.872-.288 5.76-.72 6.336s-1.44 2.88-2.736 2.88c-.432 0-1.44 1.296-1.872 1.296-2.016 0-3.024 4.032-3.024 5.616s.72 5.184 2.736 5.184c.288 0 1.296 2.016 3.024 1.872s3.312 3.168 4.752 3.168c1.728 0 3.456 4.176 5.328 4.32s2.88 2.304 3.024 2.304c1.728 0 8.064-.576 8.064-2.016zm136.944.144c0-1.584-3.312-5.472-5.184-5.472-.432 0-2.304-1.152-2.736-1.152-1.152 0-3.312-2.016-3.888-2.304s-2.592-2.736-3.168-3.6l-21.024-29.232 11.088-11.232c1.872-1.728 5.472-4.896 6.912-4.896.288 0 1.872-.288 2.16-.288 2.88 0 6.336-3.168 6.336-4.896 0-1.584 1.152-4.176-1.008-4.176 0 0 .288-1.152-1.44-1.008-1.872.144-1.152-2.16-2.88-2.16-1.584 0-7.776-.144-9.36-.288-1.728-.288-4.896-.432-4.896-.432-1.728 0-5.616 3.888-5.616 5.328 0 1.296-1.728 4.896 0 4.896.432 0-.144 1.152.576 1.008.576-.144.144 1.008.432 1.008.864 0 .144 1.008.144 1.296 0 .432-1.44 2.016-2.16 2.736l-21.168 21.888v-52.128c0-2.448-.576-7.344-2.448-7.344-.144 0-.432-.576-.72-.576-1.584.144-3.312-4.464-4.896-4.464-.576 0-1.296-1.296-2.016-1.296-.72-.144-1.152-.144-1.152-.144-1.728 0-4.176.864-4.176 2.16 0 1.584-.432 2.16 1.296 2.16h1.872c1.44 0 1.584.288 2.016 1.008.576.576-.72 2.448-.72 5.472v52.56c0 2.16-.144 7.2-.72 7.776-.432.576-1.296 3.312-2.736 3.312-.432 0-1.44 1.584-2.016 1.584-2.016 0-3.024 4.608-3.024 6.192s.864 5.76 2.88 5.76c0 0 1.008 2.448 2.88 2.16 1.872-.144 3.744 4.608 5.616 4.608 1.44 0 3.024 3.888 4.464 4.032 1.44.288 2.16 2.16 2.16 2.16 1.584 0 4.032-.432 4.032-2.16 0-1.584 1.152-2.304-.432-2.304-.288 0-.432.144-.72.144-1.152 0-.576-.288-1.008-.864-.288-.576-.864-11.808-.432-13.824l.864-5.04 7.488-7.344 13.104 9.072.288.288c.144.144.288.144.288.288 0 .576.144.288-.864.288h-.144c-.288-.144-.288-.432-.72-.432-2.304 0-.432 4.176-.432 6.048 0 1.44 2.736 4.752 4.32 4.752 0 0 1.872 1.584 3.312 1.296 1.44-.144 5.328 2.88 6.768 2.88 1.872 0 6.912 4.32 8.784 4.608 1.872.144 4.464 2.304 4.464 2.304 2.016 0 9.36-.432 9.36-2.016z" fill="#fff" transform="translate(-182 -2249)"/></svg>